<?xml version="1.0" encoding="utf-8"?>
<!-- Generator: Adobe Illustrator 23.1.0, SVG Export Plug-In . SVG Version: 6.00 Build 0)  -->
<svg version="1.1" id="Capa_1" xmlns="http://www.w3.org/2000/svg" xmlns:xlink="http://www.w3.org/1999/xlink" x="0px" y="0px"
	 viewBox="0 0 610 612" style="enable-background:new 0 0 610 612;" xml:space="preserve">
<style type="text/css">
	.st0{fill:#E04312;}
</style>
<title>lightning-bolt-polygonal-shape-of-small-triangles-svgrepo-com</title>
<path class="st0" d="M0.7,484.7L0,206.6c-0.1-10.5,8.4-19.1,18.9-19.1c2.6,0,5.3,0.5,7.7,1.6l253.2,108.3c7,3,11.6,9.9,11.6,17.5
	l0.7,278.2c0,10.5-8.5,19.1-19,19.1c-2.6,0-5.2-0.5-7.5-1.5L12.2,502.2C5.2,499.2,0.7,492.3,0.7,484.7z M580.8,219.7L347.1,320.9
	l0.6,257.4l233.7-101.2L580.8,219.7 M590.3,186.1c10.5,0,19,8.5,19.1,19l0.7,278.2c0,7.6-4.5,14.5-11.5,17.5L345.8,610.3
	c-9.6,4.2-20.8-0.2-25-9.8c-1.1-2.4-1.6-5-1.6-7.7l-0.6-278.1c0-7.6,4.5-14.5,11.4-17.5l252.7-109.4
	C585.1,186.7,587.7,186.1,590.3,186.1L590.3,186.1z M303.1,29.5L60.8,137.7l242.9,107.1L546,136.5L303.1,29.5 M303.1,0
	c2.7,0,5.3,0.5,7.7,1.6l266.4,117.4c15.1,6.7,15.2,28.1,0.1,34.8L311.5,272.6c-2.4,1.1-5.1,1.6-7.7,1.6c-2.7,0-5.3-0.5-7.7-1.6
	L29.6,155.2c-15.1-6.7-15.2-28.1-0.1-34.8L295.4,1.6C297.8,0.6,300.4,0,303.1,0z"/>
</svg>
