<?xml version="1.0" encoding="utf-8"?>
<!-- Generator: Adobe Illustrator 23.1.0, SVG Export Plug-In . SVG Version: 6.00 Build 0)  -->
<svg version="1.1" id="Layer_1" xmlns="http://www.w3.org/2000/svg" xmlns:xlink="http://www.w3.org/1999/xlink" x="0px" y="0px"
	 viewBox="0 0 2700 1700" style="enable-background:new 0 0 2700 1700;" xml:space="preserve">
<style type="text/css">
	.st0{fill:#FFFFFF;}
	.st1{opacity:0.14;}
	.st2{fill:#B9C4C6;}
	.st3{fill:url(#SVGID_1_);}
	.st4{opacity:0.3;fill:#FFFFFF;}
	.st5{fill:url(#SVGID_2_);}
	.st6{fill:url(#SVGID_3_);}
	.st7{fill:url(#SVGID_4_);}
	.st8{fill:url(#SVGID_5_);}
	.st9{fill:url(#SVGID_6_);}
	.st10{fill:url(#SVGID_7_);}
	.st11{fill:url(#SVGID_8_);}
	.st12{fill:url(#SVGID_9_);}
	.st13{fill:url(#SVGID_10_);}
	.st14{fill:#898989;}
	.st15{fill:#B6E1DE;}
	.st16{fill:#85979E;}
	.st17{fill:url(#SVGID_11_);}
	.st18{fill:url(#SVGID_12_);}
	.st19{fill:url(#SVGID_13_);}
	.st20{fill:#F0EFEF;}
	.st21{fill:url(#SVGID_14_);}
	.st22{fill:url(#SVGID_15_);}
	.st23{fill:url(#SVGID_16_);}
	.st24{fill:url(#SVGID_17_);}
	.st25{fill:url(#SVGID_18_);}
	.st26{fill:url(#SVGID_19_);}
	.st27{fill:url(#SVGID_20_);}
	.st28{fill:url(#SVGID_21_);}
	.st29{fill:#D8EAE8;}
	.st30{fill:#E9F5F3;}
	.st31{fill:url(#SVGID_22_);}
	.st32{fill:#ECE8F3;}
	.st33{fill:url(#SVGID_23_);}
	.st34{fill:url(#SVGID_24_);}
	.st35{fill:url(#SVGID_25_);}
	.st36{fill:url(#SVGID_26_);}
	.st37{fill:url(#SVGID_27_);}
	.st38{fill:url(#SVGID_28_);}
	.st39{fill:url(#SVGID_29_);}
	.st40{fill:url(#SVGID_30_);}
	.st41{fill:url(#SVGID_31_);}
	.st42{fill:url(#SVGID_32_);}
	.st43{fill:url(#SVGID_33_);}
	.st44{fill:url(#SVGID_34_);}
	.st45{fill:url(#SVGID_35_);}
	.st46{fill:url(#SVGID_36_);}
	.st47{fill:url(#SVGID_37_);}
	.st48{fill:url(#SVGID_38_);}
	.st49{fill:url(#SVGID_39_);}
	.st50{fill:url(#SVGID_40_);}
	.st51{fill:url(#SVGID_41_);}
	.st52{fill:url(#SVGID_42_);}
	.st53{fill:url(#SVGID_43_);}
	.st54{fill:url(#SVGID_44_);}
	.st55{fill:url(#SVGID_45_);}
	.st56{fill:url(#SVGID_46_);}
	.st57{fill:url(#SVGID_47_);}
	.st58{fill:url(#SVGID_48_);}
	.st59{opacity:0.41;fill:#FFFFFF;}
	.st60{fill:url(#SVGID_49_);}
	.st61{fill:url(#SVGID_50_);}
	.st62{fill:url(#SVGID_51_);}
	.st63{fill:url(#SVGID_52_);}
	.st64{fill:url(#SVGID_53_);}
	.st65{fill:url(#SVGID_54_);}
	.st66{fill:url(#SVGID_55_);}
	.st67{fill:url(#SVGID_56_);}
	.st68{fill:#B0302F;}
	.st69{opacity:0.33;}
	.st70{opacity:0.09;fill:#010101;}
	.st71{fill:#010101;}
	.st72{opacity:0.24;fill:#010101;}
	.st73{fill:#CCCCCC;}
	.st74{fill:#F7F8F8;}
	.st75{fill:url(#SVGID_57_);}
	.st76{fill:url(#SVGID_58_);}
	.st77{fill:url(#SVGID_59_);}
	.st78{fill:#DC7C27;}
	.st79{filter:url(#Adobe_OpacityMaskFilter);}
	.st80{filter:url(#Adobe_OpacityMaskFilter_1_);}
	.st81{mask:url(#SVGID_60_);fill:url(#SVGID_61_);}
	.st82{opacity:0.28;fill:url(#SVGID_62_);}
	.st83{filter:url(#Adobe_OpacityMaskFilter_2_);}
	.st84{filter:url(#Adobe_OpacityMaskFilter_3_);}
	.st85{mask:url(#SVGID_63_);fill:url(#SVGID_64_);}
	.st86{fill:url(#SVGID_65_);}
	.st87{fill:url(#SVGID_66_);}
	.st88{filter:url(#Adobe_OpacityMaskFilter_4_);}
	.st89{filter:url(#Adobe_OpacityMaskFilter_5_);}
	.st90{mask:url(#SVGID_67_);fill:url(#SVGID_68_);}
	.st91{opacity:0.28;fill:url(#SVGID_69_);}
	.st92{filter:url(#Adobe_OpacityMaskFilter_6_);}
	.st93{filter:url(#Adobe_OpacityMaskFilter_7_);}
	.st94{mask:url(#SVGID_70_);fill:url(#SVGID_71_);}
	.st95{fill:url(#SVGID_72_);}
	.st96{fill:url(#SVGID_73_);}
	.st97{fill:url(#SVGID_74_);}
	.st98{fill:url(#SVGID_75_);}
	.st99{fill:url(#SVGID_76_);}
	.st100{filter:url(#Adobe_OpacityMaskFilter_8_);}
	.st101{filter:url(#Adobe_OpacityMaskFilter_9_);}
	.st102{mask:url(#SVGID_77_);fill:url(#SVGID_78_);}
	.st103{opacity:0.14;fill:url(#SVGID_79_);}
	.st104{filter:url(#Adobe_OpacityMaskFilter_10_);}
	.st105{filter:url(#Adobe_OpacityMaskFilter_11_);}
	.st106{mask:url(#SVGID_80_);fill:url(#SVGID_81_);}
	.st107{opacity:0.6;fill:url(#SVGID_82_);}
	.st108{filter:url(#Adobe_OpacityMaskFilter_12_);}
	.st109{filter:url(#Adobe_OpacityMaskFilter_13_);}
	.st110{mask:url(#SVGID_83_);fill:url(#SVGID_84_);}
	.st111{opacity:0.6;fill:url(#SVGID_85_);}
	.st112{fill:url(#SVGID_86_);}
	.st113{filter:url(#Adobe_OpacityMaskFilter_14_);}
	.st114{filter:url(#Adobe_OpacityMaskFilter_15_);}
	.st115{mask:url(#SVGID_87_);fill:url(#SVGID_88_);}
	.st116{opacity:0.6;fill:url(#SVGID_89_);}
	.st117{fill:url(#SVGID_90_);}
	.st118{fill:url(#SVGID_91_);}
	.st119{fill:url(#SVGID_92_);}
	.st120{fill:url(#SVGID_93_);}
	.st121{fill:url(#SVGID_94_);}
	.st122{fill:url(#SVGID_95_);}
	.st123{fill:url(#SVGID_96_);}
	.st124{fill:url(#SVGID_97_);}
	.st125{fill:url(#SVGID_98_);}
	.st126{fill:url(#SVGID_99_);}
	.st127{fill:url(#SVGID_100_);}
	.st128{fill:url(#SVGID_101_);}
	.st129{fill:url(#SVGID_102_);}
	.st130{fill:url(#SVGID_103_);}
	.st131{fill:url(#SVGID_104_);}
	.st132{fill:url(#SVGID_105_);}
	.st133{fill:url(#SVGID_106_);}
	.st134{fill:url(#SVGID_107_);}
	.st135{fill:url(#SVGID_108_);}
	.st136{fill:url(#SVGID_109_);}
	.st137{fill:url(#SVGID_110_);}
	.st138{fill:url(#SVGID_111_);}
</style>
<rect class="st0" width="2700" height="1700"/>
<g class="st1">
	<path class="st2" d="M2523.45,1427.24H266.9c0,0,13.83-463.47,478.87-370.55c465.04,92.92,96.32-452.87,538.79-637.18
		s803.8,167.47,737.43,655.27C1955.62,1562.57,2486.57,878.94,2523.45,1427.24z"/>
	<path class="st2" d="M2533.96,1437.06H256.77l0.3-10.12c0.25-8.47,7.81-208.74,148.56-320.68
		c85.07-67.65,200.15-87.58,342.06-59.21c88.7,17.73,151.13,12.67,190.85-15.47c53.66-38.01,64.74-116.04,77.57-206.4
		c20.47-144.19,45.94-323.64,264.67-414.75c194.72-81.11,390.45-63,537.01,49.74c168.77,129.81,248.76,360.07,213.94,615.93
		c-12.01,88.26-5.07,141.83,21.19,163.77c31.83,26.6,94.26,6.31,160.37-15.17c79.92-25.97,170.51-55.41,235.83-11.22
		c49.21,33.29,76.73,103,84.14,213.11L2533.96,1437.06z M277.38,1417.41h2235.48c-7.91-97.56-32.4-159-74.76-187.66
		c-57.38-38.81-139.4-12.14-218.74,13.63c-71.41,23.21-138.86,45.15-179.05,11.56c-32.32-27-41.24-84.67-28.06-181.5
		c33.85-248.79-43.32-472.23-206.45-597.7c-142.88-109.9-326.65-126.66-517.47-47.17c-208.4,86.81-231.97,252.86-252.76,399.37
		c-13.46,94.85-25.09,176.77-85.67,219.67c-44.37,31.44-111.76,37.56-206.06,18.7c-135.97-27.18-245.65-8.55-325.98,55.32
		C301.62,1214.1,280.86,1375.56,277.38,1417.41z"/>
</g>
<g>
	
		<radialGradient id="SVGID_1_" cx="362.3389" cy="4902.4199" r="1927.1064" gradientTransform="matrix(0.4052 -0.9142 -0.9142 -0.4052 7048.1816 2924.0388)" gradientUnits="userSpaceOnUse">
		<stop  offset="0" style="stop-color:#E20882"/>
		<stop  offset="0.5464" style="stop-color:#FBAF4A"/>
		<stop  offset="1" style="stop-color:#FCF5A3"/>
	</radialGradient>
	<path class="st3" d="M2069.19,688.01l-686.31,740.32c96.67,23.27,254.7-22.07,397.92-142.21c1.03-0.84,2.06-1.71,3.06-2.58
		c39.98-33.85,78.76-73.57,114.66-119.26c11.82-15.02,22.8-30.32,33.03-45.8c0.59-0.88,1.17-1.75,1.74-2.63
		c37.9-57.85,65.23-117.96,84.95-174.16c0.32-0.89,0.63-1.77,0.93-2.67C2066.92,801.59,2069.19,688.01,2069.19,688.01z"/>
	<path class="st4" d="M1844.13,930.79l-2.42,2.61l176.53,8.28c0.32-0.89,0.63-1.77,0.93-2.67L1844.13,930.79z"/>
	<path class="st4" d="M1683.46,1104.1l-2.42,2.61l250.52,11.77c0.59-0.88,1.17-1.75,1.74-2.63L1683.46,1104.1z"/>
	<path class="st4" d="M1528.24,1271.54l-2.41,2.6l254.97,11.99c1.03-0.84,2.06-1.71,3.06-2.58L1528.24,1271.54z"/>
	
		<linearGradient id="SVGID_2_" gradientUnits="userSpaceOnUse" x1="556.3632" y1="7284.6211" x2="1342.5483" y2="7284.6211" gradientTransform="matrix(0.0693 -0.9975 -0.9975 -0.0693 8918.2188 2509.4966)">
		<stop  offset="0" style="stop-color:#60A7A0"/>
		<stop  offset="1" style="stop-color:#508789"/>
	</linearGradient>
	<path class="st5" d="M1536.11,967.78c-0.81,0.93-1.6,1.88-2.38,2.84l-0.01,0.02c-66.14,78.19-110.99,161.2-136.37,238.14
		c-0.67,2.05-1.35,4.09-1.98,6.14c-26.53,83.42-29.94,159.3-12.48,213.42l686.31-740.32c0,0-80.22,7.7-185.25,44.78
		c-0.88,0.31-1.74,0.6-2.62,0.92c-55.18,19.68-117.03,47.44-177.63,86.39c-0.84,0.57-1.69,1.1-2.53,1.67
		c-32.11,20.82-63.84,44.81-93.97,72.44C1581.26,917.96,1557.59,942.62,1536.11,967.78z"/>
	<path class="st4" d="M1881.32,733.71l17.07,138.56l2.42-2.61l-16.87-136.86C1883.06,733.1,1882.2,733.39,1881.32,733.71z"/>
	<path class="st4" d="M1701.16,821.76l28.65,232.34l2.41-2.6l-28.52-231.41C1702.86,820.67,1702,821.19,1701.16,821.76z"/>
	<path class="st4" d="M1536.11,967.78c-0.81,0.93-1.6,1.88-2.38,2.84l-0.01,0.02l32.11,260.35l2.41-2.6L1536.11,967.78z"/>
	<path class="st4" d="M1397.35,1208.78c-0.67,2.05-1.35,4.09-1.98,6.14l21.75,176.49l2.42-2.61L1397.35,1208.78z"/>
</g>
<g>
	<linearGradient id="SVGID_3_" gradientUnits="userSpaceOnUse" x1="304.0203" y1="761.6541" x2="1761.8336" y2="2119.3518">
		<stop  offset="1.300000e-07" style="stop-color:#D76927"/>
		<stop  offset="0.9995" style="stop-color:#C42827"/>
	</linearGradient>
	<rect x="469.11" y="945.41" class="st6" width="590.76" height="490.17"/>
	<linearGradient id="SVGID_4_" gradientUnits="userSpaceOnUse" x1="-231.6182" y1="-319.6965" x2="912.0749" y2="977.3906">
		<stop  offset="1.300000e-07" style="stop-color:#D76927"/>
		<stop  offset="0.9995" style="stop-color:#C42827"/>
	</linearGradient>
	<rect x="1059.87" y="945.41" class="st7" width="80.23" height="490.17"/>
	<linearGradient id="SVGID_5_" gradientUnits="userSpaceOnUse" x1="413.0235" y1="585.6699" x2="1447.6505" y2="1549.2438">
		<stop  offset="1.300000e-07" style="stop-color:#D76927"/>
		<stop  offset="0.9995" style="stop-color:#C42827"/>
	</linearGradient>
	<polygon class="st8" points="1059.87,945.41 472.22,945.41 418.24,836.3 1009.21,836.3 	"/>
	<linearGradient id="SVGID_6_" gradientUnits="userSpaceOnUse" x1="1307.4034" y1="678.8671" x2="1025.4084" y2="1019.3895">
		<stop  offset="1.300000e-07" style="stop-color:#D76927"/>
		<stop  offset="0.9995" style="stop-color:#C42827"/>
	</linearGradient>
	<polygon class="st9" points="1059.87,945.41 1123.6,836.3 1190.11,836.3 1140.1,945.41 	"/>
	<linearGradient id="SVGID_7_" gradientUnits="userSpaceOnUse" x1="205.2784" y1="990.2022" x2="697.4389" y2="1357.3267">
		<stop  offset="1.300000e-07" style="stop-color:#D76927"/>
		<stop  offset="0.9995" style="stop-color:#C42827"/>
	</linearGradient>
	<rect x="527.44" y="1232.69" class="st10" width="199.84" height="144.73"/>
	<linearGradient id="SVGID_8_" gradientUnits="userSpaceOnUse" x1="563.3497" y1="1016.9576" x2="913.0443" y2="1277.8103">
		<stop  offset="1.300000e-07" style="stop-color:#D76927"/>
		<stop  offset="0.9995" style="stop-color:#C42827"/>
	</linearGradient>
	<rect x="759.85" y="1232.69" class="st11" width="206.79" height="15.96"/>
	<linearGradient id="SVGID_9_" gradientUnits="userSpaceOnUse" x1="563.3497" y1="1051.5419" x2="913.0443" y2="1312.3947">
		<stop  offset="1.300000e-07" style="stop-color:#D76927"/>
		<stop  offset="0.9995" style="stop-color:#C42827"/>
	</linearGradient>
	<rect x="759.85" y="1267.27" class="st12" width="206.79" height="15.96"/>
	<linearGradient id="SVGID_10_" gradientUnits="userSpaceOnUse" x1="563.3498" y1="1086.1262" x2="913.0443" y2="1346.9789">
		<stop  offset="1.300000e-07" style="stop-color:#D76927"/>
		<stop  offset="0.9995" style="stop-color:#C42827"/>
	</linearGradient>
	<rect x="759.85" y="1301.85" class="st13" width="206.79" height="15.96"/>
</g>
<g>
	<path class="st0" d="M810.41,1435.97h424.14c0,0,29.85-57.85-21.29-73.81c-51.14-15.97-46.28-102.97-82.61-136.52
		c-36.33-33.55-102.51-45.35-153.41,2.31c-50.91,47.67-51.37,114.77-121.48,99.96C785.65,1313.1,754.88,1396.4,810.41,1435.97z"/>
	<path class="st14" d="M1234.85,1436.47h-424.6l-0.13-0.09c-30.3-21.59-33.8-54.18-23.83-76.9c5.3-12.08,14.19-21.56,25.71-27.43
		c12.61-6.42,27.77-8.02,43.86-4.63c45.81,9.68,61.63-15.83,81.65-48.12c10.29-16.59,21.94-35.39,39.38-51.72
		c29.8-27.9,61.33-32.66,82.54-31.75c26.46,1.14,52.54,11.87,71.56,29.43c15.55,14.36,23.72,38.82,31.62,62.47
		c10.65,31.88,21.66,64.84,50.79,73.93c13.54,4.23,22.67,11.78,27.13,22.46c9.43,22.56-5.4,51.77-5.55,52.06L1234.85,1436.47z
		 M810.57,1435.47h423.67c1.47-2.99,14.15-29.97,5.38-50.95c-4.34-10.38-13.26-17.75-26.51-21.88
		c-29.62-9.25-40.72-42.46-51.44-74.57c-7.86-23.53-15.99-47.87-31.35-62.06c-36.67-33.87-102.66-44.57-152.73,2.31
		c-17.34,16.24-28.96,34.98-39.22,51.51c-17.26,27.84-31.43,50.68-64.11,50.69c-5.62,0-11.78-0.67-18.6-2.12
		c-15.86-3.35-30.8-1.78-43.2,4.54c-11.31,5.76-20.04,15.08-25.25,26.94C777.41,1382.2,780.85,1414.21,810.57,1435.47z"/>
</g>
<path class="st15" d="M1512.02,1435.97h389.12c0,0,27.38-53.07-19.53-67.72c-46.92-14.65-42.46-94.47-75.79-125.25
	c-33.33-30.78-94.04-41.61-140.75,2.12s-47.13,105.29-111.45,91.71C1489.31,1323.25,1461.07,1399.67,1512.02,1435.97z"/>
<g>
	<rect x="707.3" y="1554.85" class="st16" width="1524.15" height="3"/>
</g>
<g>
	<rect x="400.1" y="1458.11" class="st16" width="980.46" height="3"/>
</g>
<g>
	<rect x="211.68" y="1435.35" class="st16" width="1934.51" height="3"/>
</g>
<g>
	<g>
		<radialGradient id="SVGID_11_" cx="1511.1008" cy="1734.4647" r="1335.7137" gradientUnits="userSpaceOnUse">
			<stop  offset="0" style="stop-color:#FBAF4A"/>
			<stop  offset="1" style="stop-color:#FFCE64"/>
		</radialGradient>
		<path class="st17" d="M1214.65,1431.33h270.71c51,0,92.34-41.34,92.34-92.34V631.86c0-51-41.34-92.34-92.34-92.34h-270.71
			c-51,0-92.34,41.34-92.34,92.34v707.13C1122.3,1389.99,1163.64,1431.33,1214.65,1431.33z"/>
		<g>
			<path class="st0" d="M1118.44,1346.71V624.13c0-48.87,38.2-88.64,85.15-88.64h292.82c46.95,0,85.15,39.76,85.15,88.64v722.58
				c0,48.87-38.2,88.64-85.15,88.64h-292.82C1156.64,1435.35,1118.44,1395.59,1118.44,1346.71z M1203.59,543.53
				c-42.7,0-77.43,36.16-77.43,80.6v722.58c0,44.44,34.74,80.6,77.43,80.6h292.82c42.7,0,77.43-36.16,77.43-80.6V624.13
				c0-44.44-34.74-80.6-77.43-80.6H1203.59z"/>
			<path class="st16" d="M1496.41,1436.85h-292.82c-47.78,0-86.65-40.43-86.65-90.14V624.13c0-49.7,38.87-90.14,86.65-90.14h292.82
				c47.78,0,86.65,40.43,86.65,90.14v722.58C1583.06,1396.42,1544.19,1436.85,1496.41,1436.85z M1203.59,537
				c-46.12,0-83.65,39.09-83.65,87.14v722.58c0,48.05,37.53,87.14,83.65,87.14h292.82c46.13,0,83.65-39.09,83.65-87.14V624.13
				c0-48.05-37.53-87.14-83.65-87.14H1203.59z M1496.41,1428.82h-292.82c-43.52,0-78.93-36.83-78.93-82.1V624.13
				c0-45.27,35.41-82.1,78.93-82.1h292.82c43.52,0,78.93,36.83,78.93,82.1v722.58C1575.34,1391.98,1539.93,1428.82,1496.41,1428.82z
				 M1203.59,545.03c-41.87,0-75.93,35.48-75.93,79.1v722.58c0,43.62,34.06,79.1,75.93,79.1h292.82c41.87,0,75.93-35.48,75.93-79.1
				V624.13c0-43.62-34.06-79.1-75.93-79.1H1203.59z"/>
		</g>
	</g>
	<g>
		
			<linearGradient id="SVGID_12_" gradientUnits="userSpaceOnUse" x1="1470.8223" y1="564.3614" x2="1559.387" y2="564.3614" gradientTransform="matrix(-1 0 0 1 3048.0486 0)">
			<stop  offset="0" style="stop-color:#60A7A0"/>
			<stop  offset="1" style="stop-color:#508789"/>
		</linearGradient>
		<path class="st18" d="M1573.8,585.87l3.43,7.68h-67.37l-21.19-58.37h6.96C1529.4,535.17,1560.02,555.03,1573.8,585.87z"/>
		
			<linearGradient id="SVGID_13_" gradientUnits="userSpaceOnUse" x1="1381.7968" y1="536.7042" x2="1531.7574" y2="612.0986" gradientTransform="matrix(-1 0 0 1 3048.0486 0)">
			<stop  offset="0" style="stop-color:#60A7A0"/>
			<stop  offset="1" style="stop-color:#508789"/>
		</linearGradient>
		<path class="st19" d="M1577.23,593.55c0,0-23.36,48.87-67.37,0H1577.23z"/>
		<polygon class="st0" points="1488.66,535.17 1428.89,535.17 1445.19,593.55 1509.85,593.55 		"/>
		<path class="st20" d="M1509.85,593.55c0,0-23.91,44.8-64.66,0H1509.85z"/>
		
			<linearGradient id="SVGID_14_" gradientUnits="userSpaceOnUse" x1="1582.0951" y1="535.3744" x2="1876.2164" y2="691.963" gradientTransform="matrix(-1 0 0 1 3048.0486 0)">
			<stop  offset="0" style="stop-color:#60A7A0"/>
			<stop  offset="1" style="stop-color:#508789"/>
		</linearGradient>
		<polygon class="st21" points="1428.89,535.17 1445.19,593.55 1377.82,593.55 1377.82,535.17 		"/>
		
			<linearGradient id="SVGID_15_" gradientUnits="userSpaceOnUse" x1="1602.8544" y1="604.4089" x2="1670.2288" y2="604.4089" gradientTransform="matrix(-1 0 0 1 3048.0486 0)">
			<stop  offset="0" style="stop-color:#60A7A0"/>
			<stop  offset="1" style="stop-color:#508789"/>
		</linearGradient>
		<path class="st22" d="M1445.19,593.55c0,0-23.36,48.87-67.37,0H1445.19z"/>
		
			<rect x="1321.86" y="535.17" transform="matrix(-1 -1.224647e-16 1.224647e-16 -1 2699.6755 1128.7228)" class="st0" width="55.96" height="58.37"/>
		<path class="st20" d="M1377.82,593.55c0,0-28.8,43.44-55.96,0H1377.82z"/>
		
			<linearGradient id="SVGID_16_" gradientUnits="userSpaceOnUse" x1="1826.3083" y1="552.6028" x2="2127.0576" y2="656.9953" gradientTransform="matrix(-1 0 0 1 3048.0486 0)">
			<stop  offset="0" style="stop-color:#60A7A0"/>
			<stop  offset="1" style="stop-color:#508789"/>
		</linearGradient>
		<path class="st23" d="M1127.92,581.3l-5.47,12.25h67.37l21.19-58.37h-11.96C1168.32,535.17,1140.46,553.24,1127.92,581.3z"/>
		
			<linearGradient id="SVGID_17_" gradientUnits="userSpaceOnUse" x1="1756.5516" y1="522.2979" x2="1903.1984" y2="602.6635" gradientTransform="matrix(-1 0 0 1 3048.0486 0)">
			<stop  offset="0" style="stop-color:#60A7A0"/>
			<stop  offset="1" style="stop-color:#508789"/>
		</linearGradient>
		<path class="st24" d="M1122.45,593.55c0,0,23.36,48.87,67.37,0H1122.45z"/>
		<polygon class="st0" points="1211.01,535.17 1270.78,535.17 1254.48,593.55 1189.82,593.55 		"/>
		<path class="st20" d="M1189.82,593.55c0,0,23.91,44.8,64.66,0H1189.82z"/>
		
			<linearGradient id="SVGID_18_" gradientUnits="userSpaceOnUse" x1="1746.3019" y1="562.6879" x2="1955.9153" y2="627.312" gradientTransform="matrix(-1 0 0 1 3048.0486 0)">
			<stop  offset="0" style="stop-color:#60A7A0"/>
			<stop  offset="1" style="stop-color:#508789"/>
		</linearGradient>
		<polygon class="st25" points="1270.78,535.17 1254.48,593.55 1321.86,593.55 1321.86,535.17 		"/>
		
			<linearGradient id="SVGID_19_" gradientUnits="userSpaceOnUse" x1="1678.0315" y1="539.3647" x2="1779.9384" y2="608.9597" gradientTransform="matrix(-1 0 0 1 3048.0486 0)">
			<stop  offset="0" style="stop-color:#60A7A0"/>
			<stop  offset="1" style="stop-color:#508789"/>
		</linearGradient>
		<path class="st26" d="M1254.48,593.55c0,0,23.36,48.87,67.37,0H1254.48z"/>
	</g>
</g>
<g>
	<radialGradient id="SVGID_20_" cx="702.8585" cy="1313.5718" r="589.7815" gradientUnits="userSpaceOnUse">
		<stop  offset="0" style="stop-color:#E20882"/>
		<stop  offset="0.5464" style="stop-color:#FBAF4A"/>
		<stop  offset="1" style="stop-color:#FCF5A3"/>
	</radialGradient>
	<circle class="st27" cx="469.11" cy="1091.11" r="90.45"/>
	<g>
		<g>
			<g>
				<path class="st0" d="M469.11,1165.99c-41.29,0-74.88-33.59-74.88-74.88c0-41.29,33.59-74.88,74.88-74.88
					s74.88,33.59,74.88,74.88C543.99,1132.4,510.4,1165.99,469.11,1165.99z M469.11,1018.25c-40.18,0-72.86,32.68-72.86,72.86
					c0,40.18,32.68,72.86,72.86,72.86s72.86-32.69,72.86-72.86C541.97,1050.93,509.29,1018.25,469.11,1018.25z"/>
			</g>
		</g>
		<g>
			<g>
				<path class="st0" d="M454.54,1108.23c3.34,2.05,8.21,3.76,13.34,3.76c7.61,0,12.06-4.02,12.06-9.84
					c0-5.39-3.08-8.47-10.86-11.46c-9.41-3.34-15.22-8.21-15.22-16.34c0-8.98,7.44-15.65,18.65-15.65c5.9,0,10.18,1.37,12.74,2.82
					l-2.05,6.07c-1.88-1.03-5.73-2.74-10.95-2.74c-7.87,0-10.86,4.7-10.86,8.64c0,5.39,3.51,8.04,11.46,11.12
					c9.75,3.76,14.71,8.47,14.71,16.93c0,8.9-6.59,16.59-20.18,16.59c-5.56,0-11.63-1.62-14.71-3.68L454.54,1108.23z"/>
			</g>
			<rect x="468.18" y="1045.36" class="st0" width="3.84" height="15.89"/>
			<rect x="468.18" y="1115.9" class="st0" width="3.84" height="15.89"/>
		</g>
	</g>
</g>
<g>
	<radialGradient id="SVGID_21_" cx="2008.8816" cy="676.2621" r="304.3749" gradientUnits="userSpaceOnUse">
		<stop  offset="0" style="stop-color:#E20882"/>
		<stop  offset="0.5464" style="stop-color:#FBAF4A"/>
		<stop  offset="1" style="stop-color:#FCF5A3"/>
	</radialGradient>
	<circle class="st28" cx="1888.25" cy="561.45" r="46.68"/>
	<g>
		<g>
			<g>
				<path class="st0" d="M1888.25,600.1c-21.31,0-38.65-17.34-38.65-38.65s17.34-38.65,38.65-38.65c21.31,0,38.65,17.34,38.65,38.65
					S1909.56,600.1,1888.25,600.1z M1888.25,523.85c-20.73,0-37.6,16.87-37.6,37.6s16.87,37.6,37.6,37.6s37.6-16.87,37.6-37.6
					S1908.98,523.85,1888.25,523.85z"/>
			</g>
		</g>
		<g>
			<g>
				<path class="st0" d="M1880.73,570.29c1.72,1.06,4.24,1.94,6.89,1.94c3.93,0,6.22-2.07,6.22-5.08c0-2.78-1.59-4.37-5.61-5.91
					c-4.86-1.72-7.86-4.24-7.86-8.43c0-4.63,3.84-8.08,9.62-8.08c3.05,0,5.25,0.71,6.58,1.46l-1.06,3.13
					c-0.97-0.53-2.96-1.41-5.65-1.41c-4.06,0-5.61,2.43-5.61,4.46c0,2.78,1.81,4.15,5.91,5.74c5.03,1.94,7.59,4.37,7.59,8.74
					c0,4.59-3.4,8.56-10.42,8.56c-2.87,0-6-0.84-7.59-1.9L1880.73,570.29z"/>
			</g>
			<rect x="1887.77" y="537.84" class="st0" width="1.98" height="8.2"/>
			<rect x="1887.77" y="574.25" class="st0" width="1.98" height="8.2"/>
		</g>
	</g>
</g>
<g>
	<g>
		<g>
			<g>
				<path class="st16" d="M2112.94,1206.06c-34.24,0-62.1-27.86-62.1-62.1c0-34.24,27.86-62.1,62.1-62.1
					c34.24,0,62.1,27.86,62.1,62.1C2175.04,1178.2,2147.18,1206.06,2112.94,1206.06z M2112.94,1086.5
					c-31.68,0-57.46,25.78-57.46,57.46c0,31.68,25.78,57.46,57.46,57.46c31.68,0,57.46-25.78,57.46-57.46
					C2170.4,1112.28,2144.63,1086.5,2112.94,1086.5z"/>
			</g>
		</g>
		<g>
			<g>
				<path class="st16" d="M2112.94,1148.71c-2.62,0-4.75-2.13-4.75-4.75c0-2.62,2.13-4.75,4.75-4.75c2.62,0,4.75,2.13,4.75,4.75
					C2117.69,1146.58,2115.56,1148.71,2112.94,1148.71z M2112.94,1142.22c-0.96,0-1.75,0.78-1.75,1.75c0,0.96,0.78,1.75,1.75,1.75
					c0.96,0,1.75-0.78,1.75-1.75C2114.69,1143,2113.91,1142.22,2112.94,1142.22z"/>
			</g>
		</g>
	</g>
	<g>
		<g>
			<path class="st16" d="M2112.62,1146.77c-1.36,0-2.47-1.11-2.47-2.47v-32.49c0-1.36,1.11-2.47,2.47-2.47
				c1.36,0,2.47,1.11,2.47,2.47v32.49C2115.09,1145.66,2113.98,1146.77,2112.62,1146.77z"/>
		</g>
	</g>
	<g>
		<g>
			<path class="st16" d="M2137.96,1146.77h-25.34c-1.36,0-2.47-1.11-2.47-2.47c0-1.36,1.11-2.47,2.47-2.47h25.34
				c1.36,0,2.47,1.11,2.47,2.47C2140.43,1145.66,2139.32,1146.77,2137.96,1146.77z"/>
		</g>
	</g>
</g>
<path class="st0" d="M1737.23,747.8c0-30.23-24.5-54.73-54.73-54.73c-11.8,0-22.72,3.75-31.66,10.1
	c-9.07-33.45-39.63-58.06-75.95-58.06c-43.47,0-78.71,35.24-78.71,78.71c0,0.83,0.04,1.64,0.06,2.46c-0.02,0-0.04,0-0.06,0
	c-21.06,0-38.13,17.07-38.13,38.13c0,21.06,17.07,38.13,38.13,38.13h186.94v-0.02C1713.06,802.18,1737.23,777.82,1737.23,747.8z"/>
<path class="st29" d="M1727.07,812.08c0-12.04-9.76-21.8-21.8-21.8c-4.7,0-9.05,1.49-12.61,4.02
	c-3.61-13.33-15.79-23.13-30.26-23.13c-17.32,0-31.36,14.04-31.36,31.36c0,0.33,0.01,0.65,0.02,0.98c-0.01,0-0.02,0-0.02,0
	c-8.39,0-15.19,6.8-15.19,15.19c0,8.39,6.8,15.19,15.19,15.19h74.47v-0.01C1717.44,833.74,1727.07,824.04,1727.07,812.08z"/>
<path class="st30" d="M1178.94,1077.94c0-13.42-10.88-24.31-24.31-24.31c-5.24,0-10.09,1.66-14.06,4.49
	c-4.03-14.86-17.6-25.79-33.74-25.79c-19.31,0-34.96,15.65-34.96,34.96c0,0.37,0.02,0.73,0.03,1.09c-0.01,0-0.02,0-0.03,0
	c-9.35,0-16.93,7.58-16.93,16.93c0,9.35,7.58,16.93,16.93,16.93h83.03v-0.01C1168.2,1102.09,1178.94,1091.27,1178.94,1077.94z"/>
<g>
	<g>
		
			<linearGradient id="SVGID_22_" gradientUnits="userSpaceOnUse" x1="-5976.6914" y1="1266.8969" x2="-5904.2339" y2="1266.8969" gradientTransform="matrix(0.9999 0.0141 -0.0141 0.9999 6794.0801 -550.4326)">
			<stop  offset="1.300000e-07" style="stop-color:#D76927"/>
			<stop  offset="0.9995" style="stop-color:#C42827"/>
		</linearGradient>
		<path class="st31" d="M800.01,639.82l52.84-21.63c1.95-0.8,4.04-1.2,6.15-1.17l9.76,0.14c3.3,0.05,5.15,3.84,3.14,6.46
			l-19.15,25.07L800.01,639.82z"/>
		<path class="st32" d="M856.64,657.97c-0.04,2.59-0.57,5.06-1.51,7.37l-430.89-6.09c1.08-4.29,10.06-9.51,20.72-15.03
			c7.29-3.76,15.34-7.68,22.21-11.55c0.38-0.21,0.79-0.42,1.23-0.64c25.31-12.08,153.01-12.06,365.72,11.43
			C846.55,644.83,856.8,646.66,856.64,657.97z"/>
		
			<radialGradient id="SVGID_23_" cx="-6362.5386" cy="1224.194" r="216.1144" gradientTransform="matrix(0.9999 0.0141 -0.0141 0.9999 6794.0801 -550.4326)" gradientUnits="userSpaceOnUse">
			<stop  offset="0" style="stop-color:#E20882"/>
			<stop  offset="0.5464" style="stop-color:#FBAF4A"/>
			<stop  offset="1" style="stop-color:#FCF5A3"/>
		</radialGradient>
		<path class="st33" d="M488.13,634.9c-0.04,2.74-1.3,5.21-3.33,6.98c-2.01,1.77-4.78,2.84-7.82,2.8l-32.02-0.45
			c7.29-3.76,15.34-7.68,22.21-11.55c0.38-0.21,0.79-0.42,1.23-0.64l16.9,0.24C486.88,632.29,488.15,633.47,488.13,634.9z"/>
		
			<linearGradient id="SVGID_24_" gradientUnits="userSpaceOnUse" x1="-6352.252" y1="1301.3621" x2="-5921.2207" y2="1301.3621" gradientTransform="matrix(0.9999 0.0141 -0.0141 0.9999 6794.0801 -550.4326)">
			<stop  offset="1.300000e-07" style="stop-color:#D76927"/>
			<stop  offset="0.9995" style="stop-color:#C42827"/>
		</linearGradient>
		<path class="st34" d="M855.13,665.34c-0.57,1.38-1.28,2.69-2.13,3.92l-426.98-6.03c-1.63-1.2-2.14-2.54-1.78-3.98L855.13,665.34z"
			/>
		
			<linearGradient id="SVGID_25_" gradientUnits="userSpaceOnUse" x1="-6350.3203" y1="1312.5884" x2="-5923.2949" y2="1312.5884" gradientTransform="matrix(0.9999 0.0141 -0.0141 0.9999 6794.0801 -550.4326)">
			<stop  offset="0" style="stop-color:#60A7A0"/>
			<stop  offset="1" style="stop-color:#508789"/>
		</linearGradient>
		<path class="st35" d="M853,669.26c-4.03,5.92-11.1,9.97-19.3,10.42c-73.84,4-308.16,14-402.03-13.91
			c-2.58-0.77-4.42-1.61-5.65-2.54L853,669.26z"/>
		<g>
			<g>
				
					<radialGradient id="SVGID_26_" cx="-6349.3682" cy="1184.6708" r="608.4608" gradientTransform="matrix(0.9999 0.0141 -0.0141 0.9999 6794.0801 -550.4326)" gradientUnits="userSpaceOnUse">
					<stop  offset="0" style="stop-color:#E20882"/>
					<stop  offset="0.5464" style="stop-color:#FBAF4A"/>
					<stop  offset="1" style="stop-color:#FCF5A3"/>
				</radialGradient>
				<path class="st36" d="M554.68,648.76l-1.19-0.02c-1.4-0.02-2.54-1.18-2.52-2.59l0.12-8.55c0.02-1.4,1.18-2.54,2.59-2.52
					l1.19,0.02c1.4,0.02,2.54,1.18,2.52,2.59l-0.12,8.55C557.25,647.64,556.08,648.78,554.68,648.76z"/>
				
					<radialGradient id="SVGID_27_" cx="-6349.3667" cy="1184.6705" r="608.4569" gradientTransform="matrix(0.9999 0.0141 -0.0141 0.9999 6794.0801 -550.4326)" gradientUnits="userSpaceOnUse">
					<stop  offset="0" style="stop-color:#E20882"/>
					<stop  offset="0.5464" style="stop-color:#FBAF4A"/>
					<stop  offset="1" style="stop-color:#FCF5A3"/>
				</radialGradient>
				<path class="st37" d="M566.89,648.93l-1.19-0.02c-1.4-0.02-2.54-1.18-2.52-2.59l0.12-8.55c0.02-1.4,1.18-2.54,2.59-2.52
					l1.19,0.02c1.4,0.02,2.54,1.18,2.52,2.59l-0.12,8.55C569.46,647.82,568.3,648.95,566.89,648.93z"/>
				
					<radialGradient id="SVGID_28_" cx="-6349.3667" cy="1184.6707" r="608.4557" gradientTransform="matrix(0.9999 0.0141 -0.0141 0.9999 6794.0801 -550.4326)" gradientUnits="userSpaceOnUse">
					<stop  offset="0" style="stop-color:#E20882"/>
					<stop  offset="0.5464" style="stop-color:#FBAF4A"/>
					<stop  offset="1" style="stop-color:#FCF5A3"/>
				</radialGradient>
				<path class="st38" d="M579.11,649.1l-1.19-0.02c-1.4-0.02-2.54-1.18-2.52-2.59l0.12-8.55c0.02-1.4,1.18-2.54,2.59-2.52
					l1.19,0.02c1.4,0.02,2.54,1.18,2.52,2.59l-0.12,8.55C581.68,647.99,580.52,649.12,579.11,649.1z"/>
				
					<radialGradient id="SVGID_29_" cx="-6349.3691" cy="1184.6716" r="608.4615" gradientTransform="matrix(0.9999 0.0141 -0.0141 0.9999 6794.0801 -550.4326)" gradientUnits="userSpaceOnUse">
					<stop  offset="0" style="stop-color:#E20882"/>
					<stop  offset="0.5464" style="stop-color:#FBAF4A"/>
					<stop  offset="1" style="stop-color:#FCF5A3"/>
				</radialGradient>
				<path class="st39" d="M591.33,649.27l-1.19-0.02c-1.4-0.02-2.54-1.18-2.52-2.59l0.12-8.55c0.02-1.4,1.18-2.54,2.59-2.52
					l1.19,0.02c1.4,0.02,2.54,1.18,2.52,2.59l-0.12,8.55C593.9,648.16,592.73,649.29,591.33,649.27z"/>
			</g>
			<g>
				
					<radialGradient id="SVGID_30_" cx="-6349.3662" cy="1184.6696" r="608.4533" gradientTransform="matrix(0.9999 0.0141 -0.0141 0.9999 6794.0801 -550.4326)" gradientUnits="userSpaceOnUse">
					<stop  offset="0" style="stop-color:#E20882"/>
					<stop  offset="0.5464" style="stop-color:#FBAF4A"/>
					<stop  offset="1" style="stop-color:#FCF5A3"/>
				</radialGradient>
				<path class="st40" d="M505.99,648.07l-1.19-0.02c-1.4-0.02-2.54-1.18-2.52-2.59l0.12-8.55c0.02-1.4,1.18-2.54,2.59-2.52
					l1.19,0.02c1.4,0.02,2.54,1.18,2.52,2.59l-0.12,8.55C508.56,646.96,507.39,648.09,505.99,648.07z"/>
				
					<radialGradient id="SVGID_31_" cx="-6349.3657" cy="1184.6699" r="608.452" gradientTransform="matrix(0.9999 0.0141 -0.0141 0.9999 6794.0801 -550.4326)" gradientUnits="userSpaceOnUse">
					<stop  offset="0" style="stop-color:#E20882"/>
					<stop  offset="0.5464" style="stop-color:#FBAF4A"/>
					<stop  offset="1" style="stop-color:#FCF5A3"/>
				</radialGradient>
				<path class="st41" d="M518.21,648.24l-1.19-0.02c-1.4-0.02-2.54-1.18-2.52-2.59l0.12-8.55c0.02-1.4,1.18-2.54,2.59-2.52
					l1.19,0.02c1.4,0.02,2.54,1.18,2.52,2.59l-0.12,8.55C520.78,647.13,519.61,648.26,518.21,648.24z"/>
				
					<radialGradient id="SVGID_32_" cx="-6349.3657" cy="1184.6697" r="608.4543" gradientTransform="matrix(0.9999 0.0141 -0.0141 0.9999 6794.0801 -550.4326)" gradientUnits="userSpaceOnUse">
					<stop  offset="0" style="stop-color:#E20882"/>
					<stop  offset="0.5464" style="stop-color:#FBAF4A"/>
					<stop  offset="1" style="stop-color:#FCF5A3"/>
				</radialGradient>
				<path class="st42" d="M530.42,648.41l-1.19-0.02c-1.4-0.02-2.54-1.18-2.52-2.59l0.12-8.55c0.02-1.4,1.18-2.54,2.59-2.52
					l1.19,0.02c1.4,0.02,2.54,1.18,2.52,2.59l-0.12,8.55C532.99,647.3,531.83,648.43,530.42,648.41z"/>
				
					<radialGradient id="SVGID_33_" cx="-6349.3677" cy="1184.6704" r="608.4583" gradientTransform="matrix(0.9999 0.0141 -0.0141 0.9999 6794.0801 -550.4326)" gradientUnits="userSpaceOnUse">
					<stop  offset="0" style="stop-color:#E20882"/>
					<stop  offset="0.5464" style="stop-color:#FBAF4A"/>
					<stop  offset="1" style="stop-color:#FCF5A3"/>
				</radialGradient>
				<path class="st43" d="M542.64,648.59l-1.19-0.02c-1.4-0.02-2.54-1.18-2.52-2.59l0.12-8.55c0.02-1.4,1.18-2.54,2.59-2.52
					l1.19,0.02c1.4,0.02,2.54,1.18,2.52,2.59l-0.12,8.55C545.21,647.47,544.05,648.61,542.64,648.59z"/>
			</g>
			<g>
				
					<radialGradient id="SVGID_34_" cx="-6349.3726" cy="1184.6725" r="608.4664" gradientTransform="matrix(0.9999 0.0141 -0.0141 0.9999 6794.0801 -550.4326)" gradientUnits="userSpaceOnUse">
					<stop  offset="0" style="stop-color:#E20882"/>
					<stop  offset="0.5464" style="stop-color:#FBAF4A"/>
					<stop  offset="1" style="stop-color:#FCF5A3"/>
				</radialGradient>
				<path class="st44" d="M653.71,650.16l-1.19-0.02c-1.4-0.02-2.54-1.18-2.52-2.59l0.12-8.55c0.02-1.4,1.18-2.54,2.59-2.52
					l1.19,0.02c1.4,0.02,2.54,1.18,2.52,2.59l-0.12,8.55C656.27,649.04,655.11,650.18,653.71,650.16z"/>
				
					<radialGradient id="SVGID_35_" cx="-6349.3682" cy="1184.6733" r="608.4561" gradientTransform="matrix(0.9999 0.0141 -0.0141 0.9999 6794.0801 -550.4326)" gradientUnits="userSpaceOnUse">
					<stop  offset="0" style="stop-color:#E20882"/>
					<stop  offset="0.5464" style="stop-color:#FBAF4A"/>
					<stop  offset="1" style="stop-color:#FCF5A3"/>
				</radialGradient>
				<path class="st45" d="M665.92,650.33l-1.19-0.02c-1.4-0.02-2.54-1.18-2.52-2.59l0.12-8.55c0.02-1.4,1.18-2.54,2.59-2.52
					l1.19,0.02c1.4,0.02,2.54,1.18,2.52,2.59l-0.12,8.55C668.49,649.22,667.33,650.35,665.92,650.33z"/>
				
					<radialGradient id="SVGID_36_" cx="-6349.373" cy="1184.673" r="608.4656" gradientTransform="matrix(0.9999 0.0141 -0.0141 0.9999 6794.0801 -550.4326)" gradientUnits="userSpaceOnUse">
					<stop  offset="0" style="stop-color:#E20882"/>
					<stop  offset="0.5464" style="stop-color:#FBAF4A"/>
					<stop  offset="1" style="stop-color:#FCF5A3"/>
				</radialGradient>
				<path class="st46" d="M678.14,650.5l-1.19-0.02c-1.4-0.02-2.54-1.18-2.52-2.59l0.12-8.55c0.02-1.4,1.18-2.54,2.59-2.52
					l1.19,0.02c1.4,0.02,2.54,1.18,2.52,2.59l-0.12,8.55C680.71,649.39,679.54,650.52,678.14,650.5z"/>
				
					<radialGradient id="SVGID_37_" cx="-6349.3691" cy="1184.6732" r="608.4569" gradientTransform="matrix(0.9999 0.0141 -0.0141 0.9999 6794.0801 -550.4326)" gradientUnits="userSpaceOnUse">
					<stop  offset="0" style="stop-color:#E20882"/>
					<stop  offset="0.5464" style="stop-color:#FBAF4A"/>
					<stop  offset="1" style="stop-color:#FCF5A3"/>
				</radialGradient>
				<path class="st47" d="M690.36,650.67l-1.19-0.02c-1.4-0.02-2.54-1.18-2.52-2.59l0.12-8.55c0.02-1.4,1.18-2.54,2.59-2.52
					l1.19,0.02c1.4,0.02,2.54,1.18,2.52,2.59l-0.12,8.55C692.93,649.56,691.76,650.69,690.36,650.67z"/>
			</g>
			<g>
				
					<radialGradient id="SVGID_38_" cx="-6349.3701" cy="1184.6714" r="608.4637" gradientTransform="matrix(0.9999 0.0141 -0.0141 0.9999 6794.0801 -550.4326)" gradientUnits="userSpaceOnUse">
					<stop  offset="0" style="stop-color:#E20882"/>
					<stop  offset="0.5464" style="stop-color:#FBAF4A"/>
					<stop  offset="1" style="stop-color:#FCF5A3"/>
				</radialGradient>
				<path class="st48" d="M605.02,649.47l-1.19-0.02c-1.4-0.02-2.54-1.18-2.52-2.59l0.12-8.55c0.02-1.4,1.18-2.54,2.59-2.52
					l1.19,0.02c1.4,0.02,2.54,1.18,2.52,2.59l-0.12,8.55C607.59,648.35,606.42,649.49,605.02,649.47z"/>
				
					<radialGradient id="SVGID_39_" cx="-6349.3672" cy="1184.6721" r="608.4558" gradientTransform="matrix(0.9999 0.0141 -0.0141 0.9999 6794.0801 -550.4326)" gradientUnits="userSpaceOnUse">
					<stop  offset="0" style="stop-color:#E20882"/>
					<stop  offset="0.5464" style="stop-color:#FBAF4A"/>
					<stop  offset="1" style="stop-color:#FCF5A3"/>
				</radialGradient>
				<path class="st49" d="M617.24,649.64l-1.19-0.02c-1.4-0.02-2.54-1.18-2.52-2.59l0.12-8.55c0.02-1.4,1.18-2.54,2.59-2.52
					l1.19,0.02c1.4,0.02,2.54,1.18,2.52,2.59l-0.12,8.55C619.81,648.53,618.64,649.66,617.24,649.64z"/>
				
					<radialGradient id="SVGID_40_" cx="-6349.3711" cy="1184.6725" r="608.4634" gradientTransform="matrix(0.9999 0.0141 -0.0141 0.9999 6794.0801 -550.4326)" gradientUnits="userSpaceOnUse">
					<stop  offset="0" style="stop-color:#E20882"/>
					<stop  offset="0.5464" style="stop-color:#FBAF4A"/>
					<stop  offset="1" style="stop-color:#FCF5A3"/>
				</radialGradient>
				<path class="st50" d="M629.45,649.81l-1.19-0.02c-1.4-0.02-2.54-1.18-2.52-2.59l0.12-8.55c0.02-1.4,1.18-2.54,2.59-2.52
					l1.19,0.02c1.4,0.02,2.54,1.18,2.52,2.59l-0.12,8.55C632.02,648.7,630.86,649.83,629.45,649.81z"/>
				
					<radialGradient id="SVGID_41_" cx="-6349.3682" cy="1184.6722" r="608.4559" gradientTransform="matrix(0.9999 0.0141 -0.0141 0.9999 6794.0801 -550.4326)" gradientUnits="userSpaceOnUse">
					<stop  offset="0" style="stop-color:#E20882"/>
					<stop  offset="0.5464" style="stop-color:#FBAF4A"/>
					<stop  offset="1" style="stop-color:#FCF5A3"/>
				</radialGradient>
				<path class="st51" d="M641.67,649.99l-1.19-0.02c-1.4-0.02-2.54-1.18-2.52-2.59l0.12-8.55c0.02-1.4,1.18-2.54,2.59-2.52
					l1.19,0.02c1.4,0.02,2.54,1.18,2.52,2.59l-0.12,8.55C644.24,648.87,643.07,650.01,641.67,649.99z"/>
			</g>
		</g>
		<g>
			<g>
				
					<linearGradient id="SVGID_42_" gradientUnits="userSpaceOnUse" x1="-6257.3516" y1="1283.9148" x2="-6001.2349" y2="1283.9148" gradientTransform="matrix(0.9999 0.0141 -0.0141 0.9999 6794.0801 -550.4326)">
					<stop  offset="0" style="stop-color:#60A7A0"/>
					<stop  offset="1" style="stop-color:#508789"/>
				</linearGradient>
				<polygon class="st52" points="775.56,633.18 691.78,663.12 519.03,660.68 734.66,632.6 				"/>
				
					<linearGradient id="SVGID_43_" gradientUnits="userSpaceOnUse" x1="-6042.1431" y1="1251.0161" x2="-5989.5117" y2="1251.0161" gradientTransform="matrix(0.9999 0.0141 -0.0141 0.9999 6794.0801 -550.4326)">
					<stop  offset="0" style="stop-color:#60A7A0"/>
					<stop  offset="1" style="stop-color:#508789"/>
				</linearGradient>
				<path class="st53" d="M787.5,602.88l-11.94,30.3l-40.9-0.58l48.2-33.41c0.56-0.39,1.16-0.57,1.73-0.57
					C786.61,598.6,788.37,600.66,787.5,602.88z"/>
			</g>
			
				<linearGradient id="SVGID_44_" gradientUnits="userSpaceOnUse" x1="-6257.3516" y1="1266.5747" x2="-5992.6958" y2="1266.5747" gradientTransform="matrix(0.9999 0.0141 -0.0141 0.9999 6794.0801 -550.4326)">
				<stop  offset="1.300000e-07" style="stop-color:#D76927"/>
				<stop  offset="0.9995" style="stop-color:#C42827"/>
			</linearGradient>
			<path class="st54" d="M784.59,598.62l-38.26,34.14l-3.43,3.06l-200.64,25.18l-23.23-0.33l215.63-28.08l48.2-33.41
				C783.42,598.81,784.01,598.63,784.59,598.62z"/>
			<g>
				<g>
					<linearGradient id="SVGID_45_" gradientUnits="userSpaceOnUse" x1="665.6634" y1="678.4002" x2="679.6074" y2="678.4002">
						<stop  offset="1.300000e-07" style="stop-color:#D76927"/>
						<stop  offset="0.9995" style="stop-color:#C42827"/>
					</linearGradient>
					<path class="st55" d="M665.66,678.3c0.05-3.85,3.22-6.93,7.07-6.87c3.85,0.05,6.93,3.22,6.87,7.07
						c-0.05,3.85-3.22,6.93-7.07,6.87C668.69,685.32,665.61,682.15,665.66,678.3z"/>
					<linearGradient id="SVGID_46_" gradientUnits="userSpaceOnUse" x1="591.3366" y1="677.5008" x2="626.5847" y2="677.5008">
						<stop  offset="1.300000e-07" style="stop-color:#D76927"/>
						<stop  offset="0.9995" style="stop-color:#C42827"/>
					</linearGradient>
					<circle class="st56" cx="608.96" cy="677.5" r="17.62"/>
					<linearGradient id="SVGID_47_" gradientUnits="userSpaceOnUse" x1="645.4493" y1="662.9376" x2="642.4346" y2="697.3052">
						<stop  offset="0" style="stop-color:#60A7A0"/>
						<stop  offset="1" style="stop-color:#508789"/>
					</linearGradient>
					<path class="st57" d="M668.12,693.32l-54.42,5.66l0.6-42.82l54.09,6.01c4.02,0.45,7.05,3.87,6.99,7.92l-0.22,15.53
						C675.11,689.6,672.09,692.91,668.12,693.32z"/>
					
						<rect x="611.05" y="656.14" transform="matrix(0.9999 0.0141 -0.0141 0.9999 9.6273 -8.5807)" class="st0" width="2.96" height="42.82"/>
					
						<linearGradient id="SVGID_48_" gradientUnits="userSpaceOnUse" x1="-6178.1621" y1="1315.0223" x2="-6165.104" y2="1315.0223" gradientTransform="matrix(0.9999 0.0141 -0.0141 0.9999 6794.0801 -550.4326)">
						<stop  offset="0" style="stop-color:#60A7A0"/>
						<stop  offset="1" style="stop-color:#508789"/>
					</linearGradient>
					<path class="st58" d="M601.71,698.81l9.04,0.13l0.6-42.82l-9.04-0.13c-2.22-0.03-4.05,1.74-4.08,3.96l-0.49,34.78
						C597.72,696.95,599.49,698.78,601.71,698.81z"/>
				</g>
				
					<rect x="598.01" y="672.95" transform="matrix(0.9999 0.0141 -0.0141 0.9999 9.6205 -8.9233)" class="st59" width="77.28" height="7.59"/>
			</g>
		</g>
		
			<linearGradient id="SVGID_49_" gradientUnits="userSpaceOnUse" x1="-5971.7842" y1="1292.0048" x2="-5904.9829" y2="1292.0048" gradientTransform="matrix(0.9999 0.0141 -0.0141 0.9999 6794.0801 -550.4326)">
			<stop  offset="0" style="stop-color:#60A7A0"/>
			<stop  offset="1" style="stop-color:#508789"/>
		</linearGradient>
		<path class="st60" d="M806.28,668.05l45.34,0.64c0.38,0.01,0.75-0.11,1.05-0.33l16.82-12.12c3.85-2.77,1.93-8.85-2.81-8.92l0,0
			c-0.17,0-0.34,0.02-0.51,0.07l-60.36,17.22C803.88,665.16,804.26,668.03,806.28,668.05z"/>
	</g>
	<linearGradient id="SVGID_50_" gradientUnits="userSpaceOnUse" x1="899.4695" y1="652.8261" x2="974.5439" y2="652.8261">
		<stop  offset="0" style="stop-color:#60A7A0"/>
		<stop  offset="1" style="stop-color:#508789"/>
	</linearGradient>
	<path class="st61" d="M973.44,654.67l-72.91-1.03c-0.59-0.01-1.07-0.5-1.06-1.1l0.01-0.5c0.01-0.59,0.5-1.07,1.1-1.06l72.91,1.03
		c0.59,0.01,1.07,0.5,1.06,1.1l-0.01,0.5C974.53,654.2,974.04,654.68,973.44,654.67z"/>
	<linearGradient id="SVGID_51_" gradientUnits="userSpaceOnUse" x1="872.0544" y1="670.4739" x2="1005.5974" y2="670.4739">
		<stop  offset="0" style="stop-color:#60A7A0"/>
		<stop  offset="1" style="stop-color:#508789"/>
	</linearGradient>
	<path class="st62" d="M1004.3,672.97l-130.99-1.85c-0.7-0.01-1.26-0.59-1.25-1.29l0.01-0.59c0.01-0.7,0.59-1.26,1.29-1.25
		l130.99,1.85c0.7,0.01,1.26,0.59,1.25,1.29l-0.01,0.59C1005.58,672.41,1005,672.98,1004.3,672.97z"/>
	<linearGradient id="SVGID_52_" gradientUnits="userSpaceOnUse" x1="830.5537" y1="676.161" x2="897.3265" y2="676.161">
		<stop  offset="0" style="stop-color:#60A7A0"/>
		<stop  offset="1" style="stop-color:#508789"/>
	</linearGradient>
	<path class="st63" d="M896.45,677.67l-65.06-0.92c-0.47-0.01-0.85-0.4-0.84-0.87l0.01-0.4c0.01-0.47,0.4-0.85,0.87-0.84l65.06,0.92
		c0.47,0.01,0.85,0.4,0.84,0.87l-0.01,0.4C897.31,677.3,896.92,677.68,896.45,677.67z"/>
	<linearGradient id="SVGID_53_" gradientUnits="userSpaceOnUse" x1="985.4016" y1="653.5748" x2="994.6276" y2="653.5748">
		<stop  offset="0" style="stop-color:#60A7A0"/>
		<stop  offset="1" style="stop-color:#508789"/>
	</linearGradient>
	<path class="st64" d="M993.53,654.96l-7.06-0.1c-0.59-0.01-1.07-0.5-1.06-1.1l0.01-0.5c0.01-0.59,0.5-1.07,1.1-1.06l7.06,0.1
		c0.59,0.01,1.07,0.5,1.06,1.1l-0.01,0.5C994.61,654.48,994.12,654.96,993.53,654.96z"/>
</g>
<linearGradient id="SVGID_54_" gradientUnits="userSpaceOnUse" x1="800.7134" y1="1505.3074" x2="942.4482" y2="1659.548">
	<stop  offset="0" style="stop-color:#60A7A0"/>
	<stop  offset="1" style="stop-color:#508789"/>
</linearGradient>
<path class="st65" d="M792.25,1559.17h96.12c0,0,6.76-13.11-4.82-16.73c-11.59-3.62-10.49-23.34-18.72-30.94
	c-8.23-7.6-23.23-10.28-34.77,0.52c-11.54,10.8-11.64,26.01-27.53,22.65C786.64,1531.33,779.67,1550.21,792.25,1559.17z"/>
<g>
	<g>
		<g>
			<g>
				
					<radialGradient id="SVGID_55_" cx="2733.615" cy="1291.0697" r="312.2372" gradientTransform="matrix(-1 0 0 1 4483.9497 0)" gradientUnits="userSpaceOnUse">
					<stop  offset="0" style="stop-color:#E20882"/>
					<stop  offset="0.5464" style="stop-color:#FBAF4A"/>
					<stop  offset="1" style="stop-color:#FCF5A3"/>
				</radialGradient>
				<rect x="1681.01" y="1237.6" class="st66" width="189.01" height="72.91"/>
				
					<radialGradient id="SVGID_56_" cx="2644.054" cy="1330.4088" r="192.4888" gradientTransform="matrix(-1 0 0 1 4483.9497 0)" gradientUnits="userSpaceOnUse">
					<stop  offset="0" style="stop-color:#E20882"/>
					<stop  offset="0.5464" style="stop-color:#FBAF4A"/>
					<stop  offset="1" style="stop-color:#FCF5A3"/>
				</radialGradient>
				<rect x="1870.02" y="1237.6" class="st67" width="56.7" height="72.91"/>
				<g>
					<rect x="1685.06" y="1241.65" class="st68" width="2.7" height="64.8"/>
					<rect x="1690.46" y="1241.65" class="st68" width="2.7" height="64.8"/>
					<rect x="1695.86" y="1241.65" class="st68" width="2.7" height="64.8"/>
					<rect x="1701.26" y="1241.65" class="st68" width="2.7" height="64.8"/>
					<rect x="1706.66" y="1241.65" class="st68" width="2.7" height="64.8"/>
					<rect x="1712.06" y="1241.65" class="st68" width="2.7" height="64.8"/>
					<rect x="1717.46" y="1241.65" class="st68" width="2.7" height="64.8"/>
					<rect x="1722.86" y="1241.65" class="st68" width="2.7" height="64.8"/>
					<rect x="1728.26" y="1241.65" class="st68" width="2.7" height="64.8"/>
					<rect x="1733.66" y="1241.65" class="st68" width="2.7" height="64.8"/>
					<rect x="1739.06" y="1241.65" class="st68" width="2.7" height="64.8"/>
					<rect x="1744.46" y="1241.65" class="st68" width="2.7" height="64.8"/>
					<rect x="1749.86" y="1241.65" class="st68" width="2.7" height="64.8"/>
					<rect x="1755.26" y="1241.65" class="st68" width="2.7" height="64.8"/>
					<rect x="1760.66" y="1241.65" class="st68" width="2.7" height="64.8"/>
					<rect x="1766.06" y="1241.65" class="st68" width="2.7" height="64.8"/>
					<rect x="1771.47" y="1241.65" class="st68" width="2.7" height="64.8"/>
					<rect x="1776.87" y="1241.65" class="st68" width="2.7" height="64.8"/>
					<rect x="1782.27" y="1241.65" class="st68" width="2.7" height="64.8"/>
					<rect x="1787.67" y="1241.65" class="st68" width="2.7" height="64.8"/>
					<rect x="1793.07" y="1241.65" class="st68" width="2.7" height="64.8"/>
					<rect x="1798.47" y="1241.65" class="st68" width="2.7" height="64.8"/>
					<rect x="1803.87" y="1241.65" class="st68" width="2.7" height="64.8"/>
					<rect x="1809.27" y="1241.65" class="st68" width="2.7" height="64.8"/>
					<rect x="1814.67" y="1241.65" class="st68" width="2.7" height="64.8"/>
					<rect x="1820.07" y="1241.65" class="st68" width="2.7" height="64.8"/>
					<rect x="1825.47" y="1241.65" class="st68" width="2.7" height="64.8"/>
					<rect x="1830.87" y="1241.65" class="st68" width="2.7" height="64.8"/>
					<rect x="1836.27" y="1241.65" class="st68" width="2.7" height="64.8"/>
					<rect x="1841.67" y="1241.65" class="st68" width="2.7" height="64.8"/>
					<rect x="1847.07" y="1241.65" class="st68" width="2.7" height="64.8"/>
					<rect x="1852.47" y="1241.65" class="st68" width="2.7" height="64.8"/>
					<rect x="1857.87" y="1241.65" class="st68" width="2.7" height="64.8"/>
					<rect x="1863.27" y="1241.65" class="st68" width="2.7" height="64.8"/>
				</g>
				<g class="st69">
					<rect x="1875.42" y="1241.65" class="st68" width="2.7" height="64.8"/>
					<rect x="1880.82" y="1241.65" class="st68" width="2.7" height="64.8"/>
					<rect x="1886.22" y="1241.65" class="st68" width="2.7" height="64.8"/>
					<rect x="1891.62" y="1241.65" class="st68" width="2.7" height="64.8"/>
					<rect x="1901.07" y="1241.65" class="st68" width="2.7" height="64.8"/>
					<rect x="1906.48" y="1241.65" class="st68" width="2.7" height="64.8"/>
					<rect x="1911.88" y="1241.65" class="st68" width="2.7" height="64.8"/>
					<rect x="1917.28" y="1241.65" class="st68" width="2.7" height="64.8"/>
				</g>
				<polygon class="st70" points="1685.06,1241.65 1865.97,1241.65 1865.97,1306.45 1685.06,1306.45 1685.06,1302.63 
					1863.05,1302.63 1863.05,1244.35 1685.06,1244.35 				"/>
				<rect x="1737.71" y="1309.15" class="st71" width="9.45" height="1.35"/>
				<rect x="1801.17" y="1309.15" class="st71" width="9.45" height="1.35"/>
				<polyline class="st72" points="1865.97,1237.6 1874.07,1237.6 1874.07,1238.95 1871.37,1238.95 1871.37,1241.65 
					1868.67,1241.65 1868.67,1238.95 1865.97,1238.95 1865.97,1237.6 				"/>
				<polygon class="st72" points="1926.73,1237.6 1926.73,1241.65 1925.38,1241.65 1925.38,1238.95 1922.68,1238.95 1922.68,1237.6 
									"/>
				<polygon class="st72" points="1681.01,1237.6 1681.01,1241.65 1682.36,1241.65 1682.36,1238.95 1685.06,1238.95 1685.06,1237.6 
									"/>
				<polygon class="st72" points="1681.01,1310.5 1681.01,1306.45 1682.36,1306.45 1682.36,1309.15 1685.06,1309.15 1685.06,1310.5 
									"/>
				<polygon class="st72" points="1926.73,1306.45 1926.73,1310.5 1922.68,1310.5 1922.68,1309.15 1925.38,1309.15 1925.38,1306.45 
									"/>
				<polyline class="st72" points="1874.07,1310.5 1865.97,1310.5 1865.97,1309.15 1868.67,1309.15 1868.67,1306.45 
					1871.37,1306.45 1871.37,1309.15 1874.07,1309.15 1874.07,1310.5 				"/>
			</g>
			<rect x="1897.02" y="1237.6" class="st72" width="1.35" height="72.91"/>
			<g>
				<g>
					<rect x="1891.62" y="1237.6" class="st73" width="1.35" height="72.91"/>
					<rect x="1892.3" y="1237.6" class="st74" width="0.68" height="72.91"/>
				</g>
				<rect x="1890.27" y="1237.6" class="st72" width="1.35" height="72.91"/>
			</g>
			<g>
				<g>
					<rect x="1903.78" y="1237.6" class="st73" width="1.35" height="72.91"/>
					<rect x="1904.45" y="1237.6" class="st74" width="0.68" height="72.91"/>
				</g>
				<rect x="1902.43" y="1237.6" class="st72" width="1.35" height="72.91"/>
			</g>
			<g>
				<g>
					<rect x="1907.83" y="1237.6" class="st73" width="1.35" height="72.91"/>
					<rect x="1908.5" y="1237.6" class="st74" width="0.68" height="72.91"/>
				</g>
				<rect x="1906.48" y="1237.6" class="st72" width="1.35" height="72.91"/>
			</g>
			<g>
				<g>
					<rect x="1887.57" y="1237.6" class="st73" width="1.35" height="72.91"/>
					<rect x="1888.25" y="1237.6" class="st74" width="0.68" height="72.91"/>
				</g>
				<rect x="1886.22" y="1237.6" class="st72" width="1.35" height="72.91"/>
			</g>
		</g>
		<rect x="1681.01" y="1310.5" class="st70" width="245.72" height="1.35"/>
	</g>
	<g>
		<g>
			<g>
				
					<radialGradient id="SVGID_57_" cx="2635.7285" cy="1364.1427" r="313.0928" gradientTransform="matrix(-1 0 0 1 4483.9497 0)" gradientUnits="userSpaceOnUse">
					<stop  offset="0" style="stop-color:#E20882"/>
					<stop  offset="0.5464" style="stop-color:#FBAF4A"/>
					<stop  offset="1" style="stop-color:#FCF5A3"/>
				</radialGradient>
				<rect x="1778.7" y="1310.52" class="st75" width="189.53" height="73.11"/>
				
					<radialGradient id="SVGID_58_" cx="2545.9221" cy="1403.5896" r="193.0163" gradientTransform="matrix(-1 0 0 1 4483.9497 0)" gradientUnits="userSpaceOnUse">
					<stop  offset="0" style="stop-color:#E20882"/>
					<stop  offset="0.5464" style="stop-color:#FBAF4A"/>
					<stop  offset="1" style="stop-color:#FCF5A3"/>
				</radialGradient>
				<rect x="1968.24" y="1310.52" class="st76" width="56.86" height="73.11"/>
				<g>
					<rect x="1782.77" y="1314.59" class="st68" width="2.71" height="64.98"/>
					<rect x="1788.18" y="1314.59" class="st68" width="2.71" height="64.98"/>
					<rect x="1793.6" y="1314.59" class="st68" width="2.71" height="64.98"/>
					<rect x="1799.01" y="1314.59" class="st68" width="2.71" height="64.98"/>
					<rect x="1804.43" y="1314.59" class="st68" width="2.71" height="64.98"/>
					<rect x="1809.84" y="1314.59" class="st68" width="2.71" height="64.98"/>
					<rect x="1815.26" y="1314.59" class="st68" width="2.71" height="64.98"/>
					<rect x="1820.67" y="1314.59" class="st68" width="2.71" height="64.98"/>
					<rect x="1826.09" y="1314.59" class="st68" width="2.71" height="64.98"/>
					<rect x="1831.5" y="1314.59" class="st68" width="2.71" height="64.98"/>
					<rect x="1836.92" y="1314.59" class="st68" width="2.71" height="64.98"/>
					<rect x="1842.33" y="1314.59" class="st68" width="2.71" height="64.98"/>
					<rect x="1847.75" y="1314.59" class="st68" width="2.71" height="64.98"/>
					<rect x="1853.16" y="1314.59" class="st68" width="2.71" height="64.98"/>
					<rect x="1858.58" y="1314.59" class="st68" width="2.71" height="64.98"/>
					<rect x="1863.99" y="1314.59" class="st68" width="2.71" height="64.98"/>
					<rect x="1869.41" y="1314.59" class="st68" width="2.71" height="64.98"/>
					<rect x="1874.82" y="1314.59" class="st68" width="2.71" height="64.98"/>
					<rect x="1880.24" y="1314.59" class="st68" width="2.71" height="64.98"/>
					<rect x="1885.66" y="1314.59" class="st68" width="2.71" height="64.98"/>
					<rect x="1891.07" y="1314.59" class="st68" width="2.71" height="64.98"/>
					<rect x="1896.49" y="1314.59" class="st68" width="2.71" height="64.98"/>
					<rect x="1901.9" y="1314.59" class="st68" width="2.71" height="64.98"/>
					<rect x="1907.32" y="1314.59" class="st68" width="2.71" height="64.98"/>
					<rect x="1912.73" y="1314.59" class="st68" width="2.71" height="64.98"/>
					<rect x="1918.15" y="1314.59" class="st68" width="2.71" height="64.98"/>
					<rect x="1923.56" y="1314.59" class="st68" width="2.71" height="64.98"/>
					<rect x="1928.98" y="1314.59" class="st68" width="2.71" height="64.98"/>
					<rect x="1934.39" y="1314.59" class="st68" width="2.71" height="64.98"/>
					<rect x="1939.81" y="1314.59" class="st68" width="2.71" height="64.98"/>
					<rect x="1945.22" y="1314.59" class="st68" width="2.71" height="64.98"/>
					<rect x="1950.64" y="1314.59" class="st68" width="2.71" height="64.98"/>
					<rect x="1956.05" y="1314.59" class="st68" width="2.71" height="64.98"/>
					<rect x="1961.47" y="1314.59" class="st68" width="2.71" height="64.98"/>
				</g>
				<g class="st69">
					<rect x="1973.65" y="1314.59" class="st68" width="2.71" height="64.98"/>
					<rect x="1979.07" y="1314.59" class="st68" width="2.71" height="64.98"/>
					<rect x="1984.48" y="1314.59" class="st68" width="2.71" height="64.98"/>
					<rect x="1989.9" y="1314.59" class="st68" width="2.71" height="64.98"/>
					<rect x="1999.37" y="1314.59" class="st68" width="2.71" height="64.98"/>
					<rect x="2004.79" y="1314.59" class="st68" width="2.71" height="64.98"/>
					<rect x="2010.2" y="1314.59" class="st68" width="2.71" height="64.98"/>
					<rect x="2015.62" y="1314.59" class="st68" width="2.71" height="64.98"/>
				</g>
				<polygon class="st70" points="1782.77,1314.59 1964.18,1314.59 1964.18,1379.57 1782.77,1379.57 1782.77,1375.73 
					1961.24,1375.73 1961.24,1317.29 1782.77,1317.29 				"/>
				<rect x="1835.56" y="1382.28" class="st71" width="9.48" height="1.35"/>
				<rect x="1899.19" y="1382.28" class="st71" width="9.48" height="1.35"/>
				<polyline class="st72" points="1964.18,1310.52 1972.3,1310.52 1972.3,1311.88 1969.59,1311.88 1969.59,1314.59 
					1966.88,1314.59 1966.88,1311.88 1964.18,1311.88 1964.18,1310.52 				"/>
				<polygon class="st72" points="2025.1,1310.52 2025.1,1314.59 2023.74,1314.59 2023.74,1311.88 2021.04,1311.88 2021.04,1310.52 
									"/>
				<polygon class="st72" points="1778.7,1310.52 1778.7,1314.59 1780.06,1314.59 1780.06,1311.88 1782.77,1311.88 1782.77,1310.52 
									"/>
				<polygon class="st72" points="1778.7,1383.63 1778.7,1379.57 1780.06,1379.57 1780.06,1382.28 1782.77,1382.28 1782.77,1383.63 
									"/>
				<polygon class="st72" points="2025.1,1379.57 2025.1,1383.63 2021.04,1383.63 2021.04,1382.28 2023.74,1382.28 2023.74,1379.57 
									"/>
				<polyline class="st72" points="1972.3,1383.63 1964.18,1383.63 1964.18,1382.28 1966.88,1382.28 1966.88,1379.57 
					1969.59,1379.57 1969.59,1382.28 1972.3,1382.28 1972.3,1383.63 				"/>
			</g>
			<rect x="1995.31" y="1310.52" class="st72" width="1.35" height="73.11"/>
			<g>
				<g>
					<rect x="1989.9" y="1310.52" class="st73" width="1.35" height="73.11"/>
					<rect x="1990.57" y="1310.52" class="st74" width="0.68" height="73.11"/>
				</g>
				<rect x="1988.54" y="1310.52" class="st72" width="1.35" height="73.11"/>
			</g>
			<g>
				<g>
					<rect x="2002.08" y="1310.52" class="st73" width="1.35" height="73.11"/>
					<rect x="2002.76" y="1310.52" class="st74" width="0.68" height="73.11"/>
				</g>
				<rect x="2000.73" y="1310.52" class="st72" width="1.35" height="73.11"/>
			</g>
			<g>
				<g>
					<rect x="2006.14" y="1310.52" class="st73" width="1.35" height="73.11"/>
					<rect x="2006.82" y="1310.52" class="st74" width="0.68" height="73.11"/>
				</g>
				<rect x="2004.79" y="1310.52" class="st72" width="1.35" height="73.11"/>
			</g>
			<g>
				<g>
					<rect x="1985.84" y="1310.52" class="st73" width="1.35" height="73.11"/>
					<rect x="1986.51" y="1310.52" class="st74" width="0.68" height="73.11"/>
				</g>
				<rect x="1984.48" y="1310.52" class="st72" width="1.35" height="73.11"/>
			</g>
		</g>
		<rect x="1778.7" y="1383.63" class="st70" width="246.39" height="1.35"/>
	</g>
	<g>
		<g>
			
				<radialGradient id="SVGID_59_" cx="2838.6094" cy="1234.6637" r="51.7173" gradientTransform="matrix(-1 0 0 1 4483.9497 0)" gradientUnits="userSpaceOnUse">
				<stop  offset="0" style="stop-color:#FBAF4A"/>
				<stop  offset="1" style="stop-color:#FFCE64"/>
			</radialGradient>
			<rect x="1614.45" y="1168.37" class="st77" width="61.78" height="132.59"/>
			<rect x="1614.45" y="1229.03" class="st0" width="61.78" height="17.33"/>
			<rect x="1614.45" y="1265" class="st0" width="61.78" height="17.33"/>
			<rect x="1614.45" y="1165.44" class="st78" width="61.78" height="2.92"/>
		</g>
		<defs>
			<filter id="Adobe_OpacityMaskFilter" filterUnits="userSpaceOnUse" x="1614.45" y="1165.44" width="18.77" height="135.52">
				<feFlood  style="flood-color:white;flood-opacity:1" result="back"/>
				<feBlend  in="SourceGraphic" in2="back" mode="normal"/>
			</filter>
		</defs>
		<mask maskUnits="userSpaceOnUse" x="1614.45" y="1165.44" width="18.77" height="135.52" id="SVGID_60_">
			<g class="st79">
				<defs>
					<filter id="Adobe_OpacityMaskFilter_1_" filterUnits="userSpaceOnUse" x="1614.45" y="1165.44" width="18.77" height="135.52">
						<feFlood  style="flood-color:white;flood-opacity:1" result="back"/>
						<feBlend  in="SourceGraphic" in2="back" mode="normal"/>
					</filter>
				</defs>
				<mask maskUnits="userSpaceOnUse" x="1614.45" y="1165.44" width="18.77" height="135.52" id="SVGID_60_">
					<g class="st80">
					</g>
				</mask>
				
					<linearGradient id="SVGID_61_" gradientUnits="userSpaceOnUse" x1="-436.5784" y1="1161.7495" x2="-468.8921" y2="1346.6736" gradientTransform="matrix(1 0 0 1 2072.8987 0)">
					<stop  offset="0" style="stop-color:#000000"/>
					<stop  offset="1" style="stop-color:#FFFFFF"/>
				</linearGradient>
				<rect x="1614.45" y="1165.44" class="st81" width="18.77" height="135.52"/>
			</g>
		</mask>
		
			<linearGradient id="SVGID_62_" gradientUnits="userSpaceOnUse" x1="-436.5784" y1="1161.7495" x2="-468.8921" y2="1346.6736" gradientTransform="matrix(1 0 0 1 2072.8987 0)">
			<stop  offset="0" style="stop-color:#010101"/>
			<stop  offset="1" style="stop-color:#000000"/>
		</linearGradient>
		<rect x="1614.45" y="1165.44" class="st82" width="18.77" height="135.52"/>
		<defs>
			<filter id="Adobe_OpacityMaskFilter_2_" filterUnits="userSpaceOnUse" x="1664.74" y="1168.37" width="11.49" height="132.59">
				<feFlood  style="flood-color:white;flood-opacity:1" result="back"/>
				<feBlend  in="SourceGraphic" in2="back" mode="normal"/>
			</filter>
		</defs>
		<mask maskUnits="userSpaceOnUse" x="1664.74" y="1168.37" width="11.49" height="132.59" id="SVGID_63_">
			<g class="st83">
				<defs>
					<filter id="Adobe_OpacityMaskFilter_3_" filterUnits="userSpaceOnUse" x="1664.74" y="1168.37" width="11.49" height="132.59">
						<feFlood  style="flood-color:white;flood-opacity:1" result="back"/>
						<feBlend  in="SourceGraphic" in2="back" mode="normal"/>
					</filter>
				</defs>
				<mask maskUnits="userSpaceOnUse" x="1664.74" y="1168.37" width="11.49" height="132.59" id="SVGID_63_">
					<g class="st84">
					</g>
				</mask>
				
					<linearGradient id="SVGID_64_" gradientUnits="userSpaceOnUse" x1="-413.582" y1="1234.2046" x2="-389.8583" y2="1235.1796" gradientTransform="matrix(1 0 0 1 2072.8987 0)">
					<stop  offset="0" style="stop-color:#000000"/>
					<stop  offset="1" style="stop-color:#FFFFFF"/>
				</linearGradient>
				<rect x="1664.74" y="1168.37" class="st85" width="11.49" height="132.59"/>
			</g>
		</mask>
		
			<linearGradient id="SVGID_65_" gradientUnits="userSpaceOnUse" x1="-413.582" y1="1234.2046" x2="-389.8583" y2="1235.1796" gradientTransform="matrix(1 0 0 1 2072.8987 0)">
			<stop  offset="0" style="stop-color:#FFFFFF"/>
			<stop  offset="1" style="stop-color:#FFFFFF"/>
		</linearGradient>
		<rect x="1664.74" y="1168.37" class="st86" width="11.49" height="132.59"/>
	</g>
	<g>
		<g>
			
				<radialGradient id="SVGID_66_" cx="2916.4907" cy="1234.6637" r="51.7173" gradientTransform="matrix(-1 0 0 1 4483.9497 0)" gradientUnits="userSpaceOnUse">
				<stop  offset="0" style="stop-color:#FBAF4A"/>
				<stop  offset="1" style="stop-color:#FFCE64"/>
			</radialGradient>
			<rect x="1536.57" y="1168.37" class="st87" width="61.78" height="132.59"/>
			<rect x="1536.57" y="1229.03" class="st0" width="61.78" height="17.33"/>
			<rect x="1536.57" y="1265" class="st0" width="61.78" height="17.33"/>
			<rect x="1536.57" y="1165.44" class="st78" width="61.78" height="2.92"/>
		</g>
		<defs>
			<filter id="Adobe_OpacityMaskFilter_4_" filterUnits="userSpaceOnUse" x="1536.57" y="1165.44" width="18.77" height="135.52">
				<feFlood  style="flood-color:white;flood-opacity:1" result="back"/>
				<feBlend  in="SourceGraphic" in2="back" mode="normal"/>
			</filter>
		</defs>
		<mask maskUnits="userSpaceOnUse" x="1536.57" y="1165.44" width="18.77" height="135.52" id="SVGID_67_">
			<g class="st88">
				<defs>
					<filter id="Adobe_OpacityMaskFilter_5_" filterUnits="userSpaceOnUse" x="1536.57" y="1165.44" width="18.77" height="135.52">
						<feFlood  style="flood-color:white;flood-opacity:1" result="back"/>
						<feBlend  in="SourceGraphic" in2="back" mode="normal"/>
					</filter>
				</defs>
				<mask maskUnits="userSpaceOnUse" x="1536.57" y="1165.44" width="18.77" height="135.52" id="SVGID_67_">
					<g class="st89">
					</g>
				</mask>
				
					<linearGradient id="SVGID_68_" gradientUnits="userSpaceOnUse" x1="-514.4599" y1="1161.7496" x2="-546.7735" y2="1346.6736" gradientTransform="matrix(1 0 0 1 2072.8987 0)">
					<stop  offset="0" style="stop-color:#000000"/>
					<stop  offset="1" style="stop-color:#FFFFFF"/>
				</linearGradient>
				<rect x="1536.57" y="1165.44" class="st90" width="18.77" height="135.52"/>
			</g>
		</mask>
		
			<linearGradient id="SVGID_69_" gradientUnits="userSpaceOnUse" x1="-514.4599" y1="1161.7496" x2="-546.7735" y2="1346.6736" gradientTransform="matrix(1 0 0 1 2072.8987 0)">
			<stop  offset="0" style="stop-color:#010101"/>
			<stop  offset="1" style="stop-color:#000000"/>
		</linearGradient>
		<rect x="1536.57" y="1165.44" class="st91" width="18.77" height="135.52"/>
		<defs>
			<filter id="Adobe_OpacityMaskFilter_6_" filterUnits="userSpaceOnUse" x="1586.86" y="1168.37" width="11.49" height="132.59">
				<feFlood  style="flood-color:white;flood-opacity:1" result="back"/>
				<feBlend  in="SourceGraphic" in2="back" mode="normal"/>
			</filter>
		</defs>
		<mask maskUnits="userSpaceOnUse" x="1586.86" y="1168.37" width="11.49" height="132.59" id="SVGID_70_">
			<g class="st92">
				<defs>
					<filter id="Adobe_OpacityMaskFilter_7_" filterUnits="userSpaceOnUse" x="1586.86" y="1168.37" width="11.49" height="132.59">
						<feFlood  style="flood-color:white;flood-opacity:1" result="back"/>
						<feBlend  in="SourceGraphic" in2="back" mode="normal"/>
					</filter>
				</defs>
				<mask maskUnits="userSpaceOnUse" x="1586.86" y="1168.37" width="11.49" height="132.59" id="SVGID_70_">
					<g class="st93">
					</g>
				</mask>
				
					<linearGradient id="SVGID_71_" gradientUnits="userSpaceOnUse" x1="-491.4634" y1="1234.2046" x2="-467.7398" y2="1235.1796" gradientTransform="matrix(1 0 0 1 2072.8987 0)">
					<stop  offset="0" style="stop-color:#000000"/>
					<stop  offset="1" style="stop-color:#FFFFFF"/>
				</linearGradient>
				<rect x="1586.86" y="1168.37" class="st94" width="11.49" height="132.59"/>
			</g>
		</mask>
		
			<linearGradient id="SVGID_72_" gradientUnits="userSpaceOnUse" x1="-491.4634" y1="1234.2046" x2="-467.7398" y2="1235.1796" gradientTransform="matrix(1 0 0 1 2072.8987 0)">
			<stop  offset="0" style="stop-color:#FFFFFF"/>
			<stop  offset="1" style="stop-color:#FFFFFF"/>
		</linearGradient>
		<rect x="1586.86" y="1168.37" class="st95" width="11.49" height="132.59"/>
	</g>
	<g>
		<g>
			<g>
				
					<radialGradient id="SVGID_73_" cx="2857.8718" cy="1359.4208" r="417.6425" gradientTransform="matrix(-1 0 0 1 4483.9497 0)" gradientUnits="userSpaceOnUse">
					<stop  offset="0" style="stop-color:#E20882"/>
					<stop  offset="0.5464" style="stop-color:#FBAF4A"/>
					<stop  offset="1" style="stop-color:#FCF5A3"/>
				</radialGradient>
				<rect x="1533.35" y="1287.9" class="st96" width="252.82" height="97.52"/>
				
					<radialGradient id="SVGID_74_" cx="2738.0769" cy="1412.04" r="257.4694" gradientTransform="matrix(-1 0 0 1 4483.9497 0)" gradientUnits="userSpaceOnUse">
					<stop  offset="0" style="stop-color:#E20882"/>
					<stop  offset="0.5464" style="stop-color:#FBAF4A"/>
					<stop  offset="1" style="stop-color:#FCF5A3"/>
				</radialGradient>
				<rect x="1786.17" y="1287.9" class="st97" width="75.85" height="97.52"/>
				<g>
					<rect x="1538.77" y="1293.32" class="st68" width="3.61" height="86.68"/>
					<rect x="1545.99" y="1293.32" class="st68" width="3.61" height="86.68"/>
					<rect x="1553.21" y="1293.32" class="st68" width="3.61" height="86.68"/>
					<rect x="1560.44" y="1293.32" class="st68" width="3.61" height="86.68"/>
					<rect x="1567.66" y="1293.32" class="st68" width="3.61" height="86.68"/>
					<rect x="1574.88" y="1293.32" class="st68" width="3.61" height="86.68"/>
					<rect x="1582.11" y="1293.32" class="st68" width="3.61" height="86.68"/>
					<rect x="1589.33" y="1293.32" class="st68" width="3.61" height="86.68"/>
					<rect x="1596.55" y="1293.32" class="st68" width="3.61" height="86.68"/>
					<rect x="1603.78" y="1293.32" class="st68" width="3.61" height="86.68"/>
					<rect x="1611" y="1293.32" class="st68" width="3.61" height="86.68"/>
					<rect x="1618.22" y="1293.32" class="st68" width="3.61" height="86.68"/>
					<rect x="1625.45" y="1293.32" class="st68" width="3.61" height="86.68"/>
					<rect x="1632.67" y="1293.32" class="st68" width="3.61" height="86.68"/>
					<rect x="1639.89" y="1293.32" class="st68" width="3.61" height="86.68"/>
					<rect x="1647.12" y="1293.32" class="st68" width="3.61" height="86.68"/>
					<rect x="1654.34" y="1293.32" class="st68" width="3.61" height="86.68"/>
					<rect x="1661.56" y="1293.32" class="st68" width="3.61" height="86.68"/>
					<rect x="1668.79" y="1293.32" class="st68" width="3.61" height="86.68"/>
					<rect x="1676.01" y="1293.32" class="st68" width="3.61" height="86.68"/>
					<rect x="1683.24" y="1293.32" class="st68" width="3.61" height="86.68"/>
					<rect x="1690.46" y="1293.32" class="st68" width="3.61" height="86.68"/>
					<rect x="1697.68" y="1293.32" class="st68" width="3.61" height="86.68"/>
					<rect x="1704.91" y="1293.32" class="st68" width="3.61" height="86.68"/>
					<rect x="1712.13" y="1293.32" class="st68" width="3.61" height="86.68"/>
					<rect x="1719.35" y="1293.32" class="st68" width="3.61" height="86.68"/>
					<rect x="1726.58" y="1293.32" class="st68" width="3.61" height="86.68"/>
					<rect x="1733.8" y="1293.32" class="st68" width="3.61" height="86.68"/>
					<rect x="1741.02" y="1293.32" class="st68" width="3.61" height="86.68"/>
					<rect x="1748.25" y="1293.32" class="st68" width="3.61" height="86.68"/>
					<rect x="1755.47" y="1293.32" class="st68" width="3.61" height="86.68"/>
					<rect x="1762.69" y="1293.32" class="st68" width="3.61" height="86.68"/>
					<rect x="1769.92" y="1293.32" class="st68" width="3.61" height="86.68"/>
					<rect x="1777.14" y="1293.32" class="st68" width="3.61" height="86.68"/>
				</g>
				<g class="st69">
					<rect x="1793.39" y="1293.32" class="st68" width="3.61" height="86.68"/>
					<rect x="1800.62" y="1293.32" class="st68" width="3.61" height="86.68"/>
					<rect x="1807.84" y="1293.32" class="st68" width="3.61" height="86.68"/>
					<rect x="1815.06" y="1293.32" class="st68" width="3.61" height="86.68"/>
					<rect x="1827.7" y="1293.32" class="st68" width="3.61" height="86.68"/>
					<rect x="1834.93" y="1293.32" class="st68" width="3.61" height="86.68"/>
					<rect x="1842.15" y="1293.32" class="st68" width="3.61" height="86.68"/>
					<rect x="1849.38" y="1293.32" class="st68" width="3.61" height="86.68"/>
				</g>
				<polygon class="st70" points="1538.77,1293.32 1780.75,1293.32 1780.75,1380 1538.77,1380 1538.77,1374.88 1776.84,1374.88 
					1776.84,1296.93 1538.77,1296.93 				"/>
				<rect x="1609.19" y="1383.61" class="st71" width="12.64" height="1.81"/>
				<rect x="1694.07" y="1383.61" class="st71" width="12.64" height="1.81"/>
				<polyline class="st72" points="1780.75,1287.9 1791.59,1287.9 1791.59,1289.7 1787.98,1289.7 1787.98,1293.32 1784.36,1293.32 
					1784.36,1289.7 1780.75,1289.7 1780.75,1287.9 				"/>
				<polygon class="st72" points="1862.02,1287.9 1862.02,1293.32 1860.21,1293.32 1860.21,1289.7 1856.6,1289.7 1856.6,1287.9 				
					"/>
				<polygon class="st72" points="1533.35,1287.9 1533.35,1293.32 1535.15,1293.32 1535.15,1289.7 1538.77,1289.7 1538.77,1287.9 
									"/>
				<polygon class="st72" points="1533.35,1385.42 1533.35,1380 1535.15,1380 1535.15,1383.61 1538.77,1383.61 1538.77,1385.42 				
					"/>
				<polygon class="st72" points="1862.02,1380 1862.02,1385.42 1856.6,1385.42 1856.6,1383.61 1860.21,1383.61 1860.21,1380 				
					"/>
				<polyline class="st72" points="1791.59,1385.42 1780.75,1385.42 1780.75,1383.61 1784.36,1383.61 1784.36,1380 1787.98,1380 
					1787.98,1383.61 1791.59,1383.61 1791.59,1385.42 				"/>
			</g>
			<rect x="1822.29" y="1287.9" class="st72" width="1.81" height="97.52"/>
			<g>
				<g>
					<rect x="1815.06" y="1287.9" class="st73" width="1.81" height="97.52"/>
					<rect x="1815.97" y="1287.9" class="st74" width="0.9" height="97.52"/>
				</g>
				<rect x="1813.26" y="1287.9" class="st72" width="1.81" height="97.52"/>
			</g>
			<g>
				<g>
					<rect x="1831.32" y="1287.9" class="st73" width="1.81" height="97.52"/>
					<rect x="1832.22" y="1287.9" class="st74" width="0.9" height="97.52"/>
				</g>
				<rect x="1829.51" y="1287.9" class="st72" width="1.81" height="97.52"/>
			</g>
			<g>
				<g>
					<rect x="1836.73" y="1287.9" class="st73" width="1.81" height="97.52"/>
					<rect x="1837.64" y="1287.9" class="st74" width="0.9" height="97.52"/>
				</g>
				<rect x="1834.93" y="1287.9" class="st72" width="1.81" height="97.52"/>
			</g>
			<g>
				<g>
					<rect x="1809.65" y="1287.9" class="st73" width="1.81" height="97.52"/>
					<rect x="1810.55" y="1287.9" class="st74" width="0.9" height="97.52"/>
				</g>
				<rect x="1807.84" y="1287.9" class="st72" width="1.81" height="97.52"/>
			</g>
		</g>
		<rect x="1533.35" y="1385.42" class="st70" width="328.67" height="1.81"/>
	</g>
	<g>
		
			<linearGradient id="SVGID_75_" gradientUnits="userSpaceOnUse" x1="2385.1228" y1="1387.2212" x2="3034.1399" y2="1387.2212" gradientTransform="matrix(-1 0 0 1 4483.9497 0)">
			<stop  offset="0" style="stop-color:#60A7A0"/>
			<stop  offset="1" style="stop-color:#508789"/>
		</linearGradient>
		<path class="st98" d="M2056.68,1420.99h-599.47l-7.4-39.78h482.9l27.75-27.75h137.84
			C2098.31,1353.45,2106.63,1383.98,2056.68,1420.99z"/>
		
			<linearGradient id="SVGID_76_" gradientUnits="userSpaceOnUse" x1="2291.887" y1="1235.1217" x2="2632.8906" y2="1384.0317" gradientTransform="matrix(-1 0 0 1 4483.9497 0)">
			<stop  offset="0" style="stop-color:#60A7A0"/>
			<stop  offset="1" style="stop-color:#508789"/>
		</linearGradient>
		<polygon class="st99" points="2056.68,1420.99 2035.4,1438.56 1460.91,1438.56 1457.21,1420.99 		"/>
		<defs>
			<filter id="Adobe_OpacityMaskFilter_8_" filterUnits="userSpaceOnUse" x="2007.65" y="1353.45" width="91.18" height="85.11">
				<feFlood  style="flood-color:white;flood-opacity:1" result="back"/>
				<feBlend  in="SourceGraphic" in2="back" mode="normal"/>
			</filter>
		</defs>
		<mask maskUnits="userSpaceOnUse" x="2007.65" y="1353.45" width="91.18" height="85.11" id="SVGID_77_">
			<g class="st100">
				<defs>
					<filter id="Adobe_OpacityMaskFilter_9_" filterUnits="userSpaceOnUse" x="2007.65" y="1353.45" width="91.18" height="85.11">
						<feFlood  style="flood-color:white;flood-opacity:1" result="back"/>
						<feBlend  in="SourceGraphic" in2="back" mode="normal"/>
					</filter>
				</defs>
				<mask maskUnits="userSpaceOnUse" x="2007.65" y="1353.45" width="91.18" height="85.11" id="SVGID_77_">
					<g class="st101">
					</g>
				</mask>
				
					<linearGradient id="SVGID_78_" gradientUnits="userSpaceOnUse" x1="-230.6256" y1="1376.51" x2="107.011" y2="1407.7566" gradientTransform="matrix(1 0 0 1 2072.8987 0)">
					<stop  offset="0" style="stop-color:#000000"/>
					<stop  offset="1" style="stop-color:#FFFFFF"/>
				</linearGradient>
				<path class="st102" d="M2056.68,1420.99l-21.28,17.58h-27.75c0,0,8.21-6.73,18.9-17.58c15.98-16.23,37.48-41.66,45.24-67.53
					h26.52C2098.31,1353.45,2106.63,1383.98,2056.68,1420.99z"/>
			</g>
		</mask>
		
			<linearGradient id="SVGID_79_" gradientUnits="userSpaceOnUse" x1="-230.6256" y1="1376.51" x2="107.011" y2="1407.7566" gradientTransform="matrix(1 0 0 1 2072.8987 0)">
			<stop  offset="0" style="stop-color:#FFFFFF"/>
			<stop  offset="1" style="stop-color:#FFFFFF"/>
		</linearGradient>
		<path class="st103" d="M2056.68,1420.99l-21.28,17.58h-27.75c0,0,8.21-6.73,18.9-17.58c15.98-16.23,37.48-41.66,45.24-67.53h26.52
			C2098.31,1353.45,2106.63,1383.98,2056.68,1420.99z"/>
		<defs>
			<filter id="Adobe_OpacityMaskFilter_10_" filterUnits="userSpaceOnUse" x="1457.21" y="1420.99" width="332.7" height="17.58">
				<feFlood  style="flood-color:white;flood-opacity:1" result="back"/>
				<feBlend  in="SourceGraphic" in2="back" mode="normal"/>
			</filter>
		</defs>
		<mask maskUnits="userSpaceOnUse" x="1457.21" y="1420.99" width="332.7" height="17.58" id="SVGID_80_">
			<g class="st104">
				<defs>
					<filter id="Adobe_OpacityMaskFilter_11_" filterUnits="userSpaceOnUse" x="1457.21" y="1420.99" width="332.7" height="17.58">
						<feFlood  style="flood-color:white;flood-opacity:1" result="back"/>
						<feBlend  in="SourceGraphic" in2="back" mode="normal"/>
					</filter>
				</defs>
				<mask maskUnits="userSpaceOnUse" x="1457.21" y="1420.99" width="332.7" height="17.58" id="SVGID_80_">
					<g class="st105">
					</g>
				</mask>
				
					<linearGradient id="SVGID_81_" gradientUnits="userSpaceOnUse" x1="-339.0827" y1="1429.7759" x2="-583.9763" y2="1429.7759" gradientTransform="matrix(1 0 0 1 2072.8987 0)">
					<stop  offset="0" style="stop-color:#000000"/>
					<stop  offset="1" style="stop-color:#FFFFFF"/>
				</linearGradient>
				<polygon class="st106" points="1457.21,1420.99 1460.91,1438.56 1789.91,1438.56 1789.91,1420.99 				"/>
			</g>
		</mask>
		
			<linearGradient id="SVGID_82_" gradientUnits="userSpaceOnUse" x1="-339.0827" y1="1429.7759" x2="-583.9763" y2="1429.7759" gradientTransform="matrix(1 0 0 1 2072.8987 0)">
			<stop  offset="0" style="stop-color:#010101"/>
			<stop  offset="1" style="stop-color:#000000"/>
		</linearGradient>
		<polygon class="st107" points="1457.21,1420.99 1460.91,1438.56 1789.91,1438.56 1789.91,1420.99 		"/>
		<g>
			<defs>
				<filter id="Adobe_OpacityMaskFilter_12_" filterUnits="userSpaceOnUse" x="1924.64" y="1376.27" width="62.14" height="44.71">
					<feFlood  style="flood-color:white;flood-opacity:1" result="back"/>
					<feBlend  in="SourceGraphic" in2="back" mode="normal"/>
				</filter>
			</defs>
			<mask maskUnits="userSpaceOnUse" x="1924.64" y="1376.27" width="62.14" height="44.71" id="SVGID_83_">
				<g class="st108">
					<defs>
						
							<filter id="Adobe_OpacityMaskFilter_13_" filterUnits="userSpaceOnUse" x="1924.64" y="1376.27" width="62.14" height="44.71">
							<feFlood  style="flood-color:white;flood-opacity:1" result="back"/>
							<feBlend  in="SourceGraphic" in2="back" mode="normal"/>
						</filter>
					</defs>
					<mask maskUnits="userSpaceOnUse" x="1924.64" y="1376.27" width="62.14" height="44.71" id="SVGID_83_">
						<g class="st109">
						</g>
					</mask>
					
						<linearGradient id="SVGID_84_" gradientUnits="userSpaceOnUse" x1="-118.5311" y1="1408.0958" x2="-84.418" y2="1373.0575" gradientTransform="matrix(1 0 0 1 2072.8987 0)">
						<stop  offset="0" style="stop-color:#000000"/>
						<stop  offset="1" style="stop-color:#FFFFFF"/>
					</linearGradient>
					<polygon class="st110" points="1968.52,1376.27 1924.64,1420.99 1958.24,1420.99 1986.78,1392.46 					"/>
				</g>
			</mask>
			
				<linearGradient id="SVGID_85_" gradientUnits="userSpaceOnUse" x1="-118.5311" y1="1408.0958" x2="-84.418" y2="1373.0575" gradientTransform="matrix(1 0 0 1 2072.8987 0)">
				<stop  offset="0" style="stop-color:#010101"/>
				<stop  offset="1" style="stop-color:#000000"/>
			</linearGradient>
			<polygon class="st111" points="1968.52,1376.27 1924.64,1420.99 1958.24,1420.99 1986.78,1392.46 			"/>
			<g>
				
					<linearGradient id="SVGID_86_" gradientUnits="userSpaceOnUse" x1="2496.3503" y1="1376.2512" x2="2612.5002" y2="1471.8843" gradientTransform="matrix(-1 0 0 1 4483.9497 0)">
					<stop  offset="0" style="stop-color:#60A7A0"/>
					<stop  offset="1" style="stop-color:#508789"/>
				</linearGradient>
				<circle class="st112" cx="1979.75" cy="1382.71" r="12.95"/>
				
					<ellipse transform="matrix(0.9732 -0.2298 0.2298 0.9732 -264.7209 491.8406)" class="st0" cx="1979.75" cy="1382.71" rx="10.42" ry="10.42"/>
			</g>
		</g>
		<g>
			<defs>
				<filter id="Adobe_OpacityMaskFilter_14_" filterUnits="userSpaceOnUse" x="1961.73" y="1376.27" width="62.14" height="44.71">
					<feFlood  style="flood-color:white;flood-opacity:1" result="back"/>
					<feBlend  in="SourceGraphic" in2="back" mode="normal"/>
				</filter>
			</defs>
			<mask maskUnits="userSpaceOnUse" x="1961.73" y="1376.27" width="62.14" height="44.71" id="SVGID_87_">
				<g class="st113">
					<defs>
						
							<filter id="Adobe_OpacityMaskFilter_15_" filterUnits="userSpaceOnUse" x="1961.73" y="1376.27" width="62.14" height="44.71">
							<feFlood  style="flood-color:white;flood-opacity:1" result="back"/>
							<feBlend  in="SourceGraphic" in2="back" mode="normal"/>
						</filter>
					</defs>
					<mask maskUnits="userSpaceOnUse" x="1961.73" y="1376.27" width="62.14" height="44.71" id="SVGID_87_">
						<g class="st114">
						</g>
					</mask>
					
						<linearGradient id="SVGID_88_" gradientUnits="userSpaceOnUse" x1="-81.4387" y1="1408.0958" x2="-47.3256" y2="1373.0575" gradientTransform="matrix(1 0 0 1 2072.8987 0)">
						<stop  offset="0" style="stop-color:#000000"/>
						<stop  offset="1" style="stop-color:#FFFFFF"/>
					</linearGradient>
					<polygon class="st115" points="2005.61,1376.27 1961.73,1420.99 1995.34,1420.99 2023.87,1392.46 					"/>
				</g>
			</mask>
			
				<linearGradient id="SVGID_89_" gradientUnits="userSpaceOnUse" x1="-81.4387" y1="1408.0958" x2="-47.3256" y2="1373.0575" gradientTransform="matrix(1 0 0 1 2072.8987 0)">
				<stop  offset="0" style="stop-color:#010101"/>
				<stop  offset="1" style="stop-color:#000000"/>
			</linearGradient>
			<polygon class="st116" points="2005.61,1376.27 1961.73,1420.99 1995.34,1420.99 2023.87,1392.46 			"/>
			<g>
				
					<linearGradient id="SVGID_90_" gradientUnits="userSpaceOnUse" x1="2461.4102" y1="1378.4816" x2="2577.2288" y2="1464.5184" gradientTransform="matrix(-1 0 0 1 4483.9497 0)">
					<stop  offset="0" style="stop-color:#60A7A0"/>
					<stop  offset="1" style="stop-color:#508789"/>
				</linearGradient>
				<circle class="st117" cx="2016.84" cy="1382.71" r="12.95"/>
				
					<ellipse transform="matrix(0.9732 -0.2298 0.2298 0.9732 -263.7287 500.3627)" class="st0" cx="2016.84" cy="1382.71" rx="10.42" ry="10.42"/>
			</g>
		</g>
	</g>
</g>
<g>
	
		<radialGradient id="SVGID_91_" cx="1152.0409" cy="1859.1825" r="920.8112" gradientTransform="matrix(-1 0 0 1 1988.5521 0)" gradientUnits="userSpaceOnUse">
		<stop  offset="0" style="stop-color:#E20882"/>
		<stop  offset="0.5464" style="stop-color:#FBAF4A"/>
		<stop  offset="1" style="stop-color:#FCF5A3"/>
	</radialGradient>
	<path class="st118" d="M1267.66,1444.96v88.87h181.91v-60.17c0-15.85-12.85-28.7-28.69-28.7H1267.66z"/>
	
		<radialGradient id="SVGID_92_" cx="1152.0472" cy="1859.1703" r="920.8093" gradientTransform="matrix(-1 0 0 1 1988.5521 0)" gradientUnits="userSpaceOnUse">
		<stop  offset="0" style="stop-color:#E20882"/>
		<stop  offset="0.5464" style="stop-color:#FBAF4A"/>
		<stop  offset="1" style="stop-color:#FCF5A3"/>
	</radialGradient>
	<polygon class="st119" points="1410.93,1444.96 1358.78,1382.31 1267.66,1382.31 1267.66,1444.96 	"/>
	
		<linearGradient id="SVGID_93_" gradientUnits="userSpaceOnUse" x1="720.8886" y1="1425.8241" x2="1023.4869" y2="1425.8241" gradientTransform="matrix(-1 0 0 1 1988.5521 0)">
		<stop  offset="1.300000e-07" style="stop-color:#D76927"/>
		<stop  offset="0.9995" style="stop-color:#C42827"/>
	</linearGradient>
	<path class="st120" d="M988.73,1317.82h253c14.32,0,25.93,11.61,25.93,25.93v190.08h-302.6v-192.35
		C965.07,1328.41,975.66,1317.82,988.73,1317.82z"/>
	
		<linearGradient id="SVGID_94_" gradientUnits="userSpaceOnUse" x1="587.411" y1="1414.1127" x2="716.6615" y2="1414.1127" gradientTransform="matrix(-1 0 0 1 1988.5521 0)">
		<stop  offset="0" style="stop-color:#60A7A0"/>
		<stop  offset="1" style="stop-color:#508789"/>
	</linearGradient>
	<polygon class="st121" points="1401.14,1441.03 1355.85,1387.2 1271.89,1387.2 1271.89,1441.03 	"/>
	
		<radialGradient id="SVGID_95_" cx="745.8137" cy="1533.395" r="142.1782" gradientTransform="matrix(-1 0 0 1 1988.5521 0)" gradientUnits="userSpaceOnUse">
		<stop  offset="0" style="stop-color:#E20882"/>
		<stop  offset="0.5464" style="stop-color:#FBAF4A"/>
		<stop  offset="1" style="stop-color:#FCF5A3"/>
	</radialGradient>
	<path class="st122" d="M1393.88,1459.23v-28.53c0,0,6.66,1.14,6.66,6.66c0,5.52,0,8.5,0,14.81
		C1400.54,1458.47,1393.88,1459.23,1393.88,1459.23z"/>
	
		<radialGradient id="SVGID_96_" cx="1112.931" cy="2389.6038" r="468.7515" gradientTransform="matrix(-1 0 0 0.5 1988.5521 359.895)" gradientUnits="userSpaceOnUse">
		<stop  offset="0" style="stop-color:#E20882"/>
		<stop  offset="0.5464" style="stop-color:#FBAF4A"/>
		<stop  offset="1" style="stop-color:#FCF5A3"/>
	</radialGradient>
	<rect x="1425.35" y="1501.58" class="st123" width="24.22" height="14.76"/>
	
		<radialGradient id="SVGID_97_" cx="992.0623" cy="2389.6038" r="347.8158" gradientTransform="matrix(-1 0 0 0.5 1988.5521 359.895)" gradientUnits="userSpaceOnUse">
		<stop  offset="0" style="stop-color:#E20882"/>
		<stop  offset="0.5464" style="stop-color:#FBAF4A"/>
		<stop  offset="1" style="stop-color:#FCF5A3"/>
	</radialGradient>
	<path class="st124" d="M1401.14,1507.14v3.64c0,3.07,4.98,5.56,11.12,5.56h6.71v-14.76h-6.71
		C1406.12,1501.58,1401.14,1504.07,1401.14,1507.14z"/>
	
		<radialGradient id="SVGID_98_" cx="3906.4829" cy="-811.9641" r="347.8177" gradientTransform="matrix(1 0 0 -0.5 -2518.9414 1057.24)" gradientUnits="userSpaceOnUse">
		<stop  offset="0" style="stop-color:#E20882"/>
		<stop  offset="0.5464" style="stop-color:#FBAF4A"/>
		<stop  offset="1" style="stop-color:#FCF5A3"/>
	</radialGradient>
	<path class="st125" d="M982.89,1510.78v-3.64c0-3.07-4.98-5.56-11.12-5.56h-6.71v14.76h6.71
		C977.91,1516.34,982.89,1513.85,982.89,1510.78z"/>
	<g>
		
			<radialGradient id="SVGID_99_" cx="2256.5161" cy="1623.865" r="1330.2632" gradientTransform="matrix(-1 0 0 1 1988.5521 0)" gradientUnits="userSpaceOnUse">
			<stop  offset="0" style="stop-color:#E20882"/>
			<stop  offset="0.5464" style="stop-color:#FBAF4A"/>
			<stop  offset="1" style="stop-color:#FCF5A3"/>
		</radialGradient>
		<path class="st126" d="M1304.66,1533.83h69.27c0-19.13-15.51-34.64-34.64-34.64C1320.16,1499.2,1304.66,1514.7,1304.66,1533.83z"
			/>
		
			<radialGradient id="SVGID_100_" cx="582.4894" cy="1465.1792" r="261.989" gradientTransform="matrix(-1 0 0 1 1988.5521 0)" gradientUnits="userSpaceOnUse">
			<stop  offset="0" style="stop-color:#E20882"/>
			<stop  offset="0.5464" style="stop-color:#FBAF4A"/>
			<stop  offset="1" style="stop-color:#FCF5A3"/>
		</radialGradient>
		<path class="st127" d="M1312.62,1533.83h53.35c0-14.73-11.95-26.67-26.67-26.67C1324.56,1507.16,1312.62,1519.1,1312.62,1533.83z"
			/>
		
			<linearGradient id="SVGID_101_" gradientUnits="userSpaceOnUse" x1="626.7391" y1="1533.8337" x2="671.7765" y2="1533.8337" gradientTransform="matrix(-1 0 0 1 1988.5521 0)">
			<stop  offset="0" style="stop-color:#0B2635"/>
			<stop  offset="1" style="stop-color:#143C51"/>
		</linearGradient>
		<circle class="st128" cx="1339.29" cy="1533.83" r="22.52"/>
		
			<ellipse transform="matrix(0.9871 -0.1602 0.1602 0.9871 -228.3997 234.3374)" class="st0" cx="1339.29" cy="1533.83" rx="9.85" ry="9.85"/>
	</g>
	<g>
		
			<radialGradient id="SVGID_102_" cx="2522.073" cy="1623.865" r="1330.2651" gradientTransform="matrix(-1 0 0 1 1988.5521 0)" gradientUnits="userSpaceOnUse">
			<stop  offset="0" style="stop-color:#E20882"/>
			<stop  offset="0.5464" style="stop-color:#FBAF4A"/>
			<stop  offset="1" style="stop-color:#FCF5A3"/>
		</radialGradient>
		<path class="st129" d="M1039.11,1533.83h69.27c0-19.13-15.51-34.64-34.64-34.64C1054.61,1499.2,1039.11,1514.7,1039.11,1533.83z"
			/>
		
			<radialGradient id="SVGID_103_" cx="848.0439" cy="1465.1792" r="261.9894" gradientTransform="matrix(-1 0 0 1 1988.5521 0)" gradientUnits="userSpaceOnUse">
			<stop  offset="0" style="stop-color:#E20882"/>
			<stop  offset="0.5464" style="stop-color:#FBAF4A"/>
			<stop  offset="1" style="stop-color:#FCF5A3"/>
		</radialGradient>
		<path class="st130" d="M1047.07,1533.83h53.35c0-14.73-11.95-26.67-26.67-26.67C1059.01,1507.16,1047.07,1519.1,1047.07,1533.83z"
			/>
		
			<linearGradient id="SVGID_104_" gradientUnits="userSpaceOnUse" x1="892.2937" y1="1533.8337" x2="937.331" y2="1533.8337" gradientTransform="matrix(-1 0 0 1 1988.5521 0)">
			<stop  offset="0" style="stop-color:#0B2635"/>
			<stop  offset="1" style="stop-color:#143C51"/>
		</linearGradient>
		<circle class="st131" cx="1073.74" cy="1533.83" r="22.52"/>
		
			<ellipse transform="matrix(0.9732 -0.2298 0.2298 0.9732 -323.6804 287.7279)" class="st0" cx="1073.74" cy="1533.83" rx="9.85" ry="9.85"/>
	</g>
	
		<radialGradient id="SVGID_105_" cx="743.6269" cy="2107.3145" r="331.3248" gradientTransform="matrix(-1 0 0 0.5 1988.5521 509.3593)" gradientUnits="userSpaceOnUse">
		<stop  offset="0" style="stop-color:#E20882"/>
		<stop  offset="0.5464" style="stop-color:#FBAF4A"/>
		<stop  offset="1" style="stop-color:#FCF5A3"/>
	</radialGradient>
	<polygon class="st132" points="1379.61,1533.83 1455.69,1533.83 1455.69,1523.98 1379.61,1523.98 	"/>
	
		<radialGradient id="SVGID_106_" cx="602.011" cy="2107.3145" r="331.3391" gradientTransform="matrix(-0.681 0 0 0.5 1283.3114 509.3593)" gradientUnits="userSpaceOnUse">
		<stop  offset="0" style="stop-color:#E20882"/>
		<stop  offset="0.5464" style="stop-color:#FBAF4A"/>
		<stop  offset="1" style="stop-color:#FCF5A3"/>
	</radialGradient>
	<polygon class="st133" points="965.07,1533.83 1016.88,1533.83 1016.88,1523.98 965.07,1523.98 	"/>
	
		<radialGradient id="SVGID_107_" cx="625.1238" cy="1293.3276" r="224.1229" gradientTransform="matrix(-1 0 0 1 1988.5521 0)" gradientUnits="userSpaceOnUse">
		<stop  offset="0" style="stop-color:#E20882"/>
		<stop  offset="0.5464" style="stop-color:#FBAF4A"/>
		<stop  offset="1" style="stop-color:#FCF5A3"/>
	</radialGradient>
	<polygon class="st134" points="1308.99,1443.53 1312.62,1443.53 1312.62,1387.2 1308.99,1387.2 	"/>
</g>
<g>
	<g>
		<radialGradient id="SVGID_108_" cx="1219.6714" cy="883.0852" r="321.3573" gradientUnits="userSpaceOnUse">
			<stop  offset="0" style="stop-color:#FBAF4A"/>
			<stop  offset="1" style="stop-color:#FFCE64"/>
		</radialGradient>
		<polygon class="st135" points="1305.71,909.96 1305.71,969.98 1365.74,1030 1365.74,958.77 		"/>
		<path class="st0" d="M1365.74,1032.5c-0.65,0-1.29-0.25-1.77-0.73l-60.02-60.02c-0.47-0.47-0.73-1.1-0.73-1.77v-60.02
			c0-0.96,0.56-1.84,1.43-2.26c0.87-0.41,1.9-0.29,2.65,0.32l60.02,48.81c0.58,0.47,0.92,1.19,0.92,1.94V1030
			c0,1.01-0.61,1.92-1.54,2.31C1366.38,1032.44,1366.06,1032.5,1365.74,1032.5z M1308.21,968.94l55.02,55.02v-64.01l-55.02-44.75
			V968.94z"/>
	</g>
	<g>
		<radialGradient id="SVGID_109_" cx="1542.4924" cy="928.7137" r="286.0727" gradientUnits="userSpaceOnUse">
			<stop  offset="0" style="stop-color:#FBAF4A"/>
			<stop  offset="1" style="stop-color:#FFCE64"/>
		</radialGradient>
		<polygon class="st136" points="1426.23,909.96 1426.23,969.98 1366.2,1030 1366.2,958.77 		"/>
		<path class="st0" d="M1366.2,1032.5c-0.32,0-0.65-0.06-0.96-0.19c-0.93-0.39-1.54-1.3-1.54-2.31v-71.24
			c0-0.75,0.34-1.46,0.92-1.94l60.02-48.81c0.75-0.61,1.78-0.73,2.65-0.32c0.87,0.41,1.43,1.29,1.43,2.26v60.02
			c0,0.66-0.26,1.3-0.73,1.77l-60.02,60.02C1367.49,1032.25,1366.86,1032.5,1366.2,1032.5z M1368.71,959.96v64.01l55.02-55.02
			v-53.73L1368.71,959.96z"/>
	</g>
	<g>
		<radialGradient id="SVGID_110_" cx="1350.8531" cy="803.2354" r="287.4613" gradientUnits="userSpaceOnUse">
			<stop  offset="0" style="stop-color:#FBAF4A"/>
			<stop  offset="1" style="stop-color:#FFCE64"/>
		</radialGradient>
		<polygon class="st137" points="1425.76,909.96 1365.74,969.98 1305.71,909.96 1365.74,849.93 		"/>
		<path class="st0" d="M1365.74,972.48c-0.64,0-1.28-0.24-1.77-0.73l-60.02-60.02c-0.47-0.47-0.73-1.1-0.73-1.77
			c0-0.66,0.26-1.3,0.73-1.77l60.02-60.02c0.98-0.98,2.56-0.98,3.54,0l60.02,60.02c0.47,0.47,0.73,1.1,0.73,1.77
			c0,0.66-0.26,1.3-0.73,1.77l-60.02,60.02C1367.02,972.24,1366.38,972.48,1365.74,972.48z M1309.25,909.96l56.49,56.49l56.49-56.49
			l-56.49-56.49L1309.25,909.96z"/>
	</g>
	<g>
		<path class="st0" d="M1242.92,1084.26h11.65v30.99h17.98v8.93h-29.63V1084.26z"/>
		<path class="st0" d="M1275.53,1119.87c-3.43-3.29-5.15-8.46-5.15-15.53c0-7.27,1.7-12.54,5.11-15.81c3.41-3.26,8.5-4.9,15.28-4.9
			c6.78,0,11.87,1.64,15.28,4.93c3.41,3.29,5.11,8.55,5.11,15.78c0,7.03-1.72,12.19-5.15,15.5c-3.43,3.31-8.51,4.96-15.25,4.96
			C1284.04,1124.8,1278.96,1123.15,1275.53,1119.87z M1297.25,1112.37c1.34-1.67,2.01-4.35,2.01-8.03c0-3.88-0.66-6.65-1.98-8.31
			c-1.32-1.65-3.49-2.48-6.51-2.48c-3.02,0-5.19,0.83-6.51,2.48c-1.32,1.65-1.98,4.42-1.98,8.31c0,3.68,0.67,6.35,2.01,8.03
			c1.34,1.67,3.5,2.51,6.48,2.51C1293.75,1114.88,1295.91,1114.04,1297.25,1112.37z"/>
		<path class="st0" d="M1318.33,1119.59c-3.74-3.47-5.61-8.47-5.61-15c0-6.74,1.93-11.91,5.8-15.53c3.86-3.62,9.47-5.42,16.83-5.42
			c4.75,0,8.88,0.58,12.4,1.74v9.98c-3.22-1.2-7.09-1.8-11.59-1.8c-3.88,0-6.78,0.88-8.68,2.63c-1.9,1.76-2.85,4.56-2.85,8.4
			c0,3.56,0.82,6.16,2.45,7.81c1.63,1.65,4.12,2.48,7.47,2.48c1.98,0,3.88-0.27,5.7-0.81v-5.83h-7.93v-7.19h17.67v20.08
			c-1.7,1.08-3.83,1.95-6.42,2.63c-2.58,0.68-5.59,1.02-9.02,1.02C1327.47,1124.8,1322.07,1123.06,1318.33,1119.59z"/>
		<path class="st0" d="M1354.31,1084.26h11.65v39.92h-11.65V1084.26z"/>
		<path class="st0" d="M1376.94,1124.15c-2.4-0.43-4.42-1.04-6.07-1.83v-9.61c1.9,0.87,3.99,1.57,6.26,2.11
			c2.27,0.54,4.38,0.81,6.32,0.81c2.23,0,3.83-0.2,4.8-0.59c0.97-0.39,1.46-1.17,1.46-2.32c0-0.74-0.24-1.35-0.71-1.83
			c-0.48-0.47-1.17-0.89-2.08-1.24c-0.91-0.35-2.36-0.84-4.34-1.46c-0.66-0.17-1.16-0.31-1.49-0.43c-2.73-0.87-4.87-1.82-6.42-2.85
			c-1.55-1.03-2.67-2.28-3.35-3.75c-0.68-1.47-1.02-3.3-1.02-5.49c0-3.93,1.41-6.91,4.22-8.96c2.81-2.05,6.94-3.07,12.4-3.07
			c2.11,0,4.33,0.18,6.66,0.53c2.33,0.35,4.27,0.78,5.8,1.27v9.67c-3.64-1.45-7.17-2.17-10.6-2.17c-2.19,0-3.83,0.17-4.93,0.5
			c-1.1,0.33-1.64,1.05-1.64,2.17c0,0.7,0.23,1.26,0.68,1.67c0.45,0.41,1.15,0.77,2.08,1.08c0.93,0.31,2.51,0.75,4.74,1.33
			c3.18,0.87,5.63,1.91,7.35,3.13c1.71,1.22,2.9,2.61,3.56,4.18c0.66,1.57,0.99,3.47,0.99,5.7c0,3.72-1.44,6.66-4.31,8.83
			c-2.87,2.17-7.1,3.25-12.68,3.25C1381.9,1124.8,1379.34,1124.58,1376.94,1124.15z"/>
		<path class="st0" d="M1413.14,1092.93h-11.22v-8.68h34.09v8.68h-11.22v31.24h-11.65V1092.93z"/>
		<path class="st0" d="M1439.12,1084.26h11.65v39.92h-11.65V1084.26z"/>
		<path class="st0" d="M1460.81,1119.5c-3.8-3.53-5.7-8.56-5.7-15.09c0-6.74,1.87-11.88,5.61-15.44c3.74-3.55,9.27-5.33,16.58-5.33
			c2.36,0,4.49,0.18,6.42,0.53c1.92,0.35,3.85,0.88,5.8,1.58v10.17c-3.55-1.57-7.36-2.36-11.41-2.36c-3.8,0-6.6,0.87-8.4,2.6
			c-1.8,1.74-2.7,4.48-2.7,8.24c0,3.64,0.94,6.29,2.82,7.97c1.88,1.67,4.68,2.51,8.4,2.51c4.09,0,7.89-0.76,11.41-2.29v10.23
			c-3.84,1.32-7.93,1.98-12.27,1.98C1470.13,1124.8,1464.61,1123.03,1460.81,1119.5z"/>
	</g>
</g>
<g>
	<g>
		<path class="st16" d="M2271.66,954.75c-59.18,0-107.32-48.14-107.32-107.32c0-59.18,48.14-107.32,107.32-107.32
			s107.32,48.14,107.32,107.32C2378.98,906.61,2330.84,954.75,2271.66,954.75z M2271.66,743.11c-57.52,0-104.32,46.8-104.32,104.32
			c0,57.52,46.8,104.32,104.32,104.32s104.32-46.8,104.32-104.32C2375.98,789.91,2329.18,743.11,2271.66,743.11z"/>
	</g>
	<g>
		<g>
			<path class="st16" d="M2321.09,909.2h-98.86v-66.56h-26.25l75.69-71.84l24.45,23.21v-8.4h22.7v29.95l28.53,27.08h-26.26V909.2z
				 M2225.23,906.2h92.86v-66.56h21.74l-24.01-22.79v-28.24h-16.7v12.38l-27.45-26.06l-68.17,64.7h21.74V906.2z"/>
		</g>
		<g>
			<path class="st16" d="M2288.57,909.2h-33.81v-37.72h33.81V909.2z M2257.75,906.2h27.81v-31.72h-27.81V906.2z"/>
		</g>
	</g>
</g>
<path class="st0" d="M1145.61,1382.7c0-16.15-13.09-29.25-29.25-29.25c-16.15,0-29.25,13.09-29.25,29.25
	c0,4.12,0.85,8.04,2.39,11.59l0,0l0.01,0.02c0.77,1.78,1.71,3.47,2.81,5.04l24.05,43.22l24.05-43.22c1.09-1.58,2.04-3.26,2.81-5.04
	l0.01-0.02l0,0C1144.76,1390.74,1145.61,1386.82,1145.61,1382.7z M1116.36,1396.5c-7.62,0-13.8-6.18-13.8-13.8
	c0-7.62,6.18-13.8,13.8-13.8c7.62,0,13.8,6.18,13.8,13.8C1130.16,1390.32,1123.98,1396.5,1116.36,1396.5z"/>
<linearGradient id="SVGID_111_" gradientUnits="userSpaceOnUse" x1="1237.0442" y1="349.2802" x2="1462.9558" y2="349.2802">
	<stop  offset="1.300000e-07" style="stop-color:#D76927"/>
	<stop  offset="0.9995" style="stop-color:#C42827"/>
</linearGradient>
<path class="st138" d="M1462.96,290.14c0-62.38-50.57-112.95-112.96-112.95c-62.38,0-112.95,50.57-112.95,112.95
	c0,15.91,3.3,31.05,9.23,44.78l-0.01-0.01l0.03,0.06c2.97,6.87,6.62,13.39,10.84,19.47L1350,521.38l92.87-166.94
	c4.22-6.08,7.86-12.6,10.84-19.47l0.03-0.06l-0.01,0.01C1459.66,321.18,1462.96,306.05,1462.96,290.14z M1350,343.42
	c-29.42,0-53.28-23.85-53.28-53.28c0-29.42,23.86-53.28,53.28-53.28c29.43,0,53.29,23.86,53.29,53.28
	C1403.28,319.56,1379.43,343.42,1350,343.42z"/>
<g>
	<path class="st16" d="M709.77,570.98H589.91c-14.31,0-25.95-11.64-25.95-25.95c0-13.8,10.83-25.12,24.45-25.9c0-0.04,0-0.08,0-0.12
		c0-28.66,23.31-51.97,51.97-51.97c22.71,0,42.8,14.84,49.57,36.35c5.83-3.67,12.5-5.59,19.43-5.59c20.18,0,36.59,16.42,36.59,36.59
		c0,19.45-15.43,35.54-34.7,36.54v0.05L709.77,570.98z M589.95,522.09c-12.69,0-22.99,10.29-22.99,22.95
		c0,12.65,10.29,22.95,22.95,22.95h119.3l0.55-0.01c18.31-0.2,33.21-15.27,33.21-33.58c0-18.52-15.07-33.59-33.59-33.59
		c-7,0-13.72,2.14-19.43,6.2l-1.75,1.25l-0.56-2.08c-5.77-21.27-25.2-36.12-47.26-36.12c-27,0-48.97,21.97-48.97,48.97
		c0,0.38,0.01,0.76,0.03,1.14l0.06,1.94H589.95z"/>
</g>
<path class="st29" d="M1809.99,370.41c0-25.1-20.35-45.45-45.45-45.45c-9.8,0-18.87,3.11-26.29,8.39
	c-7.53-27.78-32.91-48.22-63.08-48.22c-36.1,0-65.36,29.26-65.36,65.36c0,0.69,0.03,1.36,0.05,2.04c-0.02,0-0.03,0-0.05,0
	c-17.49,0-31.66,14.17-31.66,31.66c0,17.49,14.18,31.66,31.66,31.66h155.24v-0.01C1789.92,415.57,1809.99,395.34,1809.99,370.41z"/>
<path class="st30" d="M370.02,781.82c0-13.42-10.88-24.31-24.31-24.31c-5.24,0-10.09,1.66-14.06,4.49
	c-4.03-14.86-17.6-25.79-33.74-25.79c-19.31,0-34.96,15.65-34.96,34.96c0,0.37,0.02,0.73,0.03,1.09c-0.01,0-0.02,0-0.03,0
	c-9.35,0-16.93,7.58-16.93,16.93s7.58,16.93,16.93,16.93h83.03v-0.01C359.28,805.97,370.02,795.15,370.02,781.82z"/>
<g>
	<g>
		<g>
			<g>
				<path class="st16" d="M944.31,482.99c-39.86,0-72.28-32.43-72.28-72.28s32.43-72.28,72.28-72.28
					c39.86,0,72.28,32.43,72.28,72.28S984.16,482.99,944.31,482.99z M944.31,343.34c-37.15,0-67.37,30.22-67.37,67.37
					c0,37.15,30.22,67.37,67.37,67.37c37.15,0,67.37-30.22,67.37-67.37C1011.68,373.56,981.46,343.34,944.31,343.34z"/>
			</g>
		</g>
	</g>
	<g>
		<g>
			<path class="st16" d="M930.53,426.9c3.15,1.94,7.76,3.56,12.61,3.56c7.19,0,11.4-3.8,11.4-9.3c0-5.09-2.91-8-10.27-10.83
				c-8.89-3.15-14.39-7.76-14.39-15.44c0-8.49,7.03-14.79,17.62-14.79c5.58,0,9.62,1.29,12.05,2.67l-1.94,5.74
				c-1.78-0.97-5.42-2.59-10.35-2.59c-7.44,0-10.27,4.45-10.27,8.17c0,5.09,3.31,7.6,10.83,10.51c9.22,3.56,13.91,8,13.91,16.01
				c0,8.41-6.23,15.68-19.08,15.68c-5.25,0-10.99-1.54-13.91-3.48L930.53,426.9z"/>
		</g>
		<rect x="943.43" y="367.46" class="st16" width="3.63" height="15.02"/>
		<rect x="943.43" y="434.14" class="st16" width="3.63" height="15.02"/>
	</g>
</g>
<g>
	<g>
		<rect x="2277.27" y="985.42" class="st16" width="3" height="2.5"/>
	</g>
	<g>
		<path class="st16" d="M2280.27,1130.9h-3v-5.11h3V1130.9z M2280.27,1110.47h-3v-5.11h3V1110.47z M2280.27,1090.05h-3v-5.11h3
			V1090.05z M2280.27,1069.62h-3v-5.11h3V1069.62z M2280.27,1049.2h-3v-5.11h3V1049.2z M2280.27,1028.77h-3v-5.11h3V1028.77z
			 M2280.27,1008.35h-3v-5.11h3V1008.35z"/>
	</g>
	<g>
		<path class="st16" d="M2278.77,1150.21h-2.5v-3h1v-1h3v2.5C2280.27,1149.54,2279.6,1150.21,2278.77,1150.21z"/>
	</g>
	<g>
		<path class="st16" d="M2262.1,1150.21h-4.72v-3h4.72V1150.21z M2243.21,1150.21h-4.72v-3h4.72V1150.21z M2224.31,1150.21h-4.72v-3
			h4.72V1150.21z"/>
	</g>
	<g>
		<rect x="2202.92" y="1147.21" class="st16" width="2.5" height="3"/>
	</g>
</g>
<g>
	<path class="st16" d="M1652.23,638.35h-3v-0.81h3V638.35z M1652.23,622.54h-3v-5h3V622.54z M1652.23,602.54h-3v-5h3V602.54z
		 M1652.23,582.54h-3v-5h3V582.54z M1652.23,562.54h-3v-2.47c0-0.83,0.67-1.5,1.5-1.5h2.53v3h-1.03V562.54z M1813.26,561.57h-5v-3h5
		V561.57z M1793.26,561.57h-5v-3h5V561.57z M1773.26,561.57h-5v-3h5V561.57z M1753.26,561.57h-5v-3h5V561.57z M1733.26,561.57h-5v-3
		h5V561.57z M1713.26,561.57h-5v-3h5V561.57z M1693.26,561.57h-5v-3h5V561.57z M1673.26,561.57h-5v-3h5V561.57z"/>
</g>
<g>
	<path class="st16" d="M946.74,578.35h-3v-3.58h3V578.35z M946.74,559.77h-3v-5h3V559.77z M946.74,539.77h-3v-5h3V539.77z
		 M946.74,519.77h-3v-5h3V519.77z"/>
</g>
<g>
	<path class="st16" d="M1185.85,787.9h-5v-3h5V787.9z M1165.85,787.9h-5v-3h5V787.9z M1145.85,787.9h-5v-3h5V787.9z M1125.85,787.9
		h-5v-3h5V787.9z M1105.85,787.9h-5v-3h5V787.9z M1085.85,787.9h-5v-3h5V787.9z M1065.85,787.9h-5v-3h5V787.9z M1045.85,787.9h-5v-3
		h5V787.9z M1025.85,787.9h-5v-3h5V787.9z M1005.85,787.9h-5v-3h5V787.9z M985.85,787.9h-5v-3h5V787.9z M965.85,787.9h-5v-3h5V787.9
		z M945.85,787.9h-2.42c-0.83,0-1.5-0.67-1.5-1.5v-2.58h3v1.08h0.92V787.9z M944.93,768.81h-3v-5h3V768.81z M944.93,748.81h-3v-5h3
		V748.81z M944.93,728.81h-3v-5h3V728.81z"/>
</g>
<g>
	<path class="st0" d="M1257.74,1183.06h-1.96v-3h1.96V1183.06z M1240.78,1183.06h-5v-3h5V1183.06z M1220.78,1183.06h-5v-3h5V1183.06
		z M1200.78,1183.06h-5v-3h5V1183.06z M1180.78,1183.06h-5v-3h5V1183.06z M1160.78,1183.06h-5v-3h5V1183.06z M1140.78,1183.06h-5v-3
		h5V1183.06z M1120.78,1183.06h-5v-3h5V1183.06z M1100.78,1183.06h-5v-3h5V1183.06z M1080.78,1183.06h-5v-3h5V1183.06z
		 M1060.78,1183.06h-5v-3h5V1183.06z M1040.78,1183.06h-5v-3h5V1183.06z M1020.78,1183.06h-5v-3h5V1183.06z M1000.78,1183.06h-5v-3
		h5V1183.06z M980.78,1183.06h-5v-3h5V1183.06z M960.78,1183.06h-5v-3h5V1183.06z M940.78,1183.06h-5v-3h5V1183.06z M920.78,1183.06
		h-5v-3h5V1183.06z M900.78,1183.06h-5v-3h5V1183.06z M880.78,1183.06h-5v-3h5V1183.06z M860.78,1183.06h-5v-3h5V1183.06z
		 M840.78,1183.06h-4.4c-0.83,0-1.5-0.67-1.5-1.5v-0.6h1.5v-0.9h4.4V1183.06z M837.88,1165.96h-3v-5h3V1165.96z M837.88,1145.96h-3
		v-5h3V1145.96z M837.88,1125.96h-3v-5h3V1125.96z M837.88,1105.96h-3v-5h3V1105.96z M835.83,1088h-5v-3h5V1088z M815.83,1088h-5v-3
		h5V1088z M795.83,1088h-5v-3h5V1088z M775.83,1088h-5v-3h5V1088z M755.83,1088h-5v-3h5V1088z M735.83,1088h-5v-3h5V1088z
		 M715.83,1088h-5v-3h5V1088z M695.83,1088h-5v-3h5V1088z M675.83,1088h-5v-3h5V1088z M655.83,1088h-5v-3h5V1088z M635.83,1088h-5
		v-3h5V1088z M615.83,1088h-5v-3h5V1088z M595.83,1088h-5v-3h5V1088z"/>
</g>
<g>
	<path class="st16" d="M1970.84,1259.02h-3v-5h3V1259.02z M1970.84,1239.02h-3v-5h3V1239.02z M1970.84,1219.02h-3v-5h3V1219.02z
		 M1970.84,1199.02h-3v-5h3V1199.02z M1970.84,1179.02h-3v-5h3V1179.02z M1970.84,1159.02h-3v-5h3V1159.02z M2021.04,1147.21h-5v-3
		h5V1147.21z M2001.04,1147.21h-5v-3h5V1147.21z M1981.04,1147.21h-5v-3h5V1147.21z"/>
</g>
</svg>
