<?xml version="1.0" encoding="utf-8"?>
<!-- Generator: Adobe Illustrator 23.1.0, SVG Export Plug-In . SVG Version: 6.00 Build 0)  -->
<svg version="1.1" id="Capa_1" xmlns="http://www.w3.org/2000/svg" xmlns:xlink="http://www.w3.org/1999/xlink" x="0px" y="0px"
	 viewBox="0 0 2279 1975" style="enable-background:new 0 0 2279 1975;" xml:space="preserve">
<style type="text/css">
	.st0{fill:#FFFFFF;}
	.st1{fill:#C1E6FB;}
	.st2{fill:#B0C9E5;}
	.st3{fill:none;stroke:#8DB0D0;stroke-width:16.0772;stroke-miterlimit:10;}
	.st4{fill:#8DB0D0;}
	.st5{fill:#F7B6A0;}
	.st6{fill:#E74645;}
	.st7{fill:#21263D;}
	.st8{fill:#0D4885;}
	.st9{fill:#282D3C;}
	.st10{fill:#151621;}
	.st11{fill:#F2937C;}
	.st12{fill:#ECE9E9;}
	.st13{fill:#D1413E;}
	.st14{fill:#F6B45F;}
	.st15{fill:#B7271F;}
	.st16{fill:#D42A26;}
	.st17{fill:none;stroke:#E7B88B;stroke-width:5.3591;stroke-miterlimit:10;}
	.st18{fill:#E7B88B;}
	.st19{fill:#D8A274;}
	.st20{fill:#E49F73;}
	.st21{fill:#BA7E60;}
	.st22{fill:#00B1C3;}
	.st23{fill:#78CAE3;}
	.st24{fill:#49201D;}
	.st25{fill:#82BF77;}
	.st26{fill:#1A3873;}
	.st27{fill:#08AD95;}
</style>
<g>
	<rect x="0.01" class="st0" width="2278.66" height="1974.83"/>
	<path class="st1" d="M1181.5,89.82c50.04-2.25,99.66-1.9,148.16,0.99c227.99,13.6,576.19,59.18,682.01,299.38
		c49.35,112.03,10.66,239.86,29.44,357.1c42.33,264.22,154.49,543.22-46.26,774.51c-118.4,136.42-374.36,138.44-539.07,146.66
		c-217.53,10.84-435.27-5.07-651.85-24.57c-166.06-14.95-386.78-22.74-522.65-134.03c-116.73-95.62-144.16-260.24-78.18-396.05
		c33.04-68.01,97.25-115.01,129-183.09c33.97-72.82,16.55-144.17,13.46-220.64c-7.94-196.44,121.73-392.95,289.32-480.77
		C798.14,143.77,992.84,98.31,1181.5,89.82z"/>
	<path class="st1" d="M887.07,1831.9c0,25.25-153.17,45.72-342.11,45.72c-188.94,0-342.11-20.47-342.11-45.72
		c0-25.25,153.17-45.72,342.11-45.72C733.9,1786.18,887.07,1806.65,887.07,1831.9z"/>
	<path class="st1" d="M1980.91,1831.9c0,25.25-153.17,45.72-342.11,45.72c-188.94,0-342.11-20.47-342.11-45.72
		c0-25.25,153.17-45.72,342.11-45.72C1827.74,1786.18,1980.91,1806.65,1980.91,1831.9z"/>
	<g>
		<rect x="1183.38" y="251.13" class="st2" width="725.58" height="1477.75"/>
		<polyline class="st3" points="1249.46,1728.88 1249.46,325.36 1842.9,325.36 1842.9,1728.88 		"/>
		<polyline class="st3" points="1342.53,1728.88 1342.53,1131.9 1749.82,1131.9 1749.82,1728.88 		"/>
		<rect x="1346.37" y="411.11" class="st4" width="407.29" height="551.58"/>
		<path class="st4" d="M1796.54,1057.25c0,21.71-17.59,39.3-39.3,39.3c-21.71,0-39.3-17.6-39.3-39.3c0-21.71,17.59-39.3,39.3-39.3
			C1778.94,1017.94,1796.54,1035.54,1796.54,1057.25z"/>
	</g>
	<g>
		<g>
			<g>
				<g>
					<g>
						<path class="st5" d="M696.1,960.44c14.19-4.51-2.27-45.91-5.23-57.63c-23.5-92.78-34.55-147.05-52.01-163.36
							c-2.18-4.5-65.63-40.54-63.8,23.12c-0.49,21.51,63.67,171.38,78.47,202.43C653.53,965.01,666.55,972.13,696.1,960.44z"/>
					</g>
				</g>
				<g>
					<g>
						<path class="st5" d="M653.53,965.01c34.4,55.43,84.47,53.94,181.97,84.21l5.78-19c-11.53-13.67-136.15-73.66-141.88-97.89
							C699.4,932.33,653.95,916.8,653.53,965.01z"/>
					</g>
				</g>
			</g>
			<g>
				<path class="st5" d="M866.5,1087.08c-1.87,2.12-5-1.26-6.51-2.59c-12.02-10.66-39.98-39.2-34.03-52.49
					c8.51-19.01,59.54-13.82,66.95-9.62c0.3,6.59-18.25,6-28.2,8.37c13.44,13.57,46.01,24.98,49.97,33.21
					c-0.99,9.57-24.01-8.24-40.31-10.99c26.41,17.19,40.64,26.99,38.31,30.09c-2.39,6.87-34.2-12.32-44.66-21.01
					c11.45,11.4,21.02,19.3,25.59,24.63c2.68,3.12,0.32,5.73,0.32,5.73c-6.35,1.87-29.64-20.08-36.96-26.32
					c1.26,5.06,6.04,9.35,8.44,13.88c0.85,1.6,2.59,4.79,1.37,6.72C866.68,1086.83,866.59,1086.95,866.5,1087.08z"/>
			</g>
		</g>
		<g>
			<g>
				<g>
					<g>
						<path class="st0" d="M772.29,987.67c29.58,17.26,63.84,36.45,68.99,42.55l-5.78,19c-30.94-9.6-57.08-16-79.48-22.05
							C756.02,1027.16,757.46,1012.02,772.29,987.67z"/>
					</g>
				</g>
			</g>
			<g>
				<path class="st0" d="M866.5,1087.08c-1.87,2.12-5-1.26-6.51-2.59c-12.02-10.66-39.98-39.2-34.03-52.49
					c8.51-19.01,59.54-13.82,66.95-9.62c0.3,6.59-18.25,6-28.2,8.37c13.44,13.57,46.01,24.98,49.97,33.21
					c-0.99,9.57-24.01-8.24-40.31-10.99c26.41,17.19,40.64,26.99,38.31,30.09c-2.39,6.87-34.2-12.32-44.66-21.01
					c11.45,11.4,21.02,19.3,25.59,24.63c2.68,3.12,0.32,5.73,0.32,5.73c-6.35,1.87-29.64-20.08-36.96-26.32
					c1.26,5.06,6.04,9.35,8.44,13.88c0.85,1.6,2.59,4.79,1.37,6.72C866.68,1086.83,866.59,1086.95,866.5,1087.08z"/>
			</g>
		</g>
		<g>
			<path class="st6" d="M557.71,757.74l28.35,167.78c25.64-7.89,83.73-15.28,110.04-29.07c-23.28-81.82-42.41-139.83-42.41-139.83
				s-12.98-39.93-58.49-33.7C595.2,722.93,559.11,724.88,557.71,757.74z"/>
		</g>
		<g>
			<path class="st7" d="M447.72,1204.35c-0.99,0-1.98-0.02-2.99-0.04c-0.98-0.04-1.75-0.87-1.72-1.85c0.03-0.98,0.87-1.8,1.84-1.72
				c37.69,1.32,71.09-23.09,81.39-59.3c0.26-0.93,1.25-1.5,2.2-1.22c0.94,0.26,1.5,1.26,1.22,2.21
				C519.2,1179.25,485.76,1204.35,447.72,1204.35z"/>
		</g>
		<g>
			<g>
				<path class="st8" d="M414.8,1161.41c-1.9-11.76,1.08-31.88,2.11-37.02l10.03-84.22h224.25l23.51,90.99l8.03,65.9L414.8,1161.41z
					"/>
			</g>
			<g>
				<path class="st8" d="M711.14,1404.07c0,0,15.09,64.04-117-12.84c0,0-61.67-141.29-75.39-242.38l156.03-14.34l-0.07-3.35
					C674.7,1131.16,714.37,1323.57,711.14,1404.07z"/>
			</g>
			<g>
				<g>
					<g>
						<polygon class="st5" points="656.68,1816.75 692.16,1816.98 692.68,1736.19 657.19,1735.97 						"/>
					</g>
					<g>
						<g>
							<path class="st9" d="M648.11,1827.95l125.94,0.84c-1.54-14.71-12.95-18.07-12.95-18.07l-36.23-11.25l-32.65-19.83
								l-12.42,5.87c0,0-2.49-0.47-0.03,5.62c0,0-15.68,3.14-23.01-0.15l-8.66,38.37"/>
						</g>
						<g>
							<polygon class="st10" points="648.07,1833.8 774.02,1834.62 774.05,1828.79 648.11,1827.95 							"/>
						</g>
						<g>
							<g>
								<path class="st0" d="M735.31,1802.66c-4.49-0.39-7.16,5.99-7.78,9.58c0.39-0.19,0.79-0.4,1.18-0.59
									c-0.26,0.01-0.51,0.03-0.78,0.05c0.47,0.19,0.94,0.35,1.4,0.53c-0.09-0.35-0.27-0.44-0.55-0.66c-0.29-0.22-0.83-0.22-1.11,0
									c-0.29,0.22-0.47,0.31-0.55,0.66c-0.09,0.32,0.62,0.49,0.81,0.52c0.27,0.03,0.52,0.04,0.78,0.04
									c0.41,0.02,1.08-0.09,1.18-0.57c0.36-1.72,0.87-3.31,1.67-4.87c0.76-1.47,2.25-3.64,3.92-4.13
									C735.99,1803.09,735.75,1802.67,735.31,1802.66L735.31,1802.66z"/>
							</g>
						</g>
						<g>
							<g>
								<path class="st0" d="M722.21,1798.37c-1.5,3.2-5.7,6.12-5.76,9.86c-0.02,0.71,1.7,0.61,1.97,0.14
									c0.92-1.6,1.57-3.3,2.59-4.88c1-1.55,2.06-3.14,2.62-4.92C723.79,1798.01,722.4,1797.94,722.21,1798.37L722.21,1798.37z"/>
							</g>
						</g>
						<g>
							<g>
								<path class="st0" d="M713.54,1793.83c-3.21,2.96-5.54,6.14-6.67,10.41c0.85-0.05,1.68-0.1,2.53-0.17
									c-0.29-0.46-0.39-0.55-0.76-0.94c-0.19-0.2-0.76-0.2-0.96,0c-0.39,0.39-0.47,0.47-0.76,0.94c-0.46,0.75,2.24,1.24,2.49,0.33
									c1.03-3.7,2.71-7.37,5.28-10.26C715.09,1793.68,713.83,1793.58,713.54,1793.83L713.54,1793.83z"/>
							</g>
						</g>
						<g>
							<g>
								<path class="st0" d="M702.59,1786.48c-1.29,1.63-2.33,3.45-3.53,5.16c-0.57,0.81-1.06,1.64-1.45,2.53
									c-0.1,0.26-0.18,0.5-0.25,0.76c-0.05,0.2-0.1,0.41-0.16,0.62c-0.35,0.85,0.07,1.1,1.27,0.71c-0.2-0.29-0.91-0.31-1.1,0
									c-0.1,0.14-0.21,0.27-0.3,0.42c-0.05,0.09-0.05,0.18,0,0.27c0.02,0.02,0.03,0.04,0.05,0.05c0.44,0.53,2.57,0.85,2.63-0.17
									c0.12-1.83,0.86-3.34,1.82-4.87c1.07-1.7,1.73-3.5,2.6-5.3C704.46,1786.09,702.88,1786.1,702.59,1786.48L702.59,1786.48z"/>
							</g>
						</g>
					</g>
				</g>
				<g>
					<path class="st8" d="M592.65,1387.78c20.34-64.8,105.28-101.33,105.28-101.33c15.01,50.35,13.21,117.62,13.21,117.62
						s7.38,312.53-7.76,382.5c0,0-27.1,8.8-55.28,0C648.1,1786.57,603.34,1504.63,592.65,1387.78z"/>
				</g>
			</g>
			<g>
				<path class="st8" d="M430.78,1380.25c97.23,69.76,118.54,21.53,118.54,21.53c32.03-95.14,23.14-289.46,23.14-289.46
					s-143.64-47.16-157.66,49.09C414.8,1161.41,425.35,1226.46,430.78,1380.25z"/>
			</g>
			<g>
				<g>
					<polygon class="st5" points="172.23,1620.02 182.73,1653.93 259.91,1630.02 249.39,1596.12 					"/>
				</g>
				<g>
					<g>
						<path class="st9" d="M158.95,1615.25l37.26,120.32c13.54-5.91,13.29-17.79,13.29-17.79l-0.2-37.95l9.04-37.09l-9.35-10.08
							c0,0-0.3-2.51-5.37,1.65c0,0-7.73-13.99-6.8-21.97l-39.2,3.34"/>
					</g>
					<g>
						<polygon class="st10" points="153.37,1616.98 190.63,1737.3 196.22,1735.57 158.95,1615.25 						"/>
					</g>
					<g>
						<g>
							<path class="st0" d="M209.73,1690.68c-0.19-1.99-2.86-2.85-4.51-3.39c-2.3-0.75-4.87-0.79-7.25-0.49
								c0.48,0.13,0.96,0.27,1.46,0.4c-0.05-0.17-0.13-0.32-0.23-0.46c-0.09,0.17-0.19,0.35-0.28,0.53
								c0.01-0.02,0.03-0.02,0.05-0.03c0.11-0.06,0.35-0.21,0.31-0.38c-0.01-0.05-0.02-0.09-0.03-0.13
								c-0.04-0.17-0.17-0.22-0.32-0.28c-0.36-0.1-0.72-0.16-1.1-0.1c-0.25,0.05-0.84,0.17-0.82,0.52c0.02,0.24,0.06,0.42,0.13,0.63
								c0.14,0.47,1.12,0.45,1.45,0.42c3.31-0.38,7.55,0.11,9.84,2.85C208.64,1690.99,209.78,1691.17,209.73,1690.68L209.73,1690.68
								z"/>
						</g>
					</g>
					<g>
						<g>
							<path class="st0" d="M209.85,1677.31c-3.91-0.41-7.36-2.95-11.42-2.39c-0.88,0.13-0.92,0.86,0,0.94
								c3.8,0.38,7.42,2.03,11.23,2.15C210.32,1678.03,210.69,1677.39,209.85,1677.31L209.85,1677.31z"/>
						</g>
					</g>
					<g>
						<g>
							<path class="st0" d="M211.73,1667.69c-3.8-2.12-7.66-3.15-12.03-2.98c0.37,0.31,0.74,0.64,1.11,0.95
								c0.21-0.23,0.31-0.31,0.38-0.61c0.04-0.18-0.31-0.24-0.41-0.26c-0.38-0.07-0.69-0.08-1.07-0.08c-1.54,0.02-1.55,1.33,0,1.27
								c3.84-0.13,7.6,0.56,11.1,2.18C211.14,1668.32,212.4,1668.07,211.73,1667.69L211.73,1667.69z"/>
						</g>
					</g>
					<g>
						<g>
							<path class="st0" d="M215.52,1655.1c-2.14-0.71-4.39-1.18-6.56-1.8c-1.95-0.54-3.86-0.54-5.81-0.06
								c0.61,0.07,1.22,0.16,1.83,0.22c-0.37-0.26-0.47-0.34-0.27-0.2c0.19-0.24-0.45-0.35-0.56-0.35
								c-0.72,0.03-1.19,0.09-1.62,0.71c-0.55,0.83,1.69,0.81,1.97,0.74c2.07-0.48,3.93,0.32,5.9,0.77c1.48,0.32,3.01,0.4,4.5,0.69
								C215.43,1655.94,216.45,1655.4,215.52,1655.1L215.52,1655.1z"/>
						</g>
					</g>
				</g>
			</g>
			<g>
				<path class="st8" d="M234.1,1655.44c293.44-177.02,315.69-251.51,315.69-251.51s20.37-47.83-25.85-73.98
					c0,0-53.6-43.82-98.59,11.14c0,0-65.89,116.04-229.13,255.03C196.22,1596.12,210.87,1650.82,234.1,1655.44z"/>
			</g>
			<g>
				<path class="st7" d="M520.39,1445.78c-0.47,0-0.93-0.17-1.28-0.53c-0.69-0.68-0.68-1.82,0.02-2.51
					c13.3-13.1,33.41-32.93,39.71-87.64c0.96-8.37,1.97-16.74,2.97-25.1c5.02-41.89,10.2-85.21,10.25-128.17
					c0.04-31.88-0.35-59.36-2.37-89.82c-0.06-0.97,0.68-1.82,1.66-1.89c0.96-0.02,1.84,0.68,1.9,1.67
					c2.03,30.54,2.42,58.09,2.38,90.05c-0.05,43.17-5.25,86.59-10.28,128.59c-1,8.35-2,16.71-2.97,25.08
					c-6.44,55.95-27.92,77.12-40.75,89.76C521.29,1445.61,520.84,1445.78,520.39,1445.78z"/>
			</g>
		</g>
		<g>
			<path class="st8" d="M497.84,660.37c6.33,5.21,18.22-19.46,21.63-26.35c9.08-18.29,6.38-26.04,4.88-46.05
				c-1.3-17.3,2.97-79.24-35.48-67.1c-32.08,10.13-33.86,57.03-23.85,84.33C465.03,605.19,478.94,644.83,497.84,660.37z"/>
		</g>
		<g>
			
				<rect x="493.9" y="626.15" transform="matrix(0.999 -0.0436 0.0436 0.999 -28.6096 23.6262)" class="st5" width="65.97" height="82.01"/>
		</g>
		<g>
			<path class="st11" d="M514.25,672.11c-7.23-13.58-11.78-27.44-11.45-44.94l55.24-2.42l3.11,71.23
				C543.69,694.08,521.95,686.59,514.25,672.11z"/>
		</g>
		<g>
			<polygon class="st5" points="588.34,717.05 559.54,697.49 497.56,700.24 465.03,722.54 			"/>
		</g>
		<g>
			<path class="st6" d="M652,923.57l0.14-149.24c-0.73-35.62-28.8-51.79-28.8-51.79l-61.71-23.63l-17.58,20.12l-48.69-18.28
				l-78.75,30c0,0-24.92,16.91-18.9,45.18l7.48,122.64l-8.43,278.98c209.12,42.76,285.88-17.51,285.88-17.51
				c1.83-42.21-19.33-107.94-20.76-130.48C659.46,991.3,654.41,961.82,652,923.57"/>
		</g>
		<g>
			<path class="st8" d="M554.91,531.18c-13.94-3.37-9.47,7.74-5.48,21l19.47,8.61c16.4,7.12,7.23,17.2,9.36,31.4
				c0.88,5.82,3.11,11.5,4.3,17.17c3.71-5.97,9.79-34.35,9.96-41.16c0,0,4.86-29.43-15.26-35.52
				C577.25,532.68,563.52,530.02,554.91,531.18z"/>
		</g>
		<g>
			<path class="st5" d="M496.64,632.48c4.44,14.67,11.17,26.97,23.83,36.32c12.4,9.16,25.57,14.4,39.08,5.06
				c10.74-7.45,18.28-19,22.96-30.87c10.8-27.35,7.68-66.73-8.24-90.85c-17.48-26.5-55.8-24.18-72.78,2.29
				C487.67,575.97,489.46,608.79,496.64,632.48z"/>
		</g>
		<g>
			<path class="st8" d="M502.53,614.05c0.8,4.94,1.89,8.34,5.04,12.19c8.31,10.15,22.71-0.58,31.68-1.81
				c5.97-0.84,16.22-1.02,21.36,2.3c2.07,1.31,5.22,3.89,7.7,4.38c4.31,0.87,8.45,1.54,12.44-1.2c2.61-1.8,4.85-3.87,6.8-6.13
				c-1.05,6.77-2.7,13.28-5.03,19.22c-4.68,11.87-12.22,23.41-22.96,30.87c-13.51,9.35-26.68,4.1-39.08-5.06
				c-12.67-9.35-19.39-21.65-23.83-36.32c-2.5-8.27-4.33-17.66-5.09-27.29C496.88,605.52,501.41,607.08,502.53,614.05z"/>
		</g>
		<g>
			<path class="st11" d="M519.48,614.66c-0.06,2.24,3.98,4.14,9.02,4.28c5.05,0.14,9.19-1.56,9.24-3.78
				c0.07-2.23-3.98-4.16-9.02-4.29C523.68,610.73,519.53,612.44,519.48,614.66z"/>
		</g>
		<g>
			<path class="st11" d="M564.29,618.44c-0.07,2.23,3.98,4.13,9.02,4.28c5.04,0.13,9.18-1.56,9.24-3.8
				c0.06-2.22-3.97-4.14-9.02-4.27C568.48,614.5,564.35,616.21,564.29,618.44z"/>
		</g>
		<g>
			<path class="st11" d="M553.63,626.28c-2.17,0-4.3-0.35-5.87-0.93c-0.93-0.35-1.39-1.37-1.05-2.29c0.35-0.92,1.37-1.4,2.3-1.06
				c3.3,1.24,8.74,0.83,10.05-0.74c0.15-0.18,0.49-0.61-0.25-1.84c-12.19-20.25-8.93-25.19-4.16-28.85
				c0.46-0.35,0.91-0.68,1.25-1.07c0.65-0.72,1.78-0.8,2.52-0.15c0.74,0.66,0.81,1.79,0.15,2.52c-0.48,0.54-1.1,1.04-1.76,1.54
				c-2.75,2.09-6.51,4.96,5.06,24.16c1.78,2.97,0.72,5.01-0.07,5.97C560.18,625.5,556.87,626.28,553.63,626.28z"/>
		</g>
		<g>
			<path class="st8" d="M521.89,591.43c-0.69,0-1.37-0.3-1.82-0.88c-0.8-1-0.63-2.46,0.38-3.26c5.36-4.23,15.09-5.23,21.05,0.01
				c0.96,0.84,1.06,2.29,0.21,3.26c-0.85,0.96-2.3,1.07-3.27,0.21c-4.05-3.54-11.33-2.84-15.13,0.16
				C522.9,591.27,522.39,591.43,521.89,591.43z"/>
		</g>
		<g>
			<path class="st8" d="M560.92,591.43c-0.69,0-1.36-0.3-1.82-0.88c-0.79-1-0.62-2.46,0.39-3.26c5.36-4.23,15.09-5.23,21.05,0.01
				c0.97,0.84,1.06,2.29,0.22,3.26c-0.84,0.96-2.31,1.07-3.28,0.21c-4.04-3.54-11.32-2.84-15.12,0.16
				C561.93,591.27,561.43,591.43,560.92,591.43z"/>
		</g>
		<g>
			<path class="st8" d="M575.02,519.3c13.31,11.26,21.89,26.15,13.89,37.17c-7.14,9.86-19.48,12.83-31.06,13
				c-9.6,0.16-19.23-1.25-28.59-3.31c-3.79-0.84-8.99-3.45-12.85-3.39c-13.9,0.21-13.05,37.4-14.47,50.38
				c-4.02-0.32-5.07,1.29-6.55-3.26c-1.11-3.41-2.06-15.95-4.62-18.66c-6.13-6.49-12.51,0.88-14.08,5.12
				c1.35-3.65,0.86-9.13,1.34-12.98c1.13-8.98,6.76-23.44,3.51-31.11c-2.72-6.44-11.32-8.58-12.5-16.05c0,0-0.18-20.21,34.06-20.8
				C503.11,515.42,568.13,513.46,575.02,519.3z"/>
		</g>
		<g>
			<path class="st7" d="M566.68,602.32c-0.2,3.02,1.1,5.59,2.92,5.7c1.82,0.12,3.46-2.24,3.66-5.28c0.19-3.01-1.12-5.58-2.94-5.7
				C568.51,596.94,566.88,599.29,566.68,602.32z"/>
		</g>
		<g>
			<path class="st7" d="M527.29,599.73c-0.2,3.03,1.11,5.58,2.93,5.69c1.82,0.12,3.46-2.24,3.65-5.26c0.2-3.02-1.1-5.58-2.93-5.69
				C529.12,594.34,527.49,596.7,527.29,599.73z"/>
		</g>
		<g>
			<path class="st11" d="M552.5,640.26c-0.09,0-0.18,0-0.27-0.02c-5.48-0.85-8.71-2.67-9.85-5.57c-0.37-0.9,0.08-1.95,0.99-2.31
				c0.91-0.37,1.96,0.09,2.32,1c0.43,1.09,2.01,2.55,7.08,3.35c0.98,0.15,1.64,1.07,1.5,2.04
				C554.13,639.63,553.37,640.26,552.5,640.26z"/>
		</g>
		<g>
			<path class="st7" d="M673.06,1089.33c-0.77,0-1.48-0.49-1.71-1.26c-7.06-23.11-10.71-44.46-12.2-71.43
				c-1.02-18.32-2.78-38.09-4.5-57.22c-1.85-20.62-3.76-41.93-4.76-61.78c-1.05-20.66-0.18-41.37,0.65-61.38
				c0.52-12.57,1.07-25.58,1.13-38.32c0-0.97,0.8-1.77,1.78-1.77c0,0,0,0,0.01,0c0.98,0,1.78,0.81,1.77,1.79
				c-0.05,12.79-0.6,25.84-1.12,38.46c-0.84,19.93-1.7,40.54-0.66,61.04c0.99,19.77,2.9,41.05,4.74,61.63
				c1.72,19.16,3.5,38.97,4.51,57.36c1.48,26.65,5.08,47.76,12.05,70.57c0.29,0.94-0.25,1.94-1.19,2.23
				C673.4,1089.31,673.22,1089.33,673.06,1089.33z"/>
		</g>
		<g>
			<path class="st7" d="M498.79,1158.35c-27.57,0-54.82-3.81-74.27-13.98c-0.87-0.45-1.2-1.52-0.75-2.4
				c0.46-0.87,1.53-1.2,2.41-0.74c32.61,17.04,89.86,15.34,128.96,8.72c0.96-0.17,1.89,0.49,2.06,1.45c0.16,0.97-0.49,1.9-1.46,2.06
				C538.41,1156.4,518.51,1158.35,498.79,1158.35z"/>
		</g>
		<g>
			<path class="st7" d="M485.93,1057.26c-0.3,0-0.61-0.08-0.89-0.25c-0.85-0.49-1.14-1.58-0.64-2.44c4.67-8,9.46-16.6,14.53-25.73
				c5.81-10.45,11.81-21.26,17.82-31.4c1.98-3.35,4.26-7.11,6.73-11.17c14.03-23.09,35.21-57.98,37.32-78.88
				c0.1-0.98,0.98-1.67,1.95-1.61c0.97,0.09,1.68,0.98,1.59,1.96c-2.18,21.73-22.78,55.62-37.82,80.39
				c-2.45,4.04-4.73,7.79-6.7,11.13c-5.99,10.1-11.98,20.9-17.78,31.32c-5.07,9.14-9.87,17.76-14.57,25.8
				C487.14,1056.95,486.55,1057.26,485.93,1057.26z"/>
		</g>
		<g>
			<path class="st7" d="M518.01,1064.39c-0.24,0-0.49-0.05-0.72-0.16c-0.9-0.4-1.3-1.45-0.91-2.34c1.59-3.56,4.78-8.57,8.16-13.88
				c3.87-6.09,10.35-16.27,9.74-18.4c-0.52-0.83-0.25-1.89,0.59-2.41c0.84-0.52,1.95-0.24,2.47,0.61c1.92,3.07-1.51,9.1-9.79,22.11
				c-3.31,5.19-6.44,10.11-7.91,13.42C519.35,1064,518.7,1064.39,518.01,1064.39z"/>
		</g>
		<g>
			<g>
				<path class="st5" d="M505.36,975.12c14.47-3.49,6.05-47.89,2.8-59.53c-27.96-100.37-27.98-152.24-44.22-169.76
					c-1.85-4.66-62.57-38.3-65.3,25.32c-2.02,21.42,46.38,186.29,68.65,209.96C467.29,981.1,475.06,984.68,505.36,975.12z"/>
			</g>
		</g>
		<g>
			<path class="st6" d="M406.45,925.52l-16.45-114.61c0,0-9.78-34.65,10.68-62.37c0,0,39.98-54.64,87.34,20.48l28.7,120.94
				C516.71,889.97,461.38,929.05,406.45,925.52z"/>
		</g>
		<g>
			<path class="st7" d="M516.71,891.75c-0.8,0-1.53-0.54-1.73-1.35c-2.85-11.39-4.87-21.81-6.82-31.9
				c-1.1-5.65-2.16-11.12-3.31-16.4c-2.05-9.46-4.68-19.37-7.23-28.94c-3.71-13.93-7.54-28.34-9.88-42.42
				c-0.17-0.97,0.5-1.88,1.46-2.05c0.97-0.16,1.89,0.5,2.05,1.48c2.32,13.9,6.13,28.23,9.81,42.09c2.56,9.61,5.21,19.55,7.27,29.1
				c1.16,5.32,2.22,10.8,3.32,16.49c1.95,10.04,3.97,20.41,6.78,31.7c0.24,0.96-0.33,1.93-1.3,2.16
				C517,891.73,516.85,891.75,516.71,891.75z"/>
		</g>
		<g>
			<path class="st5" d="M476.21,606.48c0.25,8.45,5.36,17.8,13.1,20.97c10.49,4.29,14.04-5.32,13.63-14.56
				c-0.33-7.44-4.17-20.13-12.71-22.39C482.16,588.34,476,599.55,476.21,606.48z"/>
		</g>
		<g>
			<g>
				<path class="st11" d="M491.93,624.01c-0.21,0-0.42-0.02-0.62-0.1c-0.93-0.35-1.4-1.36-1.05-2.3c3.26-8.72,2.34-17.77-2.08-20.61
					c-0.83-0.53-1.07-1.63-0.54-2.46c0.54-0.85,1.64-1.09,2.47-0.55c5.98,3.83,7.45,14.3,3.51,24.88
					C493.33,623.57,492.65,624.01,491.93,624.01z"/>
			</g>
			<g>
				<path class="st11" d="M493.44,609.79c-0.38,0-0.75-0.12-1.07-0.36c-1.64-1.22-5.15-0.86-7.71-0.01
					c-0.95,0.31-1.95-0.2-2.27-1.13c-0.3-0.93,0.2-1.95,1.13-2.26c3.43-1.15,8.12-1.61,10.98,0.54c0.79,0.59,0.96,1.7,0.36,2.49
					C494.52,609.54,493.99,609.79,493.44,609.79z"/>
			</g>
		</g>
		<g>
			<g>
				<path class="st12" d="M588.45,616.48c0,0-9.16,6.01-23.42,0.44c0,0-12.92-4.78-24.27,1.07c0,0-16.28,3.6-30.31-3.08
					c0,0-4.22,33.77,6.47,51.71c0,0,20.82,29.36,53.05,1.56C569.97,668.17,587.55,651.24,588.45,616.48z"/>
			</g>
			<g>
				<polygon class="st12" points="502.09,606.85 510.45,614.91 510.45,620.07 502.22,608.63 				"/>
			</g>
			<g>
				<polygon class="st12" points="514.69,657.04 495.47,628.36 493.44,628.36 516.92,666.61 				"/>
			</g>
		</g>
		<g>
			<polygon class="st13" points="544.03,719.02 537.74,715.47 537.74,788.07 551.12,788.07 551.12,707.14 			"/>
		</g>
		<g>
			<polygon class="st14" points="544.03,719.02 494.92,691.3 473.41,708.04 526.89,747.07 			"/>
		</g>
		<g>
			<polygon class="st14" points="544.03,719.02 560.92,690.71 580.5,706.13 566.74,741.63 			"/>
		</g>
		<g>
			<path class="st7" d="M549.07,747.58c0,2.55-2.07,4.64-4.63,4.64c-2.56,0-4.64-2.08-4.64-4.64c0-2.56,2.08-4.64,4.64-4.64
				C546.99,742.94,549.07,745.01,549.07,747.58z"/>
		</g>
		<g>
			<path class="st7" d="M549.07,771.63c0,2.56-2.07,4.64-4.63,4.64c-2.56,0-4.64-2.07-4.64-4.64c0-2.56,2.08-4.63,4.64-4.63
				C546.99,767,549.07,769.06,549.07,771.63z"/>
		</g>
		<g>
			<path class="st13" d="M576.6,836.14c0.57,13.67,8.66,10.09,19.6,9.64c6.23-0.25,24.27,2.67,29.12-0.85
				c5.22-3.79,1.66-26.37,1.15-32.54c-0.51-6.09,0.15-13.38-1.75-19.02c-2.46-7.35-6.79-5.37-14.85-4.76
				c-8.27,0.61-26.82-1.61-33.25,4.4C569.32,799.83,576.21,826.68,576.6,836.14z"/>
		</g>
		<g>
			<path class="st7" d="M423.01,927.4c-0.91,0-1.73-0.03-2.46-0.09c-15.4-1.37-16.38-5.51-17.44-19.6
				c-1.08-14.67-4.53-33.95-7.87-52.59c-2.48-13.88-4.82-26.97-6.1-37.61c-0.12-0.98,0.58-1.86,1.55-1.98
				c1-0.12,1.87,0.58,1.98,1.55c1.27,10.53,3.6,23.58,6.08,37.41c3.35,18.73,6.81,38.09,7.91,52.94
				c0.98,13.15,1.13,15.16,14.19,16.32c8.22,0.74,31.89-3.58,38.56-7.69c0.84-0.51,1.93-0.25,2.45,0.6
				c0.52,0.84,0.26,1.93-0.58,2.44C454.47,923.29,433.42,927.4,423.01,927.4z"/>
		</g>
		<g>
			<g>
				<path class="st15" d="M465.91,569.97c2.44-0.29,109.1,16.24,156.97,3.13c0,0,42.28-11.62-32.01-26.67L465.91,569.97z"/>
			</g>
			<g>
				<g>
					<path class="st16" d="M593.37,546.46c-9.51-23.76-17.02-30.4-23.77-36.23c-22-19.08-44.78-19.35-71.87-11.89
						c-29.68,8.16-41.68,44.27-40.29,71.62C457.44,569.97,587.55,576.01,593.37,546.46z"/>
				</g>
				<g>
					<path class="st16" d="M507.05,493.37c-5.77,7.7,7.41,5.93,11.09,3.79C528.26,491.28,511.92,486.89,507.05,493.37z"/>
				</g>
			</g>
		</g>
		<g>
			<g>
				<g>
					<g>
						<path class="st17" d="M941.56,1056.54"/>
					</g>
					<g>
						<rect x="645.23" y="851.56" class="st18" width="242.58" height="248.42"/>
					</g>
					<g>
						<rect x="887.71" y="851.56" class="st19" width="114.69" height="248.42"/>
					</g>
					<g>
						<rect x="645.23" y="851.56" class="st20" width="242.58" height="57.51"/>
					</g>
					<g>
						<rect x="887.71" y="851.56" class="st21" width="114.69" height="57.51"/>
					</g>
					<g>
						<rect x="639.33" y="851.56" class="st18" width="248.48" height="46.85"/>
					</g>
					<g>
						<rect x="887.71" y="851.56" class="st19" width="121.4" height="46.85"/>
					</g>
					<g>
						<rect x="786.6" y="1035.23" class="st19" width="77.06" height="42.63"/>
					</g>
				</g>
				<g>
					<g>
						<g>
							<polygon class="st21" points="916.79,971.7 945.95,971.7 931.37,952.25 							"/>
						</g>
						<g>
							<rect x="925.72" y="964.95" class="st21" width="11.3" height="47.39"/>
						</g>
					</g>
					<g>
						<g>
							<polygon class="st21" points="950.86,971.7 980.02,971.7 965.44,952.25 							"/>
						</g>
						<g>
							<rect x="959.79" y="964.95" class="st21" width="11.3" height="47.39"/>
						</g>
					</g>
					<g>
						<rect x="916.79" y="1018.29" class="st21" width="63.23" height="11.3"/>
					</g>
				</g>
			</g>
			<g>
				<path class="st5" d="M763.56,1100.76c2.29-1.54-1.68-5.87-1.68-5.87c-19.91-5.11-32.97-14.26-32.97-14.26l-9.21-5.36l4.16-8.01
					l13.07-2.67c9.5-0.9,10.47-8.06,10.47-8.06l-32.15-1.07l-27.93,7.13l-11.28,21.3l15.74,8.64c19.88,19.37,60.3,11.5,60.3,11.5
					L763.56,1100.76z"/>
			</g>
			<g>
				<path class="st5" d="M639.1,1049.72c-49.3-17.14-103.02-60.14-129.48-128.12c0,0-41.08-21.71-58.22,30.64
					c0,0,37.58,114.21,176.05,130.18C630.92,1071.37,634.84,1060.48,639.1,1049.72z"/>
			</g>
			<g>
				<g>
					<path class="st7" d="M758.93,1102.49c-6.77,0-18.05-5.21-24.13-8.03c-1.58-0.73-2.83-1.31-3.37-1.5
						c-0.23-0.08-0.36-0.33-0.28-0.55c0.09-0.24,0.35-0.37,0.57-0.28c0.59,0.2,1.79,0.75,3.45,1.52c5.59,2.6,17.18,7.94,23.77,7.94
						c0.06,0,0.12,0.01,0.17,0c0.24,0,0.44,0.2,0.44,0.44C759.54,1102.33,759.25,1102.49,758.93,1102.49z"/>
				</g>
				<g>
					<path class="st7" d="M744.41,1105.73c-0.03,0-0.05,0-0.07,0c-10.73-1.8-15.64-4.28-21.41-7.59c-0.21-0.13-0.28-0.4-0.17-0.62
						c0.13-0.22,0.4-0.28,0.61-0.16c5.68,3.27,10.52,5.71,21.1,7.47c0.25,0.05,0.41,0.26,0.37,0.51
						C744.82,1105.58,744.63,1105.73,744.41,1105.73z"/>
				</g>
				<g>
					<path class="st7" d="M726.09,1105.73c-0.04,0-0.06,0-0.1-0.02c-5.25-1.14-7.65-2.35-10.19-3.64c-0.46-0.23-0.93-0.47-1.42-0.71
						c-0.23-0.11-0.31-0.38-0.2-0.6c0.1-0.23,0.37-0.31,0.59-0.21c0.5,0.25,0.97,0.48,1.43,0.71c2.6,1.33,4.84,2.46,9.99,3.59
						c0.24,0.04,0.39,0.28,0.33,0.53C726.48,1105.59,726.29,1105.73,726.09,1105.73z"/>
				</g>
			</g>
			<g>
				<g>
					<path class="st0" d="M763.56,1100.76c2.29-1.54-1.68-5.87-1.68-5.87c-19.91-5.11-32.97-14.26-32.97-14.26l-9.21-5.36l4.16-8.01
						l13.07-2.67c9.5-0.9,10.47-8.06,10.47-8.06l-32.15-1.07l-27.93,7.13l-11.28,21.3l15.74,8.64c19.88,19.37,60.3,11.5,60.3,11.5
						L763.56,1100.76z"/>
				</g>
				<g>
					<path class="st0" d="M621.08,1042.86c-4.09,10.33-7.91,27.07-11.27,37.68c13.26,1.22,51.14,4.08,66.24,3.36l11.28-21.3
						C687.32,1062.6,645.63,1050.92,621.08,1042.86z"/>
				</g>
			</g>
		</g>
	</g>
	<g>
		<g>
			<g>
				<g>
					<path class="st5" d="M1567.72,973.94c-14.19-4.51,2.27-45.9,5.22-57.63c23.5-92.77,34.56-147.04,52.02-163.35
						c2.18-4.51,65.62-40.53,63.8,23.1c0.48,21.53-63.69,171.41-78.48,202.44C1610.29,978.5,1597.27,985.63,1567.72,973.94z"/>
				</g>
			</g>
			<g>
				<g>
					<path class="st5" d="M1610.29,978.5c-34.4,55.43-76.54,54.84-158,101.06l-11.01-13.12c11.53-13.67,117.41-96.38,123.14-120.62
						C1564.42,945.82,1609.87,930.32,1610.29,978.5z"/>
				</g>
			</g>
			<g>
				<g>
					<path class="st5" d="M1456.38,1057.89c3.07,1.36,5.98,4.07,6.48,7.5c1.14,7.71-5.12,16.3-9.33,22.12
						c-5.34,7.41-11.25,18.5-21.68,18.92c-1.6,0.07-3.34-0.76-4.93-1c-3.36-0.49-4.67,1.67-7.11-0.96c-1.38-1.5-6.36-2.97-7.15-4.65
						c-0.74-1.66-6.3-3.59-7.15-5.04c-5.06-9.01-7.6-14.95-4.56-18.87c1.84-2.34,10.94-11.15,11.12-16.81c0,0,1.28-5.55,14.79-5.42
						L1456.38,1057.89z"/>
				</g>
			</g>
		</g>
		<g>
			<path class="st22" d="M1706.11,771.24l-28.35,167.78c-25.65-7.89-83.74-15.28-110.04-29.06
				c23.28-81.82,42.41-139.82,42.41-139.82s12.98-39.94,58.49-33.71C1668.62,736.43,1704.71,738.38,1706.11,771.24z"/>
		</g>
		<g>
			<g>
				<path class="st7" d="M1816.09,1217.86c-38.04,0-71.47-25.1-81.95-61.94c-0.26-0.94,0.28-1.93,1.23-2.2
					c0.96-0.27,1.93,0.28,2.2,1.24c10.3,36.22,43.86,60.56,81.39,59.3c0.93-0.11,1.8,0.74,1.85,1.72c0.03,0.98-0.74,1.81-1.72,1.84
					C1818.09,1217.85,1817.08,1217.86,1816.09,1217.86z"/>
			</g>
			<g>
				<path class="st23" d="M1847.39,1212.24c4.89-19.04,0.54-69.21-0.48-74.35l-10.03-84.22h-224.24l-23.51,90.99l-14.75,67.57
					H1847.39z"/>
			</g>
			<g>
				<path class="st23" d="M1546.81,1417.48c0,0-9.21,64.13,122.88-12.75c0,0,61.67-141.29,75.39-242.38l-156.03-14.34l0.07-3.35
					C1589.12,1144.66,1543.58,1336.99,1546.81,1417.48z"/>
			</g>
			<g>
				<g>
					<g>
						<polygon class="st5" points="1513.33,1820.47 1478.66,1812.96 1525.79,1572.81 1601.7,1591.83 						"/>
					</g>
					<g>
						<g>
							<path class="st9" d="M1519.26,1833.29l-123.1-26.64c4.7-14.03,16.58-14.8,16.58-14.8l37.81-3.11l36.18-12.21l10.85,8.43
								c0,0,2.52,0.09-1.2,5.48c0,0,14.62,6.48,22.5,4.88l0.07,39.33"/>
						</g>
						<g>
							
								<rect x="1454.17" y="1759.85" transform="matrix(0.2115 -0.9774 0.9774 0.2115 -632.6796 2861.4111)" class="st10" width="5.84" height="125.95"/>
						</g>
						<g>
							<g>
								<path class="st0" d="M1439.29,1790.16c3.06,1.89,3.59,7.02,3.55,10.23c-0.01,0.4,0.59,0.5,0.86,0.57
									c0.17,0.03,0.33,0.05,0.5,0.06c0.32,0.03,1.43,0.03,1.41-0.52c-0.01-0.27-0.26-0.46-0.44-0.65c-0.26-0.26-0.85-0.18-1.11,0
									c-0.22,0.15-0.49,0.26-0.62,0.5c0.62-0.08,1.24-0.16,1.86-0.23c-0.23-0.09-0.44-0.18-0.68-0.22
									c0.2,0.16,0.39,0.32,0.59,0.49c0.15-3.57-0.98-10.04-5.26-10.77C1439.63,1789.57,1438.72,1789.8,1439.29,1790.16
									L1439.29,1790.16z"/>
							</g>
						</g>
						<g>
							<g>
								<path class="st0" d="M1451.95,1788.2c0.14,1.72,0.71,3.39,1.29,4.99c0.7,1.94,1.08,3.91,1.67,5.86
									c0.18,0.6,1.87,0.49,1.97-0.14c0.64-3.71-2.67-7.24-3.46-10.72C1453.3,1787.71,1451.9,1787.71,1451.95,1788.2
									L1451.95,1788.2z"/>
							</g>
						</g>
						<g>
							<g>
								<path class="st0" d="M1461.61,1785.84c1.86,3.41,2.71,7.35,2.91,11.21c0.05,1.02,2.92,0.77,2.53-0.16
									c-0.08-0.33-0.25-0.63-0.49-0.87c-0.21-0.27-0.76-0.26-1.02-0.06c-0.33,0.21-0.62,0.47-0.85,0.77
									c0.8,0.11,1.6,0.21,2.4,0.31c-0.18-4.35-1.75-7.85-4.22-11.38C1462.64,1785.34,1461.37,1785.41,1461.61,1785.84
									L1461.61,1785.84z"/>
							</g>
						</g>
						<g>
							<g>
								<path class="st0" d="M1473.51,1780.86c0.38,1.65,0.6,3.35,1.07,4.98c0.6,2.11,1.36,3.85,1.04,6.11
									c-0.14,0.89,1.9,0.62,2.28,0.46c0.04-0.01,0.08-0.03,0.13-0.04c0.19-0.08,0.39-0.28,0.27-0.5
									c-0.07-0.13-0.15-0.25-0.21-0.38c-0.16-0.28-0.72-0.24-0.95-0.13c0.15,0.05,0.29,0.09,0.44,0.15
									c0.23,0.12,0.48,0.24,0.72,0.36c-0.24-0.44,0.07-2.33-0.04-2.98c-0.13-0.75-0.45-1.5-0.72-2.21
									c-0.77-1.98-1.49-4.03-2.41-5.92C1474.92,1780.35,1473.4,1780.36,1473.51,1780.86L1473.51,1780.86z"/>
							</g>
						</g>
					</g>
				</g>
				<g>
					<path class="st23" d="M1669.69,1404.73c-5.74-67.67-88.6-93.4-88.6-93.4c-31.11,0.33-36.11,77.1-36.11,77.1
						s-66.32,124.97-25.72,217.68c0,0,47.33,19.12,76.74,16.67C1596,1622.79,1667.47,1502.69,1669.69,1404.73z"/>
				</g>
			</g>
			<g>
				<path class="st23" d="M1833.04,1393.74c-97.22,69.78-118.54,21.54-118.54,21.54c-32.03-95.13-23.13-289.46-23.13-289.46
					s143.64-47.18,157.65,49.09C1849.02,1174.91,1853.89,1282.67,1833.04,1393.74z"/>
			</g>
			<g>
				<g>
					<g>
						<polygon class="st5" points="1881.1,1800.06 1846.25,1806.73 1769.87,1572.81 1849.67,1556.18 						"/>
					</g>
					<g>
						<g>
							<path class="st9" d="M1891.56,1809.51l-123.69,23.75c-1.15-14.74,9.45-20.12,9.45-20.12l33.58-17.67l28.48-25.43l13.29,3.52
								c0,0,2.36-0.92,1.06,5.52c0,0,15.98,0.23,22.59-4.35l15.51,36.16"/>
						</g>
						<g>
							<polygon class="st10" points="1892.67,1815.26 1768.97,1839 1767.87,1833.26 1891.56,1809.51 							"/>
						</g>
						<g>
							<g>
								<path class="st0" d="M1801.26,1801.11c1.7,0.14,3.42,1.96,4.45,3.17c1.15,1.36,1.94,2.98,2.6,4.62
									c0.18,0.44,1.09,0.48,1.45,0.41c0.24-0.05,0.49-0.11,0.73-0.18c0.25-0.09,0.67-0.28,0.51-0.62
									c-0.14-0.27-0.47-0.43-0.72-0.58c-0.25-0.16-0.77-0.15-1,0.05c-0.21,0.21-0.44,0.36-0.45,0.66
									c0.37-0.18,0.73-0.36,1.11-0.53c-0.27,0.01-0.54,0.02-0.81,0.07c0.49,0.15,0.97,0.27,1.45,0.41c-0.9-2.43-2.4-4.6-4.34-6.29
									c-1.38-1.21-3.28-2.33-5.14-1.79C1800.58,1800.67,1800.82,1801.06,1801.26,1801.11L1801.26,1801.11z"/>
							</g>
						</g>
						<g>
							<g>
								<path class="st0" d="M1811.93,1794.23c0.73,1.4,1.83,2.55,2.86,3.72c0.58,0.64,1.2,1.26,1.77,1.88
									c0.85,0.95,1.43,2.09,2.26,3.05c0.29,0.33,2.1,0.62,1.97-0.13c-0.29-1.71-1.82-3.07-3-4.24c-1.49-1.48-3.22-2.75-4.44-4.47
									C1813.09,1793.67,1811.67,1793.73,1811.93,1794.23L1811.93,1794.23z"/>
							</g>
						</g>
						<g>
							<g>
								<path class="st0" d="M1819.91,1788.3c3.06,2.34,5.35,5.56,7.04,9c0.42,0.88,2.95,0.31,2.48-0.33
									c-0.29-0.4-0.54-0.64-0.95-0.92c-0.27-0.21-0.79-0.21-1.02,0.05c-0.26,0.31-0.39,0.49-0.51,0.87c0.82,0,1.65,0,2.48,0
									c-1.86-3.98-4.83-6.73-8.49-9.05C1820.66,1787.75,1819.45,1787.96,1819.91,1788.3L1819.91,1788.3z"/>
							</g>
						</g>
						<g>
							<g>
								<path class="st0" d="M1828.88,1779c1.11,1.44,1.96,3.05,3.22,4.36c1.33,1.38,2.53,2.83,2.99,4.71
									c0.24,0.95,2.44,0.91,2.69,0c0-0.02,0.01-0.05,0.02-0.08c-0.01-0.1-0.06-0.19-0.15-0.25c-0.09-0.1-0.19-0.21-0.28-0.32
									c-0.2-0.23-0.93-0.32-1.11,0c0.28,0.04,0.58,0.06,0.85,0.08c0.23,0.21,0.45,0.39,0.67,0.58c-0.42-1.74-1.28-3.07-2.48-4.36
									c-1.57-1.71-3.2-3.5-4.93-5.03C1830.08,1778.42,1828.53,1778.52,1828.88,1779L1828.88,1779z"/>
							</g>
						</g>
					</g>
				</g>
				<g>
					<path class="st23" d="M1780.57,1626.99c-60.78-30.42-71.74-231.15-71.74-231.15s14.69-56.23,57.42-53.33
						c0,0,61.67,8.28,75.77,77.89c0,0,32.51,69.5,45.72,179.74C1887.74,1600.14,1803.26,1633.75,1780.57,1626.99z"/>
				</g>
			</g>
			<g>
				<path class="st7" d="M1719.23,1486.93c-0.83,0-1.57-0.57-1.75-1.41c-10.17-48.18-10.44-86.32-10.44-89.48
					c-9.64-42.67-18.79-130.39-18.85-180.69c-0.04-31.97,0.36-59.5,2.38-90.05c0.07-0.98,0.93-1.7,1.89-1.66
					c0.98,0.06,1.73,0.91,1.66,1.89c-2.02,30.44-2.41,57.91-2.37,89.82c0.06,50.17,9.21,137.69,18.82,180.09
					c0.03,0.14,0.04,0.27,0.04,0.4c0,0.4-0.14,39.27,10.36,88.95c0.2,0.96-0.41,1.89-1.37,2.11
					C1719.47,1486.92,1719.36,1486.93,1719.23,1486.93z"/>
			</g>
		</g>
		<g>
			<path class="st24" d="M1791.73,620.82c0.85-2.5,1.57-4.67,2.17-6.3c10-27.3,13.12-70.02-18.96-80.15
				c-38.46-12.13-34.18,49.8-35.48,67.1c-1.51,20.02-4.19,27.75,4.88,46.05c3.42,6.89,7.15,13.11,15.28,12.02
				C1768.63,658.35,1787.68,632.73,1791.73,620.82z"/>
		</g>
		<g>
			<polygon class="st5" points="1771.67,641.13 1705.78,638.24 1702.2,720.19 1768.1,723.07 			"/>
		</g>
		<g>
			<path class="st11" d="M1749.57,685.61c7.22-13.59,11.79-27.44,11.45-44.95l-55.24-2.42l-3.12,71.23
				C1720.13,707.57,1741.87,700.08,1749.57,685.61z"/>
		</g>
		<g>
			<polygon class="st5" points="1675.49,730.56 1704.28,710.99 1766.27,713.75 1798.79,736.04 			"/>
		</g>
		<g>
			<path class="st22" d="M1611.82,937.06c-2.41,38.27-7.45,67.74-9.87,105.99c-1.41,22.54-22.58,88.27-20.75,130.49
				c0,0,76.76,60.28,285.88,17.51c-1.39-8.88-9.1-62.24-9.64-71.19c-1.56-26.41-3.14-52.83-4.7-79.26
				c-2.08-34.93,1.01-75.1-6.51-109.36l19.9-141.82c6.02-28.28-18.89-45.18-18.89-45.18l-78.75-30
				c-33.33,24.6-66.28-1.85-66.28-1.85l-61.72,23.63c0,0-28.07,16.18-28.79,51.81L1611.82,937.06"/>
		</g>
		<g>
			<g>
				<path class="st24" d="M1708.93,544.68c13.93-3.38,9.47,7.75,5.47,21.01l-19.46,8.61c-16.41,7.1-7.23,17.19-9.36,31.38
					c-0.89,5.85-3.12,11.52-4.3,17.18c-3.71-5.97-9.79-34.36-9.95-41.14c0,0-4.86-29.44,15.25-35.54
					C1686.56,546.19,1700.31,543.54,1708.93,544.68z"/>
			</g>
			<g>
				<path class="st5" d="M1771.67,641.13c-4.43,14.68-15.65,31.84-28.32,41.19c-12.4,9.14-25.57,14.4-39.07,5.04
					c-10.75-7.44-18.28-18.98-22.96-30.87c-10.79-27.34-7.68-66.73,8.24-90.85c17.48-26.49,55.8-24.17,72.78,2.29
					C1776.16,589.48,1778.85,617.44,1771.67,641.13z"/>
			</g>
			<g>
				<path class="st11" d="M1744.34,628.16c0.06,2.24-3.98,4.16-9.02,4.3c-5.04,0.12-9.19-1.58-9.24-3.79
					c-0.06-2.22,3.98-4.15,9.03-4.29C1740.14,624.23,1744.28,625.94,1744.34,628.16z"/>
			</g>
			<g>
				<path class="st11" d="M1699.53,631.93c0.07,2.23-3.98,4.16-9.02,4.3c-5.04,0.13-9.18-1.56-9.24-3.8
					c-0.06-2.22,3.98-4.14,9.02-4.28C1695.33,628,1699.47,629.71,1699.53,631.93z"/>
			</g>
			<g>
				<path class="st11" d="M1710.18,639.78c-3.22,0-6.54-0.78-8.17-2.74c-0.79-0.95-1.84-2.99-0.05-5.97
					c11.56-19.19,7.8-22.06,5.06-24.16c-0.67-0.5-1.28-0.99-1.77-1.53c-0.65-0.74-0.59-1.87,0.16-2.52c0.73-0.66,1.86-0.6,2.52,0.15
					c0.35,0.38,0.79,0.71,1.26,1.07c4.77,3.63,8.04,8.58-4.17,28.84c-0.74,1.25-0.39,1.66-0.24,1.84c1.29,1.57,6.74,1.98,10.04,0.74
					c0.92-0.35,1.95,0.12,2.3,1.05c0.35,0.92-0.13,1.95-1.05,2.3C1714.49,639.43,1712.35,639.78,1710.18,639.78z"/>
			</g>
			<g>
				<path class="st24" d="M1685.93,604.93c-0.73,0-1.46-0.34-1.9-1c-0.74-1.05-0.47-2.49,0.59-3.21c4.11-2.85,11.94-4.66,20.43-0.43
					c1.15,0.56,1.62,1.96,1.06,3.1c-0.58,1.14-1.97,1.62-3.11,1.05c-8.84-4.4-15.07-0.39-15.75,0.08
					C1686.85,604.8,1686.38,604.93,1685.93,604.93z"/>
			</g>
			<g>
				<path class="st24" d="M1741.93,604.93c-0.5,0-1-0.15-1.43-0.49c-3.81-3.01-11.08-3.71-15.12-0.15
					c-0.96,0.83-2.43,0.74-3.28-0.21c-0.84-0.96-0.74-2.43,0.21-3.27c5.96-5.23,15.7-4.24,21.06-0.01c1.02,0.8,1.18,2.25,0.39,3.25
					C1743.29,604.63,1742.61,604.93,1741.93,604.93z"/>
			</g>
			<g>
				<path class="st24" d="M1782.94,546.89c-1.17,7.47,2.06,12.43-0.66,18.87c-3.26,7.67,2.37,22.14,3.5,31.11
					c0.49,3.85,0,9.33,1.35,12.98c-1.58-4.24-7.95-11.61-14.08-5.13c-2.55,2.71-3.5,15.26-4.61,18.67
					c-1.49,4.54-2.53,2.91-6.55,3.26c-1.43-12.98-0.58-50.17-14.48-50.39c-3.86-0.06-9.05,2.55-12.84,3.4
					c-9.36,2.06-19,3.45-28.6,3.31c-25.17-0.38-37.52-12.84-37.81-37.81c0,0,5.64,2.1,9.64,1.72c0,0-15.32-13.76-2.31-27.12
					c0,0,14.36,6.23,18.36,6.67c0,0-5.4-10.25,3.31-20.93c0,0,17.48,17.38,49.61,17.53
					C1746.77,523.04,1788.89,526.42,1782.94,546.89z"/>
			</g>
			<g>
				<path class="st7" d="M1697.14,615.82c0.2,3.02-1.1,5.58-2.93,5.69c-1.81,0.12-3.46-2.23-3.65-5.26c-0.2-3.02,1.11-5.58,2.93-5.7
					C1695.31,610.43,1696.95,612.79,1697.14,615.82z"/>
			</g>
			<g>
				<path class="st7" d="M1736.52,613.24c0.2,3.01-1.1,5.57-2.92,5.69c-1.81,0.13-3.46-2.23-3.64-5.27
					c-0.21-3.02,1.09-5.58,2.91-5.69C1734.7,607.85,1736.33,610.2,1736.52,613.24z"/>
			</g>
		</g>
		<g>
			<g>
				<path class="st5" d="M1895.62,989.1c-13.76,5.69-33.03-35.18-37.24-46.52c-36.32-97.65-66.78-139.65-63.92-163.36
					c-1.23-4.86,28.15-67.74,67.72-17.87c14.22,16.15,71.89,178.01,67.77,210.25C1929.94,971.6,1925.75,979.04,1895.62,989.1z"/>
			</g>
		</g>
		<g>
			<path class="st22" d="M1927.89,878.77l-57.44-110.61c0,0-10.13-18.63-23.2-23.92c0,0-64.45-20.73-58.65,67.86l47.81,114.74
				C1836.41,926.85,1885.5,913.9,1927.89,878.77z"/>
		</g>
		<g>
			<path class="st5" d="M1930.84,969.85c3.91,77.89-6.93,113.9-30.95,207.95l-18.08-5.25c0.79-17.88-8.88-178.19-14.47-210.69
				C1867.35,961.86,1924.71,920.93,1930.84,969.85z"/>
		</g>
		<g>
			<g>
				<path class="st5" d="M1883.33,1168.9c2.72-1.99,6.52-3.12,9.73-1.82c7.25,2.89,11.5,12.63,14.42,19.19
					c3.7,8.36,10.31,19.03,5.43,28.26c-0.74,1.41-2.34,2.49-3.35,3.75c-2.12,2.67-0.89,4.88-4.4,5.65
					c-1.99,0.44-5.78,4.02-7.63,3.84c-1.81-0.2-6.25,3.64-7.95,3.63c-10.33-0.16-16.74-0.94-18.61-5.55
					c-1.09-2.77-4.13-15.07-8.92-18.09c0,0-4.16-3.88,2.77-15.51L1883.33,1168.9z"/>
			</g>
		</g>
		<g>
			<path class="st11" d="M1711.32,653.76c-0.86,0-1.63-0.62-1.76-1.49c-0.16-0.98,0.51-1.9,1.49-2.05c5.07-0.79,6.64-2.26,7.08-3.35
				c0.36-0.92,1.39-1.38,2.32-0.99c0.92,0.36,1.37,1.4,1,2.31c-1.15,2.88-4.36,4.7-9.85,5.57
				C1711.5,653.76,1711.42,653.76,1711.32,653.76z"/>
		</g>
		<g>
			<path class="st7" d="M1838.12,929.97c-0.41,0-0.81-0.13-1.14-0.41c-6.74-5.6-12.21-20.38-17.06-33.41
				c-1.86-5.02-3.63-9.78-5.31-13.58c-3.93-8.92-7.63-18.53-11.21-27.82c-5.15-13.37-10.48-27.2-16.78-39.82
				c-0.43-0.88-0.08-1.95,0.81-2.39c0.88-0.43,1.95-0.08,2.39,0.81c6.37,12.76,11.73,26.68,16.91,40.12
				c3.57,9.25,7.25,18.81,11.15,27.67c1.72,3.9,3.5,8.7,5.39,13.76c4.67,12.62,9.98,26.91,15.99,31.91
				c0.75,0.63,0.86,1.76,0.23,2.51C1839.14,929.76,1838.63,929.97,1838.12,929.97z"/>
		</g>
		<g>
			<path class="st7" d="M1590.77,1102.84c-0.17,0-0.35-0.02-0.52-0.07c-0.93-0.29-1.47-1.28-1.18-2.22
				c6.97-22.82,10.58-43.92,12.05-70.59c1.02-18.39,2.78-38.19,4.5-57.35c1.85-20.58,3.75-41.86,4.75-61.63
				c1.03-20.49,0.17-41.1-0.66-61.02c-0.53-12.62-1.07-25.67-1.11-38.47c-0.01-0.99,0.79-1.8,1.77-1.81c0.01,0,0.01,0,0.01,0
				c0.98,0,1.78,0.8,1.78,1.78c0.05,12.74,0.6,25.75,1.12,38.33c0.84,20.01,1.71,40.7,0.65,61.36c-1,19.83-2.9,41.15-4.76,61.77
				c-1.71,19.12-3.49,38.92-4.5,57.23c-1.49,26.96-5.14,48.32-12.2,71.41C1592.23,1102.34,1591.53,1102.84,1590.77,1102.84z"/>
		</g>
		<g>
			<path class="st7" d="M1765.03,1171.85c-19.72,0-39.62-1.94-56.95-4.88c-0.96-0.16-1.62-1.08-1.45-2.06
				c0.18-0.97,1.11-1.6,2.06-1.45c39.09,6.65,96.34,8.33,128.96-8.74c0.87-0.45,1.95-0.1,2.41,0.76c0.46,0.87,0.12,1.96-0.75,2.4
				C1819.85,1168.05,1792.6,1171.85,1765.03,1171.85z"/>
		</g>
		<g>
			<path class="st7" d="M1777.89,1070.76c-0.61,0-1.2-0.31-1.54-0.88c-4.7-8.03-9.49-16.67-14.57-25.81
				c-5.79-10.42-11.79-21.21-17.77-31.31c-1.97-3.32-4.23-7.05-6.68-11.07c-15.05-24.79-35.66-58.69-37.84-80.44
				c-0.1-0.97,0.61-1.85,1.59-1.94c0.91-0.1,1.85,0.6,1.95,1.59c2.11,20.93,23.31,55.85,37.35,78.95c2.46,4.04,4.73,7.77,6.7,11.11
				c6.01,10.14,12.01,20.94,17.81,31.4c5.08,9.12,9.86,17.73,14.54,25.73c0.5,0.85,0.21,1.95-0.64,2.43
				C1778.5,1070.68,1778.2,1070.76,1777.89,1070.76z"/>
		</g>
		<g>
			<path class="st7" d="M1745.81,1077.89c-0.67,0-1.33-0.39-1.62-1.06c-1.48-3.3-4.6-8.21-7.91-13.41
				c-8.28-13.01-11.71-19.03-9.79-22.11c0.52-0.83,1.62-1.08,2.45-0.58c0.82,0.52,1.08,1.59,0.6,2.41
				c-0.55,2.19,5.89,12.3,9.75,18.36c3.39,5.32,6.58,10.33,8.16,13.87c0.4,0.9-0.01,1.96-0.91,2.35
				C1746.3,1077.84,1746.06,1077.89,1745.81,1077.89z"/>
		</g>
		<g>
			<path class="st5" d="M1791.69,614.52c1.03,8.36-2.62,18.34-9.78,22.63c-9.7,5.8-14.65-3.15-15.63-12.31
				c-0.79-7.39,1.08-20.47,9.17-24C1783.1,597.51,1790.85,607.64,1791.69,614.52z"/>
		</g>
		<g>
			<g>
				<path class="st11" d="M1777.42,632.1c-0.73,0-1.4-0.44-1.67-1.16c-3.95-10.59-2.47-21.04,3.5-24.88
					c0.83-0.53,1.93-0.29,2.47,0.53c0.53,0.83,0.29,1.94-0.54,2.48c-4.42,2.83-5.34,11.9-2.08,20.62c0.35,0.93-0.13,1.95-1.05,2.29
					C1777.83,632.06,1777.62,632.1,1777.42,632.1z"/>
			</g>
			<g>
				<path class="st11" d="M1775.9,617.86c-0.54,0-1.08-0.24-1.43-0.71c-0.59-0.79-0.43-1.91,0.37-2.51
					c2.86-2.14,7.55-1.68,10.97-0.54c0.94,0.32,1.45,1.33,1.14,2.27c-0.32,0.93-1.33,1.43-2.26,1.13c-2.56-0.85-6.08-1.21-7.71,0
					C1776.65,617.75,1776.27,617.86,1775.9,617.86z"/>
			</g>
		</g>
		<g>
			<g>
				<path class="st12" d="M1675.24,629.22c0,0,9.16,6,23.42,0.43c0,0,12.91-4.78,24.27,1.08c0,0,16.28,3.61,30.31-3.09
					c0,0,4.23,33.77-6.46,51.71c0,0-20.83,29.35-53.06,1.57C1693.71,680.92,1676.14,663.99,1675.24,629.22z"/>
			</g>
			<g>
				<polygon class="st12" points="1766.28,624.83 1753.23,627.64 1753.23,632.81 1766.54,626.67 				"/>
			</g>
			<g>
				<polygon class="st12" points="1749,669.78 1771.67,642.46 1771.67,645.87 1746.77,679.35 				"/>
			</g>
		</g>
	</g>
	<g>
		<g>
			<g>
				<path class="st25" d="M1078.02,1581.9c-25.54-19.45-41.08-64.22-62.58-90.68c-23.95-29.49-51.6-58.61-66.36-93.46
					c-15.01-35.4-3.94-78.31-7.58-116.24c-3.24-33.88-12.12-72.66-29.5-103.03c4.2,7.33,56.41,21.05,66.88,26.13
					c17.06,8.26,34.95,15.95,50.58,26.77c34.44,23.81,57.66,57.5,66.63,98.3C1114.52,1413.33,1082.84,1498.54,1078.02,1581.9z"/>
			</g>
			<g>
				<path class="st26" d="M1070.58,1664.46c8.13-179.32-9.79-326.61-112.11-455.17c-0.56-0.7-0.44-1.73,0.26-2.3
					c0.71-0.56,1.73-0.44,2.29,0.26c102.91,129.31,121.05,277.41,112.9,457.4L1070.58,1664.46z"/>
			</g>
		</g>
		<g>
			<g>
				<path class="st27" d="M1289.52,1410.28c-33.69,43.38-94.65,52.35-130.61,95.6c2.05-57.59-18.87-103.86,10.82-157.55
					c29.48-53.3,80.43-71,130.15-99.21c21.76-12.35,41.14-26.32,58.55-44.51c-7.27,34.5-24.81,67.12-34.12,101.41
					C1314.64,1341.66,1313.03,1379.99,1289.52,1410.28z"/>
			</g>
			<g>
				<path class="st26" d="M1137.14,1667.85l-4.19-0.14c1.18-72.65,14.8-142.14,40.62-206.95c21.32-53.56,46.23-107.38,83.76-138.23
					c0.9-0.74,2.22-0.61,2.96,0.29c0.73,0.9,0.61,2.22-0.29,2.96c-36.79,30.25-61.4,83.5-82.52,136.54
					C1151.86,1526.64,1138.32,1595.73,1137.14,1667.85z"/>
			</g>
		</g>
	</g>
</g>
</svg>
