<?xml version="1.0" encoding="utf-8"?>
<!-- Generator: Adobe Illustrator 23.1.0, SVG Export Plug-In . SVG Version: 6.00 Build 0)  -->
<svg version="1.1" id="Capa_1" xmlns="http://www.w3.org/2000/svg" xmlns:xlink="http://www.w3.org/1999/xlink" x="0px" y="0px"
	 viewBox="0 0 487 487" style="enable-background:new 0 0 487 487;" xml:space="preserve">
<style type="text/css">
	.st0{fill:#0B0635;}
	.st1{fill:#1AE2BC;}
	.st2{fill:#F70B32;}
</style>
<g id="Icons_14_">
	<g>
		<path class="st0" d="M153.7,314.7h-137c-9.3,0-16.7,7.5-16.7,16.7s7.5,16.7,16.7,16.7h137c9.2,0,16.7-7.5,16.7-16.7
			C170.5,322.2,163,314.7,153.7,314.7z"/>
		<path class="st1" d="M170.5,247.8H66.9c-9.2,0-16.7,7.5-16.7,16.7c0,9.2,7.5,16.7,16.7,16.7h103.5c9.3,0,16.7-7.5,16.7-16.7
			C187.2,255.3,179.7,247.8,170.5,247.8z"/>
		<path class="st2" d="M203.9,197.6c0-9.2-7.5-16.7-16.7-16.7h-70.1c-9.3,0-16.7,7.5-16.7,16.7s7.5,16.7,16.7,16.7h70.1
			C196.4,214.3,203.9,206.8,203.9,197.6z"/>
		<path class="st0" d="M478.5,153.3c-6.8-8-16.7-12.5-27.2-12.5H259.5c-17.7,0-32.6,12.7-35.3,30.2l-27.5,176
			c-1.6,10.3,1.4,20.8,8.2,28.7c6.8,8,16.7,12.5,27.2,12.5h191.8c17.7,0,32.6-12.7,35.3-30.2l27.5-176
			C488.2,171.7,485.3,161.2,478.5,153.3z M426,352.9c-0.2,1.1-1.1,2-2.3,2H231.9c-0.7,0-1.3-0.3-1.8-0.8c-0.4-0.5-0.6-1.2-0.5-1.9
			l27.5-176c0.2-1.1,1.1-2,2.3-2h61.8l-8,43.3c-0.6,3.3,0.3,6.6,2.4,9.2c2.1,2.6,5.3,4,8.6,4h38.9c5.4,0,10-3.8,11-9.1l8.8-47.4
			h68.3c0.7,0,1.3,0.3,1.8,0.8c0.4,0.5,0.6,1.2,0.5,1.9L426,352.9z"/>
	</g>
</g>
</svg>
