<?xml version="1.0" encoding="utf-8"?>
<svg id="master-artboard" viewBox="0 0 1400 980" version="1.1" xmlns="http://www.w3.org/2000/svg" x="0px" y="0px" style="enable-background:new 0 0 1400 980;" width="1400px" height="980px">

<metadata><!--?xpacket begin="﻿" id="W5M0MpCehiHzreSzNTczkc9d"?-->

                                                                                                    
                                                                                                    
                                                                                                    
                                                                                                    
                                                                                                    
                                                                                                    
                                                                                                    
                                                                                                    
                                                                                                    
                                                                                                    
                                                                                                    
                                                                                                    
                                                                                                    
                                                                                                    
                                                                                                    
                                                                                                    
                                                                                                    
                                                                                                    
                                                                                                    
                                                                                                    
                           
<!--?xpacket end="w"?-->
	</metadata>
<path d="M 0 0 H 1400 V 980 H 0 V 0 Z" class="st0" style="fill: rgb(211, 202, 225); fill-opacity: 0;" transform="matrix(0.0005545275863326132, 0, 0, 0.0005545275863326132, 780.8350830078125, 258.4127197265625)"/>
<path class="st1" d="M1225.1,285.3L1225.1,285.3c0-23.6-19.2-42.8-42.8-42.8h-155.1H900.3H587.2c-87.1,0-157.8,70.6-157.8,157.8&#10;&#9;v71.3c0,15.2-12.3,27.5-27.5,27.5H216.8c-9.6,0-17.5,7.8-17.5,17.5l0,0c0,9.6,7.8,17.5,17.5,17.5h250.3c11.3,0,20.5,9.2,20.5,20.5v0&#10;&#9;c0,11.3-9.2,20.5-20.5,20.5H289.8c-7,0-12.8,5.7-12.8,12.8v0c0,7,5.7,12.8,12.8,12.8h114c14.2,0,25.7,11.5,25.7,25.7l0,0&#10;&#9;c0,14.2-11.5,25.7-25.7,25.7h-186c-23.6,0-42.8,19.2-42.8,42.8v0c0,23.6,19.2,42.8,42.8,42.8h211.7h70.3h369.7&#10;&#9;c87.1,0,157.8-70.6,157.8-157.8v-71.3c0-15.2,12.3-27.5,27.5-27.5h128.5c9.6,0,17.5-7.8,17.5-17.5v0c0-9.6-7.8-17.5-17.5-17.5H989.5&#10;&#9;c-11.3,0-20.5-9.2-20.5-20.5v0c0-11.3,9.2-20.5,20.5-20.5h120.7c7,0,12.8-5.7,12.8-12.8v0c0-7-5.7-12.8-12.8-12.8h-57.4&#10;&#9;c-14.2,0-25.7-11.5-25.7-25.7v0c0-14.2,11.5-25.7,25.7-25.7h129.4C1205.9,328.1,1225.1,308.9,1225.1,285.3z" style="fill: rgb(140, 110, 168); fill-opacity: 0.7;"/>
<path class="st2" d="M1106.8,281.3H1090v-0.6c0-4.3-3.5-7.8-7.8-7.8c-2.4,0-4.5,1.1-5.9,2.7v-0.1c0-9-7.3-16.3-16.3-16.3&#10;&#9;c-9,0-16.3,7.3-16.3,16.3v5.8h-2.7c-3,0-5.4,2.4-5.4,5.4c0,3,2.4,5.4,5.4,5.4h65.8c3,0,5.4-2.4,5.4-5.4&#10;&#9;C1112.2,283.7,1109.8,281.3,1106.8,281.3z" style="fill: rgb(157, 138, 183);"/>
<path class="st2" d="M805.8,319.3H817v-0.4c0-2.9,2.4-5.3,5.3-5.3c1.6,0,3,0.7,4,1.8v-0.1c0-6,4.9-10.9,10.9-10.9&#10;&#9;c6,0,10.9,4.9,10.9,10.9v3.9h1.8c2,0,3.6,1.6,3.6,3.6s-1.6,3.6-3.6,3.6h-44.2c-2,0-3.6-1.6-3.6-3.6S803.8,319.3,805.8,319.3z" style="fill: rgb(157, 138, 183);"/>
<path class="st2" d="M629.5,281.8h-2.7V278c0-6.6-5.3-11.9-11.9-11.9c-3,0-5.6,1.1-7.7,2.9c-1.3-8.8-8.8-15.5-18-15.5&#10;&#9;c-10,0-18.2,8.1-18.2,18.2v3.1c-1.7-1.9-4.1-3.1-6.8-3.1c-5,0-9.1,4.1-9.1,9.1v1h-4.7c-4.4,0-8,3.6-8,8c0,4.4,3.6,8,8,8h79&#10;&#9;c4.4,0,8-3.6,8-8C637.5,285.4,633.9,281.8,629.5,281.8z" style="fill: rgb(157, 138, 183);"/>
<g>
	<path class="st3" d="M1183.2,480.9c9.6,0,17.5-7.8,17.5-17.5c0-9.6-7.8-17.5-17.5-17.5H989.5c-11.3,0-20.5-9.2-20.5-20.5&#10;&#9;&#9;c0-11.3,9.2-20.5,20.5-20.5h63.1v-25.5c-14.1-0.1-25.4-11.6-25.4-25.7v0c0-14.1,11.4-25.5,25.4-25.7v-22h-98.2V425h-26.7v-43.4&#10;&#9;&#9;h-15.6v-24.1h-13.6v-8.9h-17.9v-17.3h-19.3v17.3h-17.9v8.9h-13.6v24.1h-15.6V425h-60.5v-99.9v-31.3h-44.6v31.3h-53.5v69.9h-68.6&#10;&#9;&#9;v-46.5H489V425h-59.5v46.6c0,15.2-12.3,27.5-27.5,27.5H216.8c-9.6,0-17.5,7.8-17.5,17.5v0c0,9.6,7.8,17.5,17.5,17.5h250.3&#10;&#9;&#9;c11.3,0,20.5,9.2,20.5,20.5v0c0,10.3-7.6,18.8-17.5,20.2h20.4h11.3h66.9h20h68.6h9.6h43.9h41.6h3h60.5h113.3H956h71.2v-66.3&#10;&#9;&#9;c0-15.2,12.3-27.5,27.5-27.5H1183.2z" style="fill: rgb(111, 87, 140);"/>
	<path d="M 965.200012 315.5 H 974.300013 V 324.6 H 965.200012 V 315.5 Z" class="st1" style="fill: rgb(140, 110, 168);"/>
	<path d="M 980.799988 315.5 H 989.899988 V 324.6 H 980.799988 V 315.5 Z" class="st1" style="fill: rgb(140, 110, 168);"/>
	<path d="M 996.400024 315.5 H 1005.500025 V 324.6 H 996.400024 V 315.5 Z" class="st1" style="fill: rgb(140, 110, 168);"/>
	<path d="M 965.200012 330.399994 H 974.300013 V 339.499994 H 965.200012 V 330.399994 Z" class="st1" style="fill: rgb(140, 110, 168);"/>
	<path d="M 996.400024 330.399994 H 1005.500025 V 339.499994 H 996.400024 V 330.399994 Z" class="st1" style="fill: rgb(140, 110, 168);"/>
	<path d="M 965.200012 345.299988 H 974.300013 V 354.399988 H 965.200012 V 345.299988 Z" class="st1" style="fill: rgb(140, 110, 168);"/>
	<path d="M 1012 315.5 H 1021.1 V 324.6 H 1012 V 315.5 Z" class="st1" style="fill: rgb(140, 110, 168);"/>
	<path d="M 914.799988 388.700012 H 921.799988 V 395.700012 H 914.799988 V 388.700012 Z" class="st1" style="fill: rgb(140, 110, 168);"/>
	<path d="M 901.700012 388.700012 H 908.700012 V 395.700012 H 901.700012 V 388.700012 Z" class="st1" style="fill: rgb(140, 110, 168);"/>
	<path d="M 888.5 388.700012 H 895.5 V 395.700012 H 888.5 V 388.700012 Z" class="st1" style="fill: rgb(140, 110, 168);"/>
	<path d="M 914.799988 399.799988 H 921.799988 V 406.799988 H 914.799988 V 399.799988 Z" class="st1" style="fill: rgb(140, 110, 168);"/>
	<path d="M 901.700012 399.799988 H 908.700012 V 406.799988 H 901.700012 V 399.799988 Z" class="st1" style="fill: rgb(140, 110, 168);"/>
	<path d="M 888.5 399.799988 H 895.5 V 406.799988 H 888.5 V 399.799988 Z" class="st1" style="fill: rgb(140, 110, 168);"/>
	<path d="M 901.700012 410.799988 H 908.700012 V 417.799988 H 901.700012 V 410.799988 Z" class="st1" style="fill: rgb(140, 110, 168);"/>
	<path d="M 862.099976 388.700012 H 869.099976 V 395.700012 H 862.099976 V 388.700012 Z" class="st1" style="fill: rgb(140, 110, 168);"/>
	<path d="M 661.799988 332.700012 H 668.399988 V 339.300012 H 661.799988 V 332.700012 Z" class="st1" style="fill: rgb(140, 110, 168);"/>
	<path d="M 674 332.700012 H 680.6 V 339.300012 H 674 V 332.700012 Z" class="st1" style="fill: rgb(140, 110, 168);"/>
	<path d="M 686.200012 332.700012 H 692.800012 V 339.300012 H 686.200012 V 332.700012 Z" class="st1" style="fill: rgb(140, 110, 168);"/>
	<path d="M 698.400024 332.700012 H 705.000024 V 339.300012 H 698.400024 V 332.700012 Z" class="st1" style="fill: rgb(140, 110, 168);"/>
	<path d="M 710.599976 332.700012 H 717.199975 V 339.300012 H 710.599976 V 332.700012 Z" class="st1" style="fill: rgb(140, 110, 168);"/>
	<path d="M 661.799988 345.100006 H 668.399988 V 351.700006 H 661.799988 V 345.100006 Z" class="st1" style="fill: rgb(140, 110, 168);"/>
	<path d="M 686.200012 345.100006 H 692.800012 V 351.700006 H 686.200012 V 345.100006 Z" class="st1" style="fill: rgb(140, 110, 168);"/>
	<path d="M 686.200012 357.5 H 692.800012 V 364.1 H 686.200012 V 357.5 Z" class="st1" style="fill: rgb(140, 110, 168);"/>
	<path d="M 710.599976 357.5 H 717.199975 V 364.1 H 710.599976 V 357.5 Z" class="st1" style="fill: rgb(140, 110, 168);"/>
	<path d="M 661.799988 369.799988 H 668.399988 V 376.399988 H 661.799988 V 369.799988 Z" class="st1" style="fill: rgb(140, 110, 168);"/>
	<path d="M 674 369.799988 H 680.6 V 376.399988 H 674 V 369.799988 Z" class="st1" style="fill: rgb(140, 110, 168);"/>
	<path d="M 698.400024 369.799988 H 705.000024 V 376.399988 H 698.400024 V 369.799988 Z" class="st1" style="fill: rgb(140, 110, 168);"/>
</g>
<g>
	<g>
		<path class="st4" d="M509.3,634.9h-16c-3.8,0-6.9-3.1-6.9-6.9v-7.5h6.2v7.5c0,0.4,0.3,0.6,0.6,0.6h16V634.9z" style="fill: rgb(117, 118, 121);"/>
		<g>
			<g>
				<path class="st5" d="M361.1,616.8v46.1c0,4.8,3.9,8.7,8.7,8.7h32.6c4.8,0,8.7-3.9,8.7-8.7v-46.1H361.1z" style="fill: rgb(83, 97, 110);"/>
				<path class="st6" d="M411.2,647.8h-50.9c-7,0-12.6-5.6-12.6-12.6v-9.8h76.1v9.8C423.8,642.1,418.2,647.8,411.2,647.8z" style="fill: rgb(209, 211, 212);"/>
			</g>
			<g>
				<path class="st5" d="M545.9,616.8v46.1c0,4.8,3.9,8.7,8.7,8.7h32.6c4.8,0,8.7-3.9,8.7-8.7v-46.1H545.9z" style="fill: rgb(83, 97, 110);"/>
				<path class="st6" d="M596,647.8h-50.9c-7,0-12.6-5.6-12.6-12.6v-9.8h76.1v9.8C608.6,642.1,602.9,647.8,596,647.8z" style="fill: rgb(209, 211, 212);"/>
			</g>
		</g>
		<path class="st7" d="M619.7,587.1H336.6V296.7c0-13,10.5-23.5,23.5-23.5h236.1c13,0,23.5,10.5,23.5,23.5V587.1z" style="fill: rgb(228, 229, 230);"/>
		<path d="M 360.100006 306 H 596.200012 V 566.700012 H 360.100006 V 306 Z" class="st5" style="fill: rgb(83, 97, 110);"/>
		<g>
			<g>
				<path class="st8" d="M389.8,284.1H369c-3.3,0-6,2.7-6,6c0,3.3,2.7,6,6,6h20.7c3.3,0,6-2.7,6-6&#10;&#9;&#9;&#9;&#9;&#9;C395.8,286.8,393.1,284.1,389.8,284.1z" style="fill: rgb(248, 156, 91);"/>
				<path d="M 371.399988 288 A 1.6 1.6 0 0 1 369.799988 289.6 A 1.6 1.6 0 0 1 368.199988 288 A 1.6 1.6 0 0 1 369.799988 286.4 A 1.6 1.6 0 0 1 371.399988 288 Z" class="st9" style="fill: rgb(254, 228, 205);"/>
				<path class="st9" d="M379.9,286.3h-5c-0.9,0-1.6,0.7-1.6,1.6c0,0.9,0.7,1.6,1.6,1.6h5c0.9,0,1.6-0.7,1.6-1.6&#10;&#9;&#9;&#9;&#9;&#9;C381.6,287.1,380.8,286.3,379.9,286.3z" style="fill: rgb(254, 228, 205);"/>
			</g>
			<g>
				<path class="st8" d="M587.2,284.1h-20.7c-3.3,0-6,2.7-6,6c0,3.3,2.7,6,6,6h20.7c3.3,0,6-2.7,6-6&#10;&#9;&#9;&#9;&#9;&#9;C593.3,286.8,590.6,284.1,587.2,284.1z" style="fill: rgb(248, 156, 91);"/>
				<path d="M 568.899988 288 A 1.6 1.6 0 0 1 567.299988 289.6 A 1.6 1.6 0 0 1 565.699988 288 A 1.6 1.6 0 0 1 567.299988 286.4 A 1.6 1.6 0 0 1 568.899988 288 Z" class="st9" style="fill: rgb(254, 228, 205);"/>
				<path class="st9" d="M577.4,286.3h-5c-0.9,0-1.6,0.7-1.6,1.6c0,0.9,0.7,1.6,1.6,1.6h5c0.9,0,1.6-0.7,1.6-1.6&#10;&#9;&#9;&#9;&#9;&#9;C579,287.1,578.3,286.3,577.4,286.3z" style="fill: rgb(254, 228, 205);"/>
			</g>
		</g>
		<g>
			<g>
				<path d="M 360.100006 306 H 596.200012 V 393.800003 H 360.100006 V 306 Z" class="st10" style="fill: rgb(164, 171, 182);"/>
				<path d="M 360.100006 306 H 596.200012 V 316.5 H 360.100006 V 306 Z" class="st11" style="fill: rgb(144, 154, 167);"/>
				<path d="M 360.100006 326.5 H 596.200012 V 337 H 360.100006 V 326.5 Z" class="st11" style="fill: rgb(144, 154, 167);"/>
				<path d="M 360.100006 347 H 596.200012 V 357.5 H 360.100006 V 347 Z" class="st11" style="fill: rgb(144, 154, 167);"/>
				<path d="M 360.100006 367.399994 H 596.200012 V 377.899994 H 360.100006 V 367.399994 Z" class="st11" style="fill: rgb(144, 154, 167);"/>
			</g>
			<path class="st11" d="M491.1,389.5h-25.8c-2.2,0-4-1.8-4-4l0,0c0-2.2,1.8-4,4-4h25.8c2.2,0,4,1.8,4,4l0,0&#10;&#9;&#9;&#9;&#9;C495,387.7,493.3,389.5,491.1,389.5z" style="fill: rgb(144, 154, 167);"/>
		</g>
		<path d="M 336.600006 587.099976 H 619.700012 V 625.399975 H 336.600006 V 587.099976 Z" class="st12" style="fill: rgb(248, 248, 249);"/>
		<path class="st7" d="M433,612.1v13.3h90.3v-13.3c0-6.4-5.2-11.6-11.6-11.6h-67C438.2,600.4,433,605.6,433,612.1z" style="fill: rgb(228, 229, 230);"/>
		<path class="st13" d="M518.1,625.4h-17.6c-3.5,0-6.3,2.8-6.3,6.3c0,3.5,2.8,6.3,6.3,6.3h17.6c3.5,0,6.3-2.8,6.3-6.3&#10;&#9;&#9;&#9;C524.4,628.2,521.6,625.4,518.1,625.4z" style="fill: rgb(182, 184, 186);"/>
		<path class="st14" d="M513.4,626.8h-8.3c-2.7,0-4.9,2.2-4.9,4.9c0,2.7,2.2,4.9,4.9,4.9h8.3c2.7,0,4.9-2.2,4.9-4.9&#10;&#9;&#9;&#9;C518.3,629,516.1,626.8,513.4,626.8z" style="fill: rgb(128, 130, 133);"/>
	</g>
	<g>
		<g>
			<path class="st15" d="M369.1,487.9l0,72.3c0,3.6,2.9,6.6,6.6,6.6l38.6,0c3.6,0,6.6-2.9,6.6-6.6l0-72.3c0-3.6-2.9-6.6-6.6-6.6&#10;&#9;&#9;&#9;&#9;l-38.6,0C372,481.3,369.1,484.3,369.1,487.9z" style="fill: rgb(255, 235, 198);"/>
			<path class="st16" d="M397.7,487.9l0,72.3c0,3.6,2.9,6.6,6.6,6.6l38.6,0c3.6,0,6.6-2.9,6.6-6.6l0-72.3c0-3.6-2.9-6.6-6.6-6.6&#10;&#9;&#9;&#9;&#9;l-38.6,0C400.6,481.3,397.7,484.3,397.7,487.9z" style="fill: rgb(240, 212, 154);"/>
			<path d="M 420.799988 481.299988 H 426.299988 V 500.099987 H 420.799988 V 481.299988 Z" class="st17" style="fill: rgb(237, 179, 116);"/>
		</g>
		<g>
			<g>
				<path class="st18" d="M435.5,554.2l-2.6-3c-0.1-0.1-0.2-0.1-0.3,0l-2.6,3c-0.1,0.1,0,0.4,0.2,0.4l1.1,0l0,4.3l3.1,0l0-4.3l1.1,0&#10;&#9;&#9;&#9;&#9;&#9;C435.5,554.6,435.6,554.4,435.5,554.2z" style="fill: rgb(175, 155, 132);"/>
				<path class="st18" d="M442.4,554.2l-2.6-3c-0.1-0.1-0.2-0.1-0.3,0l-2.6,3c-0.1,0.1,0,0.4,0.2,0.4l1.1,0l0,4.3l3.1,0l0-4.3l1.1,0&#10;&#9;&#9;&#9;&#9;&#9;C442.4,554.6,442.5,554.4,442.4,554.2z" style="fill: rgb(175, 155, 132);"/>
			</g>
			<path class="st18" d="M442.2,561.9l-12,0c-1.3,0-2.3-1-2.3-2.3l0-9.1c0-1.3,1-2.3,2.3-2.3l12,0c1.3,0,2.3,1,2.3,2.3l0,9.1&#10;&#9;&#9;&#9;&#9;C444.5,560.9,443.4,561.9,442.2,561.9z M430.1,548.6c-1,0-1.9,0.8-1.9,1.9l0,9.1c0,1,0.8,1.9,1.9,1.9l12,0c1,0,1.9-0.8,1.9-1.9&#10;&#9;&#9;&#9;&#9;l0-9.1c0-1-0.8-1.9-1.9-1.9L430.1,548.6z" style="fill: rgb(175, 155, 132);"/>
		</g>
		<g>
			<path class="st19" d="M388.7,505.9l-11.6,0c-1,0-1.9,0.9-1.9,1.9l0,3.7c0,1,0.9,1.9,1.9,1.9l11.6,0c1,0,1.9-0.9,1.9-1.9l0-3.7&#10;&#9;&#9;&#9;&#9;C390.5,506.8,389.7,505.9,388.7,505.9z" style="fill: rgb(255, 254, 249);"/>
			<g>
				<path class="st20" d="M376.9,508.3L376.9,508.3c0,0.2,0.2,0.4,0.4,0.4l11.2,0c0.2,0,0.4-0.2,0.4-0.4l0,0c0-0.2-0.2-0.4-0.4-0.4&#10;&#9;&#9;&#9;&#9;&#9;l-11.2,0C377,507.9,376.9,508.1,376.9,508.3z" style="fill: rgb(154, 162, 174);"/>
				<path class="st20" d="M376.9,511L376.9,511c0,0.2,0.2,0.4,0.4,0.4l11.2,0c0.2,0,0.4-0.2,0.4-0.4l0,0c0-0.2-0.2-0.4-0.4-0.4&#10;&#9;&#9;&#9;&#9;&#9;l-11.2,0C377,510.6,376.9,510.8,376.9,511z" style="fill: rgb(154, 162, 174);"/>
			</g>
		</g>
	</g>
	<g>
		<g>
			<path class="st21" d="M466.7,457l0.1,100.6c0,5,4.1,9.1,9.1,9.1l53.8,0c5,0,9.1-4.1,9.1-9.1L538.7,457c0-5-4.1-9.1-9.1-9.1&#10;&#9;&#9;&#9;&#9;l-53.8,0C470.7,447.9,466.7,452,466.7,457z" style="fill: rgb(221, 181, 142);"/>
			<path class="st22" d="M506.4,457l0.1,100.6c0,5,4.1,9.1,9.1,9.1l53.8,0c5,0,9.1-4.1,9.1-9.1L578.5,457c0-5-4.1-9.1-9.1-9.1&#10;&#9;&#9;&#9;&#9;l-53.8,0C510.5,447.9,506.4,451.9,506.4,457z" style="fill: rgb(175, 137, 105);"/>
			<path d="M 538.599976 447.799988 H 546.199975 V 473.899988 H 538.599976 V 447.799988 Z" class="st17" style="fill: rgb(237, 179, 116);"/>
		</g>
		<g>
			<g>
				<path class="st23" d="M559,549.3l-3.6-4.1c-0.1-0.1-0.3-0.1-0.5,0l-3.6,4.1c-0.2,0.2,0,0.5,0.2,0.5l1.5,0l0,6l4.3,0l0-6l1.5,0&#10;&#9;&#9;&#9;&#9;&#9;C559.1,549.8,559.2,549.5,559,549.3z" style="fill: rgb(135, 101, 76);"/>
				<path class="st23" d="M568.6,549.3l-3.6-4.1c-0.1-0.1-0.3-0.1-0.5,0l-3.6,4.1c-0.2,0.2,0,0.5,0.2,0.5l1.5,0l0,6l4.3,0l0-6l1.5,0&#10;&#9;&#9;&#9;&#9;&#9;C568.6,549.8,568.8,549.5,568.6,549.3z" style="fill: rgb(135, 101, 76);"/>
			</g>
			<path class="st23" d="M568.3,560l-16.7,0c-1.7,0-3.2-1.4-3.2-3.2l0-12.7c0-1.7,1.4-3.2,3.2-3.2l16.7,0c1.7,0,3.2,1.4,3.2,3.2&#10;&#9;&#9;&#9;&#9;l0,12.7C571.5,558.6,570.1,560,568.3,560z M551.6,541.5c-1.4,0-2.6,1.2-2.6,2.6l0,12.7c0,1.4,1.2,2.6,2.6,2.6l16.7,0&#10;&#9;&#9;&#9;&#9;c1.4,0,2.6-1.2,2.6-2.6l0-12.7c0-1.4-1.2-2.6-2.6-2.6L551.6,541.5z" style="fill: rgb(135, 101, 76);"/>
		</g>
		<g>
			<path class="st19" d="M493.8,482.1l-16.2,0c-1.5,0-2.6,1.2-2.6,2.6l0,5.1c0,1.5,1.2,2.6,2.6,2.6l16.2,0c1.5,0,2.6-1.2,2.6-2.6&#10;&#9;&#9;&#9;&#9;l0-5.1C496.5,483.3,495.3,482.1,493.8,482.1z" style="fill: rgb(255, 254, 249);"/>
			<g>
				<path class="st20" d="M477.4,485.4L477.4,485.4c0,0.3,0.2,0.5,0.5,0.5l15.6,0c0.3,0,0.5-0.2,0.5-0.5l0,0c0-0.3-0.2-0.5-0.5-0.5&#10;&#9;&#9;&#9;&#9;&#9;l-15.6,0C477.7,484.9,477.4,485.1,477.4,485.4z" style="fill: rgb(154, 162, 174);"/>
				<path class="st20" d="M477.4,489.2L477.4,489.2c0,0.3,0.2,0.5,0.5,0.5l15.6,0c0.3,0,0.5-0.2,0.5-0.5l0,0c0-0.3-0.2-0.5-0.5-0.5&#10;&#9;&#9;&#9;&#9;&#9;l-15.6,0C477.7,488.6,477.4,488.9,477.4,489.2z" style="fill: rgb(154, 162, 174);"/>
			</g>
		</g>
	</g>
	<g>
		<path class="st15" d="M439.6,518l0,41.3c0,4.1,3.3,7.3,7.3,7.3l45.2,0c4.1,0,7.3-3.3,7.3-7.3l0-41.3c0-4.1-3.3-7.3-7.3-7.3&#10;&#9;&#9;&#9;l-45.2,0C442.9,510.7,439.6,514,439.6,518z" style="fill: rgb(255, 235, 198);"/>
		<path class="st16" d="M475.2,518l0,41.3c0,4.1,3.3,7.3,7.3,7.3l30.1,0c4.1,0,7.3-3.3,7.3-7.3l0-41.3c0-4.1-3.3-7.3-7.3-7.3&#10;&#9;&#9;&#9;l-30.1,0C478.5,510.7,475.2,514,475.2,518z" style="fill: rgb(240, 212, 154);"/>
		<path d="M 494.200012 510.700012 H 501.000012 V 520.300013 H 494.200012 V 510.700012 Z" class="st17" style="fill: rgb(237, 179, 116);"/>
		<g>
			<path d="M 504 528.9000244140625 L 489.70001220703125 533.2000122070312 L 492.70001220703125 543 L 511.20001220703125 537.4000244140625 L 509.5 531.9000244140625 Z" class="st24" style="fill: rgb(255, 250, 190);"/>
			<path d="M 505.29998779296875 533.0999755859375 L 504 528.9000244140625 L 509.5 531.9000244140625 Z" class="st19" style="fill: rgb(255, 254, 249);"/>
		</g>
		<g>
			<path class="st25" d="M466.2,556.7l-2.1-2.4c-0.1-0.1-0.2-0.1-0.3,0l-2.1,2.4c-0.1,0.1,0,0.3,0.1,0.3l0.9,0l0,3.5l2.5,0l0-3.5&#10;&#9;&#9;&#9;&#9;l0.9,0C466.2,557,466.3,556.8,466.2,556.7z" style="fill: rgb(211, 191, 165);"/>
			<path class="st25" d="M471.8,556.7l-2.1-2.4c-0.1-0.1-0.2-0.1-0.3,0l-2.1,2.4c-0.1,0.1,0,0.3,0.1,0.3l0.9,0l0,3.5l2.5,0l0-3.5&#10;&#9;&#9;&#9;&#9;l0.9,0C471.8,557,471.9,556.8,471.8,556.7z" style="fill: rgb(211, 191, 165);"/>
		</g>
	</g>
</g>
<g>
	<g>
		<path class="st22" d="M1022.1,582.7h-74.9c-3,0-5-3.3-3.5-5.9l9.1-16.7c2.3-4.2,6.7-6.8,11.5-6.8h73.9L1022.1,582.7z" style="fill: rgb(175, 137, 105);"/>
		<path class="st21" d="M956.5,562.7v138.1c0,5.2,4.2,9.4,9.4,9.4h55.3c5.2,0,9.4-4.2,9.4-9.4V562.7c0-5.2-4.2-9.4-9.4-9.4h-55.3&#10;&#9;&#9;&#9;C960.7,553.3,956.5,557.5,956.5,562.7z" style="fill: rgb(221, 181, 142);"/>
		<path class="st22" d="M997.4,562.7v138.1c0,5.2,4.2,9.4,9.4,9.4h75.2c5.2,0,9.4-4.2,9.4-9.4V562.7c0-5.2-4.2-9.4-9.4-9.4h-75.2&#10;&#9;&#9;&#9;C1001.6,553.3,997.4,557.5,997.4,562.7z" style="fill: rgb(175, 137, 105);"/>
		<path d="M 1030.599976 553.299988 H 1038.399976 V 568.599988 H 1030.599976 V 553.299988 Z" class="st17" style="fill: rgb(237, 179, 116);"/>
		<path class="st21" d="M1097.1,570.4l-5.8-11.5c-1.7-3.4-5.2-5.6-9.1-5.6h-76.5l0,0.1c-1.3,0.1-2.5,0.5-3.6,1.1&#10;&#9;&#9;&#9;c2.1-0.7,4.1-0.1,4.7,1.1l0,0l10.5,20.9c1.1,2.3,3.5,3.7,6,3.7h67.7C1096.1,580.1,1099.4,574.9,1097.1,570.4z" style="fill: rgb(221, 181, 142);"/>
	</g>
	<path class="st26" d="M1033.5,686.2v6.3c0,2,1.4,3.7,3.3,4v3.1h-1.4v1.3h4.4v-1.3h-1.4v-3.1c1.9-0.4,3.3-2,3.3-4v-6.3H1033.5z" style="fill: rgb(132, 98, 74);"/>
	<path class="st26" d="M1055.7,693.4v-2.2c0-2.3-1.7-4.2-3.9-4.5v-0.6h-1.2v0.6c-2.2,0.3-3.9,2.2-3.9,4.5v2.2h3.9v5.8&#10;&#9;&#9;c0,0.9,0.7,1.6,1.6,1.6s1.6-0.7,1.6-1.6v-1.8h-1.2v1.8c0,0.3-0.2,0.5-0.5,0.5s-0.5-0.2-0.5-0.5v-5.8H1055.7z" style="fill: rgb(132, 98, 74);"/>
	<g>
		<g>
			<path class="st26" d="M1072,692.3l-3.7-4.2c-0.1-0.1-0.3-0.1-0.5,0l-3.7,4.2c-0.2,0.2,0,0.5,0.2,0.5h1.5v6.2h4.4v-6.2h1.5&#10;&#9;&#9;&#9;&#9;C1072.1,692.9,1072.2,692.5,1072,692.3z" style="fill: rgb(132, 98, 74);"/>
			<path class="st26" d="M1081.9,692.3l-3.7-4.2c-0.1-0.1-0.3-0.1-0.5,0l-3.7,4.2c-0.2,0.2,0,0.5,0.2,0.5h1.5v6.2h4.4v-6.2h1.5&#10;&#9;&#9;&#9;&#9;C1081.9,692.9,1082.1,692.5,1081.9,692.3z" style="fill: rgb(132, 98, 74);"/>
		</g>
		<path class="st26" d="M1081.6,703.3h-17.2c-1.8,0-3.3-1.5-3.3-3.3V687c0-1.8,1.5-3.3,3.3-3.3h17.2c1.8,0,3.3,1.5,3.3,3.3v13.1&#10;&#9;&#9;&#9;C1084.9,701.9,1083.4,703.3,1081.6,703.3z M1064.4,684.3c-1.5,0-2.7,1.2-2.7,2.7v13.1c0,1.5,1.2,2.7,2.7,2.7h17.2&#10;&#9;&#9;&#9;c1.5,0,2.7-1.2,2.7-2.7V687c0-1.5-1.2-2.7-2.7-2.7H1064.4z" style="fill: rgb(132, 98, 74);"/>
	</g>
	<g>
		<path class="st19" d="M984.8,584.5h-16.6c-1.5,0-2.7,1.2-2.7,2.7v5.3c0,1.5,1.2,2.7,2.7,2.7h16.6c1.5,0,2.7-1.2,2.7-2.7v-5.3&#10;&#9;&#9;&#9;C987.5,585.7,986.3,584.5,984.8,584.5z" style="fill: rgb(255, 254, 249);"/>
		<g>
			<path class="st20" d="M967.9,587.9L967.9,587.9c0,0.3,0.2,0.5,0.5,0.5h16c0.3,0,0.5-0.2,0.5-0.5l0,0c0-0.3-0.2-0.5-0.5-0.5h-16&#10;&#9;&#9;&#9;&#9;C968.1,587.4,967.9,587.6,967.9,587.9z" style="fill: rgb(154, 162, 174);"/>
			<path class="st20" d="M967.9,591.7L967.9,591.7c0,0.3,0.2,0.5,0.5,0.5h16c0.3,0,0.5-0.2,0.5-0.5l0,0c0-0.3-0.2-0.5-0.5-0.5h-16&#10;&#9;&#9;&#9;&#9;C968.1,591.2,967.9,591.4,967.9,591.7z" style="fill: rgb(154, 162, 174);"/>
		</g>
	</g>
</g>
<g>
	<path class="st15" d="M913.2,645.4l0,62.6c0,6.1,5,11.1,11.1,11.1l68.4,0c6.1,0,11.1-5,11.1-11.1l0-62.6c0-6.1-5-11.1-11.1-11.1&#10;&#9;&#9;l-68.4,0C918.2,634.3,913.2,639.3,913.2,645.4z" style="fill: rgb(255, 235, 198);"/>
	<path class="st16" d="M967.1,645.4l0,62.6c0,6.1,5,11.1,11.1,11.1l45.7,0c6.1,0,11.1-5,11.1-11.1l0-62.6c0-6.1-5-11.1-11.1-11.1&#10;&#9;&#9;l-45.7,0C972.1,634.3,967.1,639.3,967.1,645.4z" style="fill: rgb(240, 212, 154);"/>
	<path d="M 995.900024 634.299988 H 1006.200025 V 648.799988 H 995.900024 V 634.299988 Z" class="st17" style="fill: rgb(237, 179, 116);"/>
	<g>
		<path d="M 1010.7000122070312 661.9000244140625 L 989.0999755859375 668.4000244140625 L 993.5999755859375 683.2000122070312 L 1021.7000122070312 674.7000122070312 L 1019.0999755859375 666.4000244140625 Z" class="st24" style="fill: rgb(255, 250, 190);"/>
		<path d="M 1012.7000122070312 668.2999877929688 L 1010.7000122070312 661.9000244140625 L 1019.0999755859375 666.4000244140625 Z" class="st19" style="fill: rgb(255, 254, 249);"/>
	</g>
	<g>
		<path class="st25" d="M953.5,704l-3.2-3.7c-0.1-0.1-0.3-0.1-0.4,0l-3.2,3.7c-0.2,0.2,0,0.4,0.2,0.4l1.3,0l0,5.4l3.8,0l0-5.4l1.3,0&#10;&#9;&#9;&#9;C953.5,704.4,953.7,704.2,953.5,704z" style="fill: rgb(211, 191, 165);"/>
		<path class="st25" d="M962,704l-3.2-3.7c-0.1-0.1-0.3-0.1-0.4,0l-3.2,3.7c-0.2,0.2,0,0.4,0.2,0.4l1.3,0l0,5.4l3.8,0l0-5.4l1.3,0&#10;&#9;&#9;&#9;C962.1,704.4,962.2,704.2,962,704z" style="fill: rgb(211, 191, 165);"/>
	</g>
</g>
<g>
	<path class="st27" d="M806,730.5c-3.3,0-6-2.7-6-6l0-19.8c0-3.3,2.7-6,6-6c0,0,0,0,0,0c3.3,0,6,2.7,6,6l0,19.8&#10;&#9;&#9;C811.9,727.9,809.3,730.5,806,730.5C806,730.5,806,730.5,806,730.5z" style="fill: rgb(77, 148, 188);"/>
	<path class="st27" d="M774.5,730.6c-3.3,0-6-2.7-6-6l0-19.8c0-3.3,2.7-6,6-6c0,0,0,0,0,0c3.3,0,6,2.7,6,6l0,19.8&#10;&#9;&#9;C780.5,727.9,777.8,730.6,774.5,730.6C774.5,730.6,774.5,730.6,774.5,730.6z" style="fill: rgb(77, 148, 188);"/>
	<g>
		<path class="st28" d="M949.6,464.5l-40.7,0l0,20.8l40.7,0c5.8,0,10.4-4.7,10.4-10.4C960,469.1,955.4,464.5,949.6,464.5z" style="fill: rgb(109, 126, 143);"/>
		<path d="M 919.300024 474.899994 A 10.4 10.4 0 0 1 908.900024 485.299994 A 10.4 10.4 0 0 1 898.500025 474.899994 A 10.4 10.4 0 0 1 908.900024 464.499994 A 10.4 10.4 0 0 1 919.300024 474.899994 Z" class="st29" style="fill: rgb(88, 103, 117);"/>
		<path class="st27" d="M765.6,710.8C765.6,710.8,765.6,710.8,765.6,710.8c-3.3,0-6-2.7-6-6c0-2.3,1.6-5.8,6-6v0c0,0,0.1,0,0.1,0&#10;&#9;&#9;&#9;c0.1,0,0.1,0,0.2,0l99.5-0.1l-0.1-209.5c0-11.2,9.1-20.4,20.4-20.4l20.7,0c0,0,0,0,0,0c3.3,0,6,2.7,6,6c0,3.3-2.7,6-6,6l-20.7,0&#10;&#9;&#9;&#9;c-4.7,0-8.4,3.8-8.4,8.5l0.1,215.4c0,1.6-0.6,3.1-1.7,4.2c-1.1,1.1-2.6,1.7-4.2,1.7C871.3,710.7,768.7,710.8,765.6,710.8&#10;&#9;&#9;&#9;C765.6,710.8,765.6,710.8,765.6,710.8z" style="fill: rgb(77, 148, 188);"/>
	</g>
	<g>
		<path class="st29" d="M887.9,704.8c0-10.8-6.9-20.1-16.6-23.5l0-1.5l-8.4,0c-13.8,0-25,11.2-25,25s11.2,25,25,25l8.4,0l0-1.5&#10;&#9;&#9;&#9;C881,724.8,887.9,715.6,887.9,704.8z" style="fill: rgb(88, 103, 117);"/>
		<path d="M 896.299988 704.799988 A 25 25 0 0 1 871.299988 729.799988 A 25 25 0 0 1 846.299988 704.799988 A 25 25 0 0 1 871.299988 679.799988 A 25 25 0 0 1 896.299988 704.799988 Z" class="st28" style="fill: rgb(109, 126, 143);"/>
		<path d="M 881.699987 704.799988 A 10.4 10.4 0 0 1 871.299988 715.199987 A 10.4 10.4 0 0 1 860.899988 704.799988 A 10.4 10.4 0 0 1 871.299988 694.399988 A 10.4 10.4 0 0 1 881.699987 704.799988 Z" class="st30" style="fill: rgb(255, 253, 235);"/>
	</g>
	<g>
		<g>
			<path class="st15" d="M766.8,551.4l0.1,135.6c0,6.8,5.5,12.3,12.3,12.3l72.5,0c6.8,0,12.3-5.5,12.3-12.3L864,551.3&#10;&#9;&#9;&#9;&#9;c0-6.8-5.5-12.3-12.3-12.3l-72.5,0C772.4,539.1,766.8,544.6,766.8,551.4z" style="fill: rgb(255, 235, 198);"/>
			<path class="st16" d="M820.5,551.4l0.1,135.6c0,6.8,5.5,12.3,12.3,12.3l72.5,0c6.8,0,12.3-5.5,12.3-12.3l-0.1-135.6&#10;&#9;&#9;&#9;&#9;c0-6.8-5.5-12.3-12.3-12.3l-72.5,0C826,539,820.5,544.6,820.5,551.4z" style="fill: rgb(240, 212, 154);"/>
			<path d="M 863.900024 539 H 874.200025 V 574.200001 H 863.900024 V 539 Z" class="st17" style="fill: rgb(237, 179, 116);"/>
		</g>
		<g>
			<g>
				<path class="st18" d="M891.4,675.8l-4.9-5.5c-0.2-0.2-0.5-0.2-0.6,0l-4.9,5.6c-0.2,0.3,0,0.7,0.3,0.7l2,0l0,8.1l5.7,0l0-8.1l2,0&#10;&#9;&#9;&#9;&#9;&#9;C891.4,676.5,891.6,676.1,891.4,675.8z" style="fill: rgb(175, 155, 132);"/>
				<path class="st18" d="M904.3,675.8l-4.9-5.5c-0.2-0.2-0.5-0.2-0.6,0l-4.9,5.6c-0.2,0.3,0,0.7,0.3,0.7l2,0l0,8.1l5.7,0l0-8.1l2,0&#10;&#9;&#9;&#9;&#9;&#9;C904.3,676.5,904.5,676.1,904.3,675.8z" style="fill: rgb(175, 155, 132);"/>
			</g>
			<path class="st18" d="M903.9,690.2l-22.5,0c-2.4,0-4.3-1.9-4.3-4.3l0-17.1c0-2.4,1.9-4.3,4.3-4.3l22.5,0c2.4,0,4.3,1.9,4.3,4.3&#10;&#9;&#9;&#9;&#9;l0,17.1C908.2,688.3,906.3,690.2,903.9,690.2z M881.3,665.3c-1.9,0-3.5,1.6-3.5,3.5l0,17.1c0,1.9,1.6,3.5,3.5,3.5l22.5,0&#10;&#9;&#9;&#9;&#9;c1.9,0,3.5-1.6,3.5-3.5l0-17.1c0-1.9-1.6-3.5-3.5-3.5L881.3,665.3z" style="fill: rgb(175, 155, 132);"/>
		</g>
		<g>
			<path class="st19" d="M803.5,585.2l-21.8,0c-2,0-3.6,1.6-3.6,3.6l0,6.9c0,2,1.6,3.6,3.6,3.6l21.8,0c2,0,3.6-1.6,3.6-3.6l0-6.9&#10;&#9;&#9;&#9;&#9;C807.1,586.8,805.5,585.2,803.5,585.2z" style="fill: rgb(255, 254, 249);"/>
			<g>
				<path class="st20" d="M781.4,589.7L781.4,589.7c0,0.4,0.3,0.7,0.7,0.7l21,0c0.4,0,0.7-0.3,0.7-0.7l0,0c0-0.4-0.3-0.7-0.7-0.7&#10;&#9;&#9;&#9;&#9;&#9;l-21,0C781.7,589,781.4,589.3,781.4,589.7z" style="fill: rgb(154, 162, 174);"/>
				<path class="st20" d="M781.4,594.7L781.4,594.7c0,0.4,0.3,0.7,0.7,0.7l21,0c0.4,0,0.7-0.3,0.7-0.7l0,0c0-0.4-0.3-0.7-0.7-0.7&#10;&#9;&#9;&#9;&#9;&#9;l-21,0C781.7,594,781.4,594.3,781.4,594.7z" style="fill: rgb(154, 162, 174);"/>
			</g>
		</g>
	</g>
	<path class="st31" d="M871.2,515.4c-3.3,0-6-2.7-6-6c0-3.3,2.7-6,6-6l57.9,0c0,0,0,0,0,0c3.3,0,6,2.7,6,6c0,3.3-2.7,6-6,6&#10;&#9;&#9;L871.2,515.4C871.2,515.4,871.2,515.4,871.2,515.4z" style="fill: rgb(135, 198, 233);"/>
	<path class="st31" d="M765,710.8c-3.3,0-6-2.7-6-6c0-3.3,2.7-6,6-6l46.2,0c0,0,0,0,0,0c3.3,0,6,2.7,6,6c0,3.3-2.7,6-6,6L765,710.8&#10;&#9;&#9;C765,710.8,765,710.8,765,710.8z" style="fill: rgb(135, 198, 233);"/>
	<g>
		<g>
			<path class="st28" d="M1007.6,464.4l-40.7,0l0,20.8l40.7,0c5.8,0,10.4-4.7,10.4-10.4C1018,469.1,1013.3,464.4,1007.6,464.4z" style="fill: rgb(109, 126, 143);"/>
			<path d="M 977.300024 474.899994 A 10.4 10.4 0 0 1 966.900024 485.299994 A 10.4 10.4 0 0 1 956.500025 474.899994 A 10.4 10.4 0 0 1 966.900024 464.499994 A 10.4 10.4 0 0 1 977.300024 474.899994 Z" class="st29" style="fill: rgb(88, 103, 117);"/>
			<path class="st32" d="M800.2,710.8c-3.3,0-6-2.7-6-6c0-2.3,1.6-5.8,6-6v0c0.1,0,0.1,0,0.2,0c0.1,0,0.1,0,0.2,0l122.7-0.1&#10;&#9;&#9;&#9;&#9;l-0.1-209.5c0-11.2,9.1-20.4,20.4-20.4l20.7,0c0,0,0,0,0,0c3.3,0,6,2.7,6,6c0,3.3-2.7,6-6,6l-20.7,0c-4.7,0-8.4,3.8-8.4,8.5&#10;&#9;&#9;&#9;&#9;l0.1,215.4c0,1.6-0.6,3.1-1.7,4.2c-1.1,1.1-2.6,1.7-4.2,1.7C929.3,710.7,800.7,710.8,800.2,710.8z" style="fill: rgb(91, 167, 220);"/>
		</g>
		<g>
			<path class="st29" d="M945.8,704.7c0-10.8-6.9-20.1-16.6-23.5l0-1.5l-8.4,0c-13.8,0-25,11.2-25,25c0,13.8,11.2,25,25,25l8.4,0&#10;&#9;&#9;&#9;&#9;l0-1.5C938.9,724.8,945.8,715.6,945.8,704.7z" style="fill: rgb(88, 103, 117);"/>
			<path d="M 954.299988 704.799988 A 25 25 0 0 1 929.299988 729.799988 A 25 25 0 0 1 904.299988 704.799988 A 25 25 0 0 1 929.299988 679.799988 A 25 25 0 0 1 954.299988 704.799988 Z" class="st28" style="fill: rgb(109, 126, 143);"/>
			<path d="M 939.699987 704.799988 A 10.4 10.4 0 0 1 929.299988 715.199987 A 10.4 10.4 0 0 1 918.899988 704.799988 A 10.4 10.4 0 0 1 929.299988 694.399988 A 10.4 10.4 0 0 1 939.699987 704.799988 Z" class="st30" style="fill: rgb(255, 253, 235);"/>
		</g>
	</g>
</g>
<g>
	<g>
		<g>
			<path class="st33" d="M677.2,488.9h-32.9c-6.4,0-11.6-5.2-11.6-11.6s5.2-11.6,11.6-11.6h21.3V439c0-6.4,5.2-11.6,11.6-11.6&#10;&#9;&#9;&#9;&#9;s11.6,5.2,11.6,11.6v38.2C688.9,483.7,683.7,488.9,677.2,488.9z" style="fill: rgb(182, 131, 85);"/>
			<path class="st34" d="M691.8,443.7v-43c0-8.1-6.5-14.6-14.6-14.6l0,0c-8.1,0-14.6,6.5-14.6,14.6v43H691.8z" style="fill: rgb(239, 236, 222);"/>
		</g>
		<path class="st33" d="M648.8,480.3c-1,0-2.1-0.2-3.1-0.7l-21.6-11c-3.4-1.7-4.7-5.8-3-9.2c1.7-3.4,5.8-4.7,9.2-3l21.6,11&#10;&#9;&#9;&#9;c3.4,1.7,4.7,5.8,3,9.2C653.7,478.9,651.3,480.3,648.8,480.3z" style="fill: rgb(182, 131, 85);"/>
		<path class="st33" d="M646.3,488.9h-37.6c-5.7,0-10.3-4.6-10.3-10.3v0c0-5.7,4.6-10.3,10.3-10.3h44.6v13.5&#10;&#9;&#9;&#9;C653.4,485.7,650.2,488.9,646.3,488.9z" style="fill: rgb(182, 131, 85);"/>
	</g>
	<g>
		<path class="st30" d="M751.9,510.2V401.9c0-8.7-7-15.7-15.7-15.7h-53.7c-8.7,0-15.7,7-15.7,15.7v108.4H751.9z" style="fill: rgb(255, 253, 235);"/>
		<path class="st32" d="M739,446.1v-59.7c-0.9-0.2-1.8-0.3-2.8-0.3h-5.3v10.5c0,10-8.1,18.1-18.1,18.1h-5.2&#10;&#9;&#9;&#9;c-10,0-18.1-8.1-18.1-18.1v-10.5h-7c-0.4,0-0.7,0-1.1,0v59.9c0,3.1-2.5,5.6-5.6,5.6h-9v59.2v41.9v133.5H698V564.2&#10;&#9;&#9;&#9;c0-6.3,5.1-11.4,11.4-11.4l0,0c6.3,0,11.4,5.1,11.4,11.4v122.1h31.1V552.8v-41.9v-59.2h-7.3C741.5,451.7,739,449.2,739,446.1z" style="fill: rgb(91, 167, 220);"/>
		<path class="st35" d="M740.4,453.3v236.4l11.5-3.4V552.8v-41.9v-59.2h-7.3C743,451.7,741.5,451,740.4,453.3z" style="fill: rgb(82, 156, 198);"/>
		<path d="M 690.299988 430.899994 H 728.399986 V 435.099994 H 690.299988 V 430.899994 Z" class="st27" style="fill: rgb(77, 148, 188);"/>
		
			<path d="M 738.299988 489.600006 H 742.699988 V 507.900005 H 738.299988 V 489.600006 Z" transform="matrix(0.4091 -0.9125 0.9125 0.4091 -17.5716 970.3484)" class="st27" style="fill: rgb(77, 148, 188);"/>
		<path d="M 666.7999877929688 502.5 L 679.2000122070312 497 L 677.4000244140625 493 L 666.7999877929688 497.70001220703125 Z" class="st27" style="fill: rgb(77, 148, 188);"/>
		<path class="st35" d="M688.9,565.2v121.1h9.1V564.2c0-6.1,4.8-11.1,10.8-11.4v-0.3h-7.2C694.5,552.6,688.9,558.2,688.9,565.2z" style="fill: rgb(82, 156, 198);"/>
	</g>
	<g>
		<path class="st15" d="M568.2,412.4v62.6c0,6.1,5,11.1,11.1,11.1h68.4c6.1,0,11.1-5,11.1-11.1v-62.6c0-6.1-5-11.1-11.1-11.1h-68.4&#10;&#9;&#9;&#9;C573.2,401.3,568.2,406.3,568.2,412.4z" style="fill: rgb(255, 235, 198);"/>
		<path class="st16" d="M622.1,412.4v62.6c0,6.1,5,11.1,11.1,11.1h45.7c6.1,0,11.1-5,11.1-11.1v-62.6c0-6.1-5-11.1-11.1-11.1h-45.7&#10;&#9;&#9;&#9;C627.1,401.3,622.1,406.3,622.1,412.4z" style="fill: rgb(240, 212, 154);"/>
		<path d="M 650.900024 401.299988 H 661.200025 V 415.799988 H 650.900024 V 401.299988 Z" class="st17" style="fill: rgb(237, 179, 116);"/>
		<g>
			<path d="M 665.7000122070312 428.8999938964844 L 644.0999755859375 435.5 L 648.5999755859375 450.29998779296875 L 676.5999755859375 441.79998779296875 L 674.0999755859375 433.3999938964844 Z" class="st24" style="fill: rgb(255, 250, 190);"/>
			<path d="M 667.7000122070312 435.29998779296875 L 665.7000122070312 428.8999938964844 L 674.0999755859375 433.3999938964844 Z" class="st19" style="fill: rgb(255, 254, 249);"/>
		</g>
		<g>
			<path class="st25" d="M608.5,471l-3.2-3.7c-0.1-0.1-0.3-0.1-0.4,0l-3.2,3.7c-0.2,0.2,0,0.4,0.2,0.4h1.3v5.4h3.8v-5.4h1.3&#10;&#9;&#9;&#9;&#9;C608.5,471.5,608.6,471.2,608.5,471z" style="fill: rgb(211, 191, 165);"/>
			<path class="st25" d="M617,471l-3.2-3.7c-0.1-0.1-0.3-0.1-0.4,0l-3.2,3.7c-0.2,0.2,0,0.4,0.2,0.4h1.3v5.4h3.8v-5.4h1.3&#10;&#9;&#9;&#9;&#9;C617,471.5,617.2,471.2,617,471z" style="fill: rgb(211, 191, 165);"/>
		</g>
	</g>
	<g>
		<path class="st17" d="M747.5,427.3c-6.4,0-11.6,5.2-11.6,11.6v26.6h-57.1c-2.9,0-5.5,1-7.5,2.8h-28c-5.7,0-10.3,4.6-10.3,10.3v0&#10;&#9;&#9;&#9;c0,5.7,4.6,10.3,10.3,10.3h35.6h2h66.7c6.4,0,11.6-5.2,11.6-11.6V439C759.2,432.5,754,427.3,747.5,427.3z" style="fill: rgb(237, 179, 116);"/>
		<path class="st36" d="M750.1,427.6c0.8,1.6,1.3,3.4,1.3,5.3v38.2c0,6.4-5.2,11.6-11.6,11.6H673h-2h-35.6c-0.5,0-1.1-0.1-1.6-0.1&#10;&#9;&#9;&#9;c1.6,3.6,5.2,6.2,9.4,6.2h35.6h2h66.7c6.4,0,11.6-5.2,11.6-11.6V439C759.2,433.4,755.3,428.8,750.1,427.6z" style="fill: rgb(214, 154, 95);"/>
		<path class="st30" d="M762.1,443.7v-43c0-8.1-6.5-14.6-14.6-14.6l0,0c-8.1,0-14.6,6.5-14.6,14.6v43H762.1z" style="fill: rgb(255, 253, 235);"/>
		<path class="st34" d="M747.5,386.2L747.5,386.2c-1.1,0-2.1,0.1-3.1,0.3c6.5,1.4,11.5,7.3,11.5,14.2v43h6.2v-43&#10;&#9;&#9;&#9;C762.1,392.7,755.6,386.2,747.5,386.2z" style="fill: rgb(239, 236, 222);"/>
		<path class="st17" d="M683.3,480.3c-1,0-2.1-0.2-3.1-0.7l-21.6-11c-3.4-1.7-4.7-5.8-3-9.2c1.7-3.4,5.8-4.7,9.2-3l21.6,11&#10;&#9;&#9;&#9;c3.4,1.7,4.7,5.8,3,9.2C688.2,478.9,685.8,480.3,683.3,480.3z" style="fill: rgb(237, 179, 116);"/>
	</g>
	<g>
		<path class="st17" d="M727.6,341.3l-0.1,53.8c0,6.3-5.1,11.3-11.4,11.3l-12,0c-6.3,0-11.3-5.1-11.3-11.4l0.1-53.8L727.6,341.3z" style="fill: rgb(237, 179, 116);"/>
		<path class="st37" d="M725.9,341.3v12.6c0,18.6-14.6,33.7-33,34.5v-47.1H725.9z" style="fill: rgb(198, 144, 92);"/>
		<path class="st17" d="M688.3,273.4L688.3,273.4c-21.7,0-39.3,17.6-39.3,39.3v36.1c0,19.1,15.5,34.5,34.5,34.5h9.5&#10;&#9;&#9;&#9;c19.1,0,34.5-15.5,34.5-34.5v-36.1C727.6,291,710,273.4,688.3,273.4z" style="fill: rgb(237, 179, 116);"/>
		<g>
			<path class="st38" d="M697.5,352.7v0.9c0,0.7-0.1,1.5-0.2,2.2c-0.1,0.3-0.1,0.7-0.2,1c-1.4,6.4-7.2,11.2-14,11.2&#10;&#9;&#9;&#9;&#9;c-2.7,0-5.1-0.7-7.3-2c-3.4-2-5.9-5.3-6.8-9.2c-0.2-1-0.4-2.1-0.4-3.2v-0.9H697.5z" style="fill: rgb(242, 109, 110);"/>
			<path class="st39" d="M697.4,355.8c-0.1,0.3-0.1,0.7-0.2,1c-1.4,6.4-7.2,11.2-14,11.2c-2.7,0-5.1-0.7-7.3-2&#10;&#9;&#9;&#9;&#9;c4-6.2,11-10.4,19-10.4C695.7,355.7,696.5,355.7,697.4,355.8z" style="fill: rgb(219, 66, 82);"/>
			<path class="st30" d="M697.5,352.7v0.9c0,1.1-0.1,2.2-0.4,3.2h-28.1c-0.2-1-0.4-2.1-0.4-3.2v-0.9H697.5z" style="fill: rgb(255, 253, 235);"/>
		</g>
		<g>
			<path class="st40" d="M698,327c-2.4,0-4.4,1.9-4.4,4.4v3.2c0,2.4,1.9,4.4,4.4,4.4s4.4-1.9,4.4-4.4v-3.2&#10;&#9;&#9;&#9;&#9;C702.3,328.9,700.4,327,698,327z" style="fill: rgb(81, 72, 53);"/>
			<path class="st40" d="M701.7,319.9h-16.3c-1.3,0-2.3,1-2.3,2.3c0,1.3,1,2.3,2.3,2.3h16.3c1.3,0,2.3-1,2.3-2.3&#10;&#9;&#9;&#9;&#9;C704.1,320.9,703,319.9,701.7,319.9z" style="fill: rgb(81, 72, 53);"/>
			<path class="st40" d="M662.6,327c-2.4,0-4.4,1.9-4.4,4.4v3.2c0,2.4,1.9,4.4,4.4,4.4c2.4,0,4.4-1.9,4.4-4.4v-3.2&#10;&#9;&#9;&#9;&#9;C666.9,328.9,665,327,662.6,327z" style="fill: rgb(81, 72, 53);"/>
			<path class="st40" d="M666.4,319.9h-16.3c-1.3,0-2.3,1-2.3,2.3c0,1.3,1,2.3,2.3,2.3h16.3c1.3,0,2.3-1,2.3-2.3&#10;&#9;&#9;&#9;&#9;C668.7,320.9,667.7,319.9,666.4,319.9z" style="fill: rgb(81, 72, 53);"/>
		</g>
		<path class="st32" d="M720.7,263.4h-58c-7.5,0-13.6,6.1-13.6,13.6v23.1h-18.9c-2.8,0-5.1,2.3-5.1,5.1c0,2.8,2.3,5.1,5.1,5.1h104.2&#10;&#9;&#9;&#9;v-10.2V277C734.3,269.5,728.2,263.4,720.7,263.4z" style="fill: rgb(91, 167, 220);"/>
		<path class="st41" d="M649,277v23.1h40.6V277c0-7.5-6.1-13.6-13.6-13.6h-13.3C655.1,263.4,649,269.5,649,277z" style="fill: rgb(228, 237, 248);"/>
		<path class="st40" d="M726.9,310.4h-19.9v19.3h19.9v26h2.7c2.6,0,4.7-2.1,4.7-4.7v-21.3v-19.3H726.9z" style="fill: rgb(81, 72, 53);"/>
		<g>
			<path d="M 733.399988 335.899994 A 10.6 10.6 0 0 1 722.799988 346.499994 A 10.6 10.6 0 0 1 712.199987 335.899994 A 10.6 10.6 0 0 1 722.799988 325.299994 A 10.6 10.6 0 0 1 733.399988 335.899994 Z" class="st17" style="fill: rgb(237, 179, 116);"/>
			<path class="st37" d="M722.8,343.5c-4.2,0-7.6-3.4-7.6-7.6s3.4-7.6,7.6-7.6c0.8,0,1.4,0.6,1.4,1.4s-0.6,1.4-1.4,1.4&#10;&#9;&#9;&#9;&#9;c-2.6,0-4.8,2.1-4.8,4.8s2.1,4.8,4.8,4.8c0.8,0,1.4,0.6,1.4,1.4S723.6,343.5,722.8,343.5z" style="fill: rgb(198, 144, 92);"/>
		</g>
		<path class="st40" d="M710.6,345.3L710.6,345.3c-1.9,0-3.5-1.6-3.5-3.5v-31.5h7v31.5C714.1,343.8,712.5,345.3,710.6,345.3z" style="fill: rgb(81, 72, 53);"/>
	</g>
	<g>
		<path class="st29" d="M624.5,709.6v9.5h45.1v-27H642C632.3,692.1,624.5,699.9,624.5,709.6z" style="fill: rgb(88, 103, 117);"/>
		<path class="st29" d="M695.2,679L695.2,679c0,1.6-1.3,2.9-2.9,2.9h-18.1c-1.6,0-2.9-1.3-2.9-2.9l0,0c0-1.6-1.3-2.9-2.9-2.9H667&#10;&#9;&#9;&#9;c-1.6,0-2.9,1.3-2.9,2.9v40.1h7.2h23.9h7.2V679c0-1.6-1.3-2.9-2.9-2.9h-1.4C696.5,676.1,695.2,677.4,695.2,679z" style="fill: rgb(88, 103, 117);"/>
		<path class="st42" d="M699.5,713.5h-73.8c-3.1,0-5.5,2.5-5.5,5.5s2.5,5.5,5.5,5.5h73.8c3.1,0,5.5-2.5,5.5-5.5&#10;&#9;&#9;&#9;S702.6,713.5,699.5,713.5z" style="fill: rgb(206, 203, 186);"/>
		<g>
			<path class="st30" d="M644.3,691.2h-0.6c-1,0-1.7,0.8-1.7,1.7v8.2c0,1,0.8,1.7,1.7,1.7h0.6c1,0,1.7-0.8,1.7-1.7V693&#10;&#9;&#9;&#9;&#9;C646.1,692,645.3,691.2,644.3,691.2z" style="fill: rgb(255, 253, 235);"/>
			<path class="st30" d="M652.3,691.2h-0.6c-1,0-1.7,0.8-1.7,1.7v8.2c0,1,0.8,1.7,1.7,1.7h0.6c1,0,1.7-0.8,1.7-1.7V693&#10;&#9;&#9;&#9;&#9;C654,692,653.2,691.2,652.3,691.2z" style="fill: rgb(255, 253, 235);"/>
			<path class="st30" d="M660.2,691.2h-0.6c-1,0-1.7,0.8-1.7,1.7v8.2c0,1,0.8,1.7,1.7,1.7h0.6c1,0,1.7-0.8,1.7-1.7V693&#10;&#9;&#9;&#9;&#9;C661.9,692,661.1,691.2,660.2,691.2z" style="fill: rgb(255, 253, 235);"/>
		</g>
	</g>
	<g>
		<path class="st28" d="M676.7,709.6v9.5h45.1v-27h-27.6C684.6,692.1,676.7,699.9,676.7,709.6z" style="fill: rgb(109, 126, 143);"/>
		<path class="st28" d="M747.4,679L747.4,679c0,1.6-1.3,2.9-2.9,2.9h-18.1c-1.6,0-2.9-1.3-2.9-2.9l0,0c0-1.6-1.3-2.9-2.9-2.9h-1.4&#10;&#9;&#9;&#9;c-1.6,0-2.9,1.3-2.9,2.9v40.1h7.2h23.9h7.2V679c0-1.6-1.3-2.9-2.9-2.9h-1.4C748.7,676.1,747.4,677.4,747.4,679z" style="fill: rgb(109, 126, 143);"/>
		<path class="st30" d="M751.8,713.5H678c-3.1,0-5.5,2.5-5.5,5.5s2.5,5.5,5.5,5.5h73.8c3.1,0,5.5-2.5,5.5-5.5&#10;&#9;&#9;&#9;S754.9,713.5,751.8,713.5z" style="fill: rgb(255, 253, 235);"/>
		<g>
			<path class="st30" d="M696.6,691.2H696c-1,0-1.7,0.8-1.7,1.7v8.2c0,1,0.8,1.7,1.7,1.7h0.6c1,0,1.7-0.8,1.7-1.7V693&#10;&#9;&#9;&#9;&#9;C698.3,692,697.6,691.2,696.6,691.2z" style="fill: rgb(255, 253, 235);"/>
			<path class="st30" d="M704.5,691.2h-0.6c-1,0-1.7,0.8-1.7,1.7v8.2c0,1,0.8,1.7,1.7,1.7h0.6c1,0,1.7-0.8,1.7-1.7V693&#10;&#9;&#9;&#9;&#9;C706.2,692,705.5,691.2,704.5,691.2z" style="fill: rgb(255, 253, 235);"/>
			<path class="st30" d="M712.4,691.2h-0.6c-1,0-1.7,0.8-1.7,1.7v8.2c0,1,0.8,1.7,1.7,1.7h0.6c1,0,1.7-0.8,1.7-1.7V693&#10;&#9;&#9;&#9;&#9;C714.2,692,713.4,691.2,712.4,691.2z" style="fill: rgb(255, 253, 235);"/>
		</g>
	</g>
</g>
</svg>